<?xml version="1.0" encoding="utf-8"?>
<!-- Generator: Adobe Illustrator 24.0.1, SVG Export Plug-In . SVG Version: 6.00 Build 0)  -->
<svg version="1.1" id="Layer_1" xmlns="http://www.w3.org/2000/svg" xmlns:xlink="http://www.w3.org/1999/xlink" x="0px" y="0px"
	 width="240px" height="128px" viewBox="0 0 240 128" style="enable-background:new 0 0 240 128;" xml:space="preserve">
<style type="text/css">
	.st0{fill:#FFC06C;stroke:#131417;stroke-width:5;stroke-miterlimit:10;}
	.st1{fill:#864006;}
	.st2{fill:#B5671A;}
	.st3{fill:#868686;}
	.st4{fill:#C5871F;}
	.st5{fill:#E7B10C;}
	.st6{fill:#B8B2AA;}
	.st7{fill:#CCBB8E;}
	.st8{fill:#FCE1A2;}
	.st9{fill:#E9E7E6;}
	.st10{fill:#212526;}
	.st11{fill:#DF4456;}
	.st12{fill:#CC364B;}
	.st13{fill:#D39256;}
	.st14{fill:#FFC74F;}
	.st15{fill:#F24962;}
</style>
<circle class="st0" cx="64" cy="64" r="61.5"/>
<circle class="st0" cx="176" cy="64" r="61.5"/>
<g id="layer101_1_">
	<path class="st1" d="M57.5,96.2C43,94.7,32.2,90.4,28.1,84.4c-1.3-1.8-1.4-2.3-1.5-6c-0.2-4.9,0.6-6.9,4.1-10.1l2.3-2.2v-2.9
		c0-3.4,0.7-5.1,2.8-7.1c1.7-1.7,1.8-2.1,0.9-4.6c-1-2.7-0.8-7.8,0.3-10.1c1.7-3.6,7.5-7,15-8.9c3.4-0.8,4.9-1,13.4-0.9
		c8.9,0,9.8,0.1,13.7,1.1c6.6,1.8,11.2,4.4,13.7,7.6c1.1,1.4,1.3,2.1,1.5,5.9c0.2,2.4,0.5,5.1,0.7,5.9c0.2,0.8,0.3,3.2,0.1,5.3
		c-0.3,3.4-0.4,3.9-1.6,5.5L92,64.7l2.5,1.6c4.9,3,6.9,6.4,7,11.5c0,4.1-0.9,6.1-4.1,9.1c-4.1,3.8-11.4,6.8-20.8,8.5
		C72.7,96.1,60.9,96.6,57.5,96.2z"/>
</g>
<g id="layer102_1_">
	<path class="st2" d="M57.5,96.2C43,94.7,32.2,90.4,28.1,84.4c-1.3-1.8-1.4-2.3-1.5-6c-0.2-4.9,0.6-6.9,4.1-10.1
		c2.3-2.1,2.3-2.2,2.4-4.7v-2.5l0.4,1.8c0.9,3.9,6,7.7,13.4,9.8c4.4,1.3,14.4,2.4,17.8,2.1c1.7-0.2,2.7,0,3.2,0.3
		c0.9,0.7,0.8,2.9,0,3.6c-2.4,2-2.4,2.1-1.7,3.2l0.7,1h-4.5c-11.9,0-22.7-4.1-25.5-9.7c-0.5-1-1-1.6-1.1-1.3
		c-0.5,1.4,3.4,5.8,6.7,7.5c5.5,2.8,13.9,4.5,22.1,4.4c5.1,0,5.3,0,5.3,0.9c0,1.7-0.8,2.6-2.6,2.9c-2,0.3-2.7,1-2.5,2.4
		s2.6,1.9,6.9,1.3c4.5-0.7,7.5-2,7.8-3.4c0.3-1.6-1-2.5-3.4-2.2c-1.6,0.2-2.3,0.1-2.9-0.5c-1.3-1.2-0.9-1.8,1.7-2.3
		c8.5-1.7,15.3-5.4,17-9.3c0.9-2,1.1-3.7,0.4-3.7c-0.2,0-0.4,0.5-0.4,1.1c0,4-5.9,8.4-14.2,10.5c-5.1,1.3-5.4,1.3-3.8,0
		s1.3-2.9-0.6-2.9c-1.6,0-2.3-0.9-2.1-2.9l0.1-1.6l3.9-1c4.5-1.1,7.3-2.3,10.3-4.2c2.9-1.9,2.2-2-1.1-0.2c-2.9,1.6-7.5,3.4-10.4,3.9
		c-1.5,0.3-1.6,0.2-1.6-0.6c0-0.5-0.5-1.1-1.2-1.4c-1-0.4-1.3-0.9-1.3-2.2c-0.1-1.1,0-1.6,0.4-1.6c1.6,0,7-1,10.1-1.8
		c7-1.8,13-5.7,14.1-9.2c0.3-1.1,0.4-0.8,0.3,2c-0.1,3-0.2,3.5-1.5,5L92,64.7l2.5,1.6c4.9,3,6.9,6.4,7,11.5c0,4.1-0.9,6.1-4.1,9.1
		c-4.1,3.8-11.4,6.8-20.8,8.5C72.7,96.1,60.9,96.6,57.5,96.2z"/>
	<path class="st2" d="M52.3,73.2c-9.8-1.7-16.8-5.8-18-10.3c-0.3-1-0.6-2-0.8-2.2C33,60,34.2,57.8,36,56l1.7-1.7l0.3,1.5
		c0.4,2,4.2,5.6,7.8,7.2c1.5,0.7,4.2,1.6,6.1,2.1c4.1,1.1,13.5,2.3,14.8,2c0.9-0.2,1-0.1,1,1.2c0,1.6-0.7,2.5-1.8,2.5
		c-0.9,0-1.8,1.5-1.5,2.4c0.2,0.5-0.5,0.6-4.2,0.6C57.7,73.9,54.2,73.6,52.3,73.2z"/>
	<path class="st2" d="M56.4,65.4c-9.8-1.8-16.9-5.8-18-10.4c-0.2-0.7-0.7-1.8-1.2-2.5c-0.7-0.9-0.9-2-1-4.6L36,44.6l0.7,1.8
		c1,2.3,2.3,3.8,5.4,5.8c4.5,2.9,13.8,5.3,20.4,5.2c3.7,0,4.7,0.5,4.7,2.6c0,1.3-0.7,2.2-1.8,2.2c-0.6,0-0.8,0.3-0.8,1.7
		c0,1,0.2,1.8,0.6,1.9C66.4,66.3,59.4,66,56.4,65.4z"/>
	<path class="st2" d="M71.5,65.7c0.7-0.3,1-0.7,1-1.9c0-1.6-0.9-2.7-1.8-2.3C70,62,69.4,61,69.4,59.2v-1.6l4.7-0.7
		c10.1-1.6,17-5.2,19.2-10l0.7-1.7l0.2,2.8c0.1,1.5,0.3,3.2,0.4,3.8s0.4,1.4,0.5,2c0.2,0.8,0.2,0.8-0.4-0.1L94,52.6v1.2
		c0,5.3-7.2,9.9-18.4,11.8C71.4,66.2,70,66.3,71.5,65.7z"/>
	<path class="st2" d="M54.5,55.9c-10.1-2-17.2-6.5-17.2-10.9c0-1-0.2-1.5-0.7-1.5c-1.1,0,1.2-4,3.2-5.6c2.4-2,7.6-4.2,12.1-5.4
		c3.4-0.8,4.9-1,13.4-0.9c8.8,0,9.8,0.1,13.7,1.1c6.9,1.9,11.2,4.3,14.2,8.3c0.7,0.9,0.7,1.4-0.2,4.2c-0.4,1.3-1.3,3-2.2,4
		c-2.7,2.9-10.2,6-17.4,7.1c-1.7,0.3-1.8,0.2-1.4-0.5c0.7-1.3,1.4-1.7,3.7-2c2-0.2,2.3-0.4,4.6-2.9c1.3-1.5,2.7-2.6,3.1-2.6
		c1.2,0,2.1-1.5,2.1-3.3c0-2.2-0.4-2.8-2.2-3.2c-1.4-0.3-1.9-0.7-2.3-2.3c-0.2-0.6-0.7-0.8-2.3-0.8h-2.1l0.2,1.5
		c0.1,1.1-0.1,1.7-0.8,2.3c-2.5,2.3-10.6,2.4-13.1,0.2c-0.8-0.7-1-2.8-0.5-4.2c0.3-0.9,2.4-2,4.6-2.3c1.7-0.3,1.7-0.3,1-1.1
		c-0.7-0.7-1.6-0.7-7-0.7c-5.7,0-6.3,0.1-7.1,0.9C53.4,35.8,53,36.6,53,37c0,1.1-1.3,1.7-3.3,1.7c-1.9,0-2.7,0.6-2.7,2
		c0,1.7,0.7,2.1,3.6,2.3c2.6,0.2,2.9,0.3,3.2,1.3c0.3,1.5-0.3,2.4-1.9,2.6c-3.3,0.4-3.7,3-0.8,5.7c1.9,1.8,2,1.8,5.4,1.8
		s3.9,0.3,3.9,1.8C60.3,56.7,58.1,56.6,54.5,55.9z"/>
</g>
<g id="layer103_1_">
	<path class="st3" d="M57.5,96.2C43,94.7,32.2,90.4,28.1,84.4c-1.3-1.8-1.4-2.3-1.5-6c-0.2-4.9,0.6-6.9,4.1-10.1
		c2.1-2,2.3-2.3,2.3-4v-1.9l0.9,1.7c1,2.2,1.5,2.8,3.9,4.6c5,3.8,14.4,6.1,25.5,6.2h4.6l0.1,1.8l0.1,1.8L66,78.8
		c-3.5,0.5-11,0.2-15.3-0.7c-5.2-1-9.4-2.6-12.6-4.7c-2.1-1.4-2.6-1.6-2.6-1c0,0.8,2,3.7,3.3,4.9c1.5,1.3,6.9,3.8,10.2,4.6
		c5.2,1.4,8.9,1.9,15,1.8c5.5,0,5.7,0,5.7,0.9c0,1.6-0.8,2.5-2.6,2.8c-2,0.3-2.8,1.1-2.6,2.5c0.2,1.4,2.6,1.9,6.9,1.3
		c4.5-0.7,7.5-2,7.8-3.4c0.4-2-1.3-2.9-4.1-2.2c-0.9,0.3-1.3,0.1-2-0.6c-0.5-0.5-0.9-1.1-0.9-1.3s1.3-0.6,2.7-0.9
		c8-1.4,14.9-5.2,17.1-9.3c0.8-1.6,0.5-5.2-0.6-6.4c-0.8-0.9-1.6-0.7-1.2,0.3c0.6,1.4-4.3,6.7-6.2,6.7c-0.3,0-1.2,0.4-1.8,0.9
		c-0.7,0.5-1.5,0.8-1.7,0.7c-0.2-0.1-0.7,0-1,0.3c-0.4,0.6-2.2,1.2-3.9,1.3c-0.4,0-0.9,0.2-1.2,0.3c-1,0.6-3.2-0.2-3.4-1.2
		c-0.5-2-0.1-2.5,2.9-3.1c5.5-1.1,11.1-3.5,13-5.6l1-1.2l-2.5,1.1c-1.4,0.6-2.6,1-2.8,1c-0.2,0-0.9,0.2-1.6,0.5s-1.3,0.4-1.5,0.3
		c-0.1-0.1-0.5,0-0.8,0.3s-0.9,0.4-1.3,0.3c-0.3-0.2-0.7,0-0.9,0.2c-0.1,0.3-0.7,0.3-1.2,0.2c-0.5-0.1-1.2,0-1.5,0.3
		c-0.4,0.3-1,0.3-2.3-0.1c-1.6-0.5-1.7-0.7-1.7-2.2v-1.6l2.5-0.3c9.7-1.1,16.7-3.9,20.3-8.2c1.2-1.4,1.6-1.6,1.8-1
		c0.5,1.3-0.2,3.8-1.5,5.5L92,64.7l2.5,1.6c4.9,3,6.9,6.4,7,11.5c0,4.1-0.9,6.1-4.1,9.1c-4.1,3.8-11.4,6.8-20.8,8.5
		C72.7,96.1,60.9,96.6,57.5,96.2z"/>
</g>
<g id="layer104_1_">
	<path class="st4" d="M60.3,93.6c-8.5-0.3-17.1-2.3-23.2-5.3c-5.2-2.6-8.2-5.1-9.6-8.1c-2-4.3-1-8.1,3.1-11.9c2.1-2,2.3-2.3,2.3-4
		v-1.9l0.9,1.7c1,2.2,1.5,2.8,3.9,4.6c5,3.8,14.4,6.1,25.5,6.2h4.6l0.1,1.8l0.1,1.8l-2.1,0.3c-3.5,0.5-11,0.2-15.3-0.7
		c-5.2-1-9.4-2.6-12.6-4.7c-2.1-1.4-2.6-1.6-2.6-1c0,0.8,2,3.7,3.3,4.9c1.5,1.3,6.9,3.8,10.2,4.6c5.2,1.4,8.9,1.9,15,1.8
		c5.5,0,5.7,0,5.7,0.9c0,1.6-0.8,2.5-2.5,2.8c-0.9,0.2-1.9,0.5-2.2,0.7c-0.8,0.7-8.4,0-13.7-1.2C42,85,36.6,81.3,35.3,76
		c-0.5-2.2-0.5-2.2-0.6-0.6c-0.2,7.4,10.1,13.1,25.7,14.4c3,0.3,4,0.5,4.7,1.2c0.8,0.8,1.2,0.8,4.6,0.6c4.8-0.3,9.1-1.7,9.7-3.1
		c0.3-0.6,0.7-1,0.9-1s1.8-0.7,3.6-1.5c4.7-2.2,9.5-7,7.9-7.9c-0.3-0.2-0.4-0.2-0.3,0c0.3,0.3-3.3,4.2-3.9,4.2
		c-0.2,0-0.4,0.1-0.4,0.3c0,0.2-1,0.8-2.3,1.3c-1.3,0.6-2.7,1.2-3.3,1.5c-0.9,0.4-1.5,0.5-4.3,0.3c-0.4,0-1.3,0.1-2,0.3
		c-0.9,0.3-1.3,0.1-2-0.6c-0.5-0.5-0.9-1.1-0.9-1.3s1.3-0.6,2.7-0.9c8-1.4,14.9-5.2,17.1-9.3c0.8-1.6,0.5-5.2-0.6-6.4
		c-0.8-0.9-1.6-0.7-1.2,0.3c0.6,1.4-4.3,6.7-6.2,6.7c-0.3,0-1.2,0.4-1.8,0.9c-0.7,0.5-1.5,0.8-1.7,0.7c-0.2-0.1-0.7,0-1,0.3
		c-0.4,0.6-2.2,1.2-3.9,1.3c-0.4,0-0.9,0.2-1.2,0.3c-1,0.6-3.2-0.2-3.4-1.2c-0.5-2-0.1-2.5,2.9-3.1c5.5-1.1,11.1-3.5,13-5.6l1-1.2
		L85.6,68c-1.4,0.6-2.6,1-2.8,1c-0.2,0-0.9,0.2-1.6,0.5s-1.3,0.4-1.5,0.3c-0.1-0.1-0.5,0-0.8,0.3s-0.9,0.4-1.3,0.3
		c-0.3-0.2-0.7,0-0.9,0.2c-0.1,0.3-0.7,0.3-1.2,0.2c-0.5-0.1-1.2,0-1.5,0.3c-0.4,0.3-1,0.3-2.3-0.1c-1.6-0.5-1.7-0.7-1.7-2.2v-1.6
		l2.5-0.3c9.7-1.1,16.7-3.9,20.3-8.2c1.2-1.4,1.6-1.6,1.8-1c0.5,1.3-0.2,3.8-1.5,5.5L92,64.7l2.5,1.6c3,1.8,5,4,6.2,6.7
		c1,2.4,0.8,4.8-0.6,7.7C96.2,88.6,78.5,94.3,60.3,93.6z"/>
	<path class="st4" d="M59.7,71.2c-8-0.8-15.4-3.5-19.1-6.9c-2.6-2.4-3.3-3.7-3.2-6.8c0-2.3,0-2.4,0.5-1.2c2,5.6,13.9,10.5,26.4,10.8
		l3.4,0.1v1.4c0,1.2-0.3,1.5-1.9,2.3c-1,0.5-2,0.9-2.1,0.9C63.6,71.7,61.8,71.4,59.7,71.2z"/>
	<path class="st4" d="M57.5,61.7c-7.8-1-14.7-3.7-18.4-7.2c-2.3-2.2-3-3.8-3-7.3V45l1.1,2.3c1.3,2.7,2.8,4,6.9,6
		c4.9,2.5,10.5,3.8,18.7,4.3c2.2,0.2,3.9,0.3,4,0.3c0.1,0.1,0.3,0.7,0.4,1.4C67.6,62.2,65.3,62.7,57.5,61.7z"/>
	<path class="st4" d="M71.1,61.4c-1.4-0.3-1.5-0.4-1.6-2l-0.1-1.8l4.1-0.5c8.8-1.1,16.3-4.6,19.3-8.9l1.4-2.1v2
		c0,1.8-1.3,5.2-1.9,4.9c-0.1-0.1-0.7,0.5-1.3,1.3c-1.3,1.7-3.2,3.1-4.2,3.1c-0.4,0-1,0.3-1.3,0.7c-0.7,0.8-7.3,2.9-8.1,2.6
		c-0.3-0.1-0.7,0-0.9,0.2c-0.1,0.3-0.7,0.4-1.1,0.3c-0.4-0.1-1,0-1.1,0.2C74.1,61.8,73.5,61.8,71.1,61.4z"/>
	<path class="st4" d="M65.3,43.1c-2.8-1.1-3.1-1.4-3.1-3c0-1.2,0.3-1.7,1.5-2.5c0.8-0.5,2.3-1.1,3.4-1.3C69,36,69,36,68.3,35.2
		c-0.7-0.7-1.4-0.8-7.6-0.8c-6.3,0-6.9,0.1-7.5,0.9c-0.4,0.7-1.2,0.9-3.5,1c-1.6,0-3,0-3.1-0.2c-0.4-0.4,4.8-2,9.1-2.7
		c5-0.9,14.3-0.8,18.9,0c3.9,0.7,9.5,2.3,9.5,2.7c0,0.2-2.3,0.3-5,0.3s-5,0-5,0.1s0.5,0.6,1.1,1c0.9,0.7,1,1.2,1,2.4
		c-0.1,1.3-0.4,1.7-1.6,2.4C72.9,43.4,67.3,43.8,65.3,43.1z M70.6,41.3c0.8-0.5,0.7-0.5-1.4-0.6c-2.2,0-2.3,0-1.2,0.5
		C69.5,41.9,69.5,41.9,70.6,41.3z M70.4,38.8c1.3,0.4,1.3,0.4,0.6-0.2c-1.1-0.8-2-0.8-3.1,0c-0.8,0.6-0.8,0.7,0.2,0.2
		C68.8,38.4,69.4,38.4,70.4,38.8z"/>
</g>
<g id="layer105_1_">
	<path class="st5" d="M66.9,42.2c-2.3-0.4-4.1-1.6-3.9-2.5c0.6-3.1,10.8-3.6,12.5-0.5C76.5,41.2,71.3,43,66.9,42.2z M70.9,41.4
		c1.4-0.7,1-1.3-0.4-0.8c-0.6,0.2-1.5,0.3-2,0c-1.6-0.6-2.4,0-1,0.7C69.1,41.9,69.6,41.9,70.9,41.4z M66,39.6c-0.4-0.4-0.7-0.4-1,0
		s-0.3,0.5,0.5,0.5S66.4,40,66,39.6z M69.9,39.6c-0.4-0.4-0.7-0.4-1,0s-0.3,0.5,0.5,0.5C70.2,40.1,70.3,40,69.9,39.6z M73.8,39.6
		c-0.4-0.4-0.7-0.4-1,0s-0.3,0.5,0.5,0.5S74.2,40,73.8,39.6z M69.2,38.7c0.3,0,1,0.1,1.6,0.3c1.6,0.4,1.5-0.3-0.1-1
		c-1-0.3-1.6-0.3-2.6,0c-1.5,0.6-1.8,1.4-0.3,1C68.3,38.9,69,38.7,69.2,38.7z"/>
</g>
<g id="layer106">
	<path class="st6" d="M60.3,93.6c-8.5-0.3-17.1-2.3-23.2-5.3c-5.2-2.6-8.2-5.1-9.6-8.1c-2-4.3-1-8.1,3.1-11.9c2-1.9,2.3-2.3,2.3-3.8
		v-1.6l0.9,1.9c0.5,1,1.6,2.4,2.5,3.2c2.4,2,8.1,4.6,12.2,5.6c3.7,0.9,11.7,1.6,16.7,1.6h2.6l0.1,1.8l0.1,1.8l-2.7,0.3
		c-10.6,1.1-23.1-1.7-28.4-6.3c-0.9-0.8-1.6-1.3-1.8-1.1c-0.1,0.1,0.1,1,0.5,1.9c2.6,6.3,13.9,10.7,27.6,10.8h6v1.1
		c0,1.3-0.7,2.1-2,2.1c-0.5,0-1.3,0.3-1.9,0.7c-2,1.4-15.2-0.4-20.9-3c-5.5-2.4-8.3-5.2-9.3-9.1c-0.5-2.2-0.5-2.2-0.6-0.6
		C34.3,83,44.6,88.7,60.2,90c3,0.3,4,0.5,4.7,1.2c0.8,0.8,1.2,0.8,4.6,0.6c4.7-0.3,9-1.7,9.7-3.2c0.3-0.6,0.7-1,0.9-1
		s1.8-0.7,3.6-1.5c4.7-2.2,9.5-7,7.9-7.9c-0.3-0.2-0.4-0.2-0.3,0c0.3,0.3-3.3,4.2-3.9,4.2c-0.2,0-0.4,0.1-0.4,0.3
		c0,0.2-1,0.8-2.3,1.3c-1.3,0.6-2.7,1.2-3.2,1.5c-0.5,0.2-1.4,0.4-2,0.4s-2.3-0.1-3.9-0.2c-2.6-0.1-2.8-0.2-2.9-1s0-1,0.9-1
		c1.7,0,8.5-2.1,11.5-3.6c1.5-0.7,3.6-2.2,4.8-3.2c1.1-1,2.1-1.9,2.3-1.9c0.2,0,0.3-1.3,0.3-2.9c0-2.2-0.2-3.3-0.9-4.3
		c-1.1-1.8-1.6-1.9-1.9-0.3c-0.3,1.3-3.2,5.2-3.9,5.3c-0.2,0-1,0.5-1.7,1.1s-1.8,1.2-2.4,1.4c-0.6,0.1-1.3,0.4-1.6,0.6
		c-0.7,0.6-6.5,2.2-7.7,2.2c-1.1,0-1.6-0.7-1.6-2.3c0-0.9,0.4-1.1,4.2-2c4.6-1.1,11-4.1,12.7-5.9c1.6-1.7,0.7-1.9-2.3-0.3
		c-3.9,2-11.7,3.8-14.2,3.3c-1.2-0.2-1.3-0.4-1.3-1.9v-1.6l3.1-0.3c7.2-0.7,14.8-3.5,18.5-7c1.2-1.1,2.2-1.9,2.2-1.7
		s0.2,0.1,0.5-0.3c0.3-0.5,0.4-0.1,0.3,1.4s-0.6,2.6-1.5,3.7l-1,1.5l2.5,1.6c3,1.8,5,4,6.2,6.7c1,2.4,0.8,4.8-0.6,7.7
		C96.2,88.6,78.5,94.3,60.3,93.6z"/>
</g>
<g id="layer107">
	<path class="st7" d="M58.1,93.1C45.6,91.9,36,88.7,30.8,84c-3.9-3.5-5.2-7.9-3.5-11.4c1.2-2.4,5.2-6.3,5.7-5.5
		c0.2,0.3,0.2-0.6,0.1-1.9l-0.2-2.3l1,1.9c0.5,1,1.6,2.4,2.5,3.2c2.4,2,8.1,4.6,12.2,5.6c3.7,0.9,11.7,1.6,16.7,1.6h2.6L68,77
		l0.1,1.8l-2.7,0.3c-10.5,1.1-23.1-1.7-28.3-6.2c-1.8-1.6-2-1.6-2-0.3c0,0.5-0.1,1.9-0.3,3c-0.7,5,4.9,9.9,14.1,12.6
		c3.7,1.1,9.9,2,13.4,2c1.3,0,2.1,0.3,2.7,0.9c0.8,0.8,1.3,0.9,4.7,0.7c4.6-0.3,9-1.7,9.7-3.3c0.2-0.6,0.7-1,0.9-1
		c1,0,7-3.2,8.8-4.6c1.9-1.6,4.1-5.2,3.5-5.7c-0.2-0.2-0.5-0.1-0.6,0.2c-0.3,0.8-3.6,4.6-4.2,4.8c-0.3,0.1-0.6,0.3-0.7,0.5
		c-0.1,0.1-1.2,0.7-2.4,1.3c-1.2,0.6-2.6,1.2-3.1,1.4c-0.5,0.2-1.4,0.4-2,0.4s-2.3-0.1-3.9-0.2c-2.6-0.1-2.8-0.2-2.9-1s0-1,0.9-1
		c1.7,0,8.5-2.1,11.5-3.6c1.5-0.7,3.6-2.2,4.8-3.2c1.1-1,2.1-1.9,2.3-1.9c0.2,0,0.3-1.3,0.3-2.9c0-2.2-0.2-3.3-0.9-4.3
		c-1.1-1.8-1.6-1.9-1.9-0.3c-0.3,1.3-3.2,5.2-3.9,5.3c-0.2,0-1,0.5-1.7,1.1s-1.8,1.2-2.4,1.4c-0.6,0.1-1.3,0.4-1.6,0.6
		c-0.7,0.6-6.5,2.2-7.7,2.2c-1.1,0-1.6-0.7-1.6-2.3c0-0.9,0.4-1.1,4.2-2c4.6-1.1,11-4.1,12.7-5.9c1.6-1.7,0.7-1.9-2.3-0.3
		c-3.9,2-11.7,3.8-14.2,3.3c-1.2-0.2-1.3-0.4-1.3-1.9v-1.6l3.1-0.3c7.2-0.7,14.8-3.5,18.5-7c1.2-1.1,2.2-1.9,2.2-1.7
		s0.2,0.1,0.5-0.3c0.3-0.5,0.4-0.1,0.3,1.4c-0.2,2.4-2,5.1-3.4,5.1c-0.5,0-0.7,0.2-0.6,0.4c0.2,0.3,0.5,0.3,0.7,0.2
		c0.6-0.3,4.2,2.1,6.5,4.2c3.7,3.6,4.2,7.3,1.5,11.8c-3.3,5.4-12.7,9.8-24.8,11.6C71.3,93,60.9,93.4,58.1,93.1z"/>
	<path class="st7" d="M58.7,88.2c-10.6-1-19.9-4.9-22.2-9.5c-1-1.8-1.3-6.2-0.3-4.5c3.2,5.8,14.3,9.8,27.3,9.9h6v1.1
		c0,1.3-0.7,2.1-2,2.1c-0.5,0-1.3,0.3-1.8,0.7C64.8,88.7,64.5,88.7,58.7,88.2z"/>
	<path class="st7" d="M56.2,70.6c-12.1-2.2-18.9-6.9-18.8-13.1c0-1.8,0-2,0.4-1c1.2,2.9,6.5,6.6,11.7,8.2c5.2,1.5,12,2.6,17,2.6
		c1,0,1.2,0.2,1.2,1.3c0,0.9-0.3,1.4-0.7,1.6c-0.4,0.1-1.1,0.4-1.5,0.7C64.3,71.5,60.3,71.4,56.2,70.6z"/>
	<path class="st7" d="M59.7,61.7c-9.6-0.8-17-3.6-21.2-7.8C36.6,52,36,50.4,36,47.5v-2l0.9,1.9c2.9,5.9,13.2,9.8,27.7,10.6l2,0.1
		l0.1,1.8c0.1,1.7,0,1.8-1.3,2.1c-0.7,0.1-1.5,0.2-1.6,0.2C63.7,62.1,61.8,62,59.7,61.7z"/>
	<path class="st7" d="M69.8,61.1c-0.2-0.2-0.3-1-0.3-1.7c0-1.6,0.1-1.6,4.6-2.1c6.4-0.7,13.8-3.7,17.3-7.1c1.1-1.1,2-1.8,2-1.6
		c0,0.3,0.2,0.1,0.4-0.2c0.3-0.5,0.4-0.5,0.4,0.3c0,0.5-0.2,1-0.4,1c-0.2,0-0.4,0.3-0.4,0.8s-0.3,1.3-0.7,1.7
		c-0.4,0.5-1.1,1.4-1.6,2c-0.4,0.6-1,1.1-1.4,1.1c-0.3,0-0.7,0.2-0.7,0.4c0,0.3-0.3,0.4-0.7,0.4c-0.3,0-0.7,0.2-0.7,0.4
		C87.6,58.1,71,62.4,69.8,61.1z"/>
</g>
<g id="layer108">
	<path class="st8" d="M58.1,93.1c-9-0.9-15.7-2.6-21.1-5.2c-6.6-3.2-9.7-6.6-10.4-11.3c-0.3-2.8,0.8-5.2,3.9-8.1l2.2-2.1l1.3,2.3
		c1.2,2.1,1.3,2.5,1,5.4c-0.3,3.7,0.2,5.2,2.9,7.9c4.4,4.3,15.4,7.8,24.5,7.8c1.3,0,2,0.3,2.6,0.9c0.7,0.9,1.2,0.9,4.9,0.7
		c4.8-0.3,9.1-1.6,9.8-3.3c0.2-0.6,0.6-1,0.9-1c0.9,0,6.9-3.1,8.5-4.4c2.3-1.8,3.9-4.7,3.6-6.2c-0.1-0.6-0.4-1-0.7-0.9
		c-0.3,0.1-0.3,0.6-0.2,1c0.3,1-3,4.9-4.5,5.2c-0.6,0.1-1.1,0.4-1,0.7c0.1,0.5-1.9,1.2-2.6,1c-0.2,0-0.7,0.2-1.1,0.6
		c-0.4,0.3-0.9,0.5-1,0.3c-0.2-0.1-0.7,0.1-1.1,0.5c-0.6,0.5-1.1,0.7-1.4,0.4c-0.3-0.2-1.7-0.3-3.2-0.3c-2.4,0-2.6-0.1-2.7-1
		c-0.1-0.8,0-1,0.9-1c1.7,0,8.5-2.1,11.5-3.6c1.5-0.7,3.6-2.2,4.8-3.2c1.1-1,2.1-1.9,2.3-1.9c0.2,0,0.3-1.3,0.3-3
		c0-2.4-0.2-3.3-1-4.5c-0.9-1.3-1-1.6-0.4-2c0.5-0.4,1-0.3,2.7,0.9c5.2,3.3,7.6,6.9,7.2,10.6c-1.3,9.3-15.9,16-35.7,16.5
		C62.3,93.3,59,93.2,58.1,93.1z"/>
	<path class="st8" d="M54.1,86.7c-8.9-1.6-15.4-5-17.3-9.1c-1.3-2.8-1-3.2,1-1.2c2.5,2.4,5.8,4.2,10.9,5.7c5.4,1.6,9.5,2.2,15.7,2
		l4.9-0.1v1.1c0,0.6-0.2,1.3-0.5,1.6C68.2,87.6,58.4,87.4,54.1,86.7z"/>
	<path class="st8" d="M59.7,78.3c-8.3-0.5-14.1-1.9-18.9-4.4c-3.1-1.6-6.4-5.1-6.4-6.7V66l1.6,1.3c1.7,1.5,5.6,3.9,8,4.7
		c4.5,1.7,11.1,2.8,17.6,2.9h6.5l0.1,1.2c0.2,1.4-0.9,2.5-2.3,2.4C65.2,78.6,62.5,78.4,59.7,78.3z"/>
	<path class="st8" d="M71.4,77.1c-0.1-0.4-0.3-1.1-0.3-1.6c0-0.9,0.4-1.1,4.2-2c4.6-1.1,11-4.1,12.7-5.9c1.4-1.5,0.9-1.9-1.2-0.9
		c-0.9,0.4-2.1,0.9-2.7,0.9s-1.6,0.3-2.4,0.7c-0.7,0.3-1.5,0.5-1.7,0.4c-0.2,0-0.6,0.1-0.9,0.4c-0.3,0.2-0.7,0.3-0.8,0.1
		c-0.2-0.1-0.6,0-0.9,0.3s-1,0.4-1.3,0.2c-0.4-0.1-1-0.1-1.2,0.1c-0.3,0.2-1.5,0.3-2.6,0.4l-2.1,0.1v-1.6v-1.6l3.1-0.3
		c7.2-0.7,14.8-3.5,18.5-7l2.2-2l0,1.7c-0.1,1.9-1.2,3.7-2.9,4.9c-0.8,0.6-1.2,1.1-1,1.7c0.5,2.1-3.8,7.4-6,7.4
		c-0.3,0-1.3,0.4-2.1,1c-0.8,0.5-1.7,1-2,1c-1.4,0.1-3.3,0.8-3.7,1.3c-0.3,0.4-1,0.6-1.7,0.4c-0.7-0.1-1.3,0-1.5,0.2
		C72.7,78,71.7,77.9,71.4,77.1z"/>
	<path class="st8" d="M59.2,70.1c-11.8-1.6-19.9-5.9-20.9-11L38,57.6l1.9,1.8c5.1,4.9,14.4,7.7,25.9,7.9c1.9,0,1.9,0,1.7,1.5
		l-0.1,1.4h-3.5C62.1,70.3,60,70.3,59.2,70.1z"/>
	<path class="st8" d="M69.7,61c-0.2-0.1-0.3-0.9-0.3-1.7c0-1.6,0.1-1.6,4.6-2.1c6.4-0.7,13.8-3.7,17.3-7.1c1.8-1.7,2-1.9,2-1.1
		c0,0.5-0.2,1.1-0.5,1.2c-0.3,0.2-0.3,0.6-0.2,1c0.1,0.3,0.1,0.8-0.1,0.9c-0.2,0.1-0.7,0.8-1.1,1.4c-0.5,0.8-1,1.1-1.4,0.9
		c-0.4-0.2-0.7,0-0.9,0.7C89,55.6,88.5,56,88,56c-1,0-4.2,1.6-4.2,2.1s-3.3,1.4-4,1.1c-0.3-0.1-0.8,0-0.9,0.2
		c-0.2,0.3-0.6,0.3-0.9,0.2s-0.7,0-0.9,0.2C77,60.1,76.4,60.1,76,60s-1,0-1.1,0.3c-0.2,0.3-0.9,0.3-1.5,0.2c-0.7-0.2-1.4,0-1.5,0.2
		C71.5,61.4,70.1,61.5,69.7,61z"/>
	<path class="st8" d="M54,60c-9.4-1.9-16.7-6.4-16.7-10.4c0-0.9,0.1-0.9,1.7,0.6c4.8,4.3,12.7,7,22.2,7.5c2.5,0.1,4.8,0.3,5.1,0.4
		c0.3,0.1,0.5,0.8,0.5,1.5v1.3h-4.4C59.9,60.9,56.1,60.5,54,60z"/>
</g>
<g id="layer109">
	<path class="st9" d="M58.1,93.1c-9-0.9-15.7-2.6-21.1-5.2c-6.6-3.2-9.7-6.6-10.4-11.3c-0.3-2.8,0.8-5.2,3.9-8.1l2.2-2.1l1.3,2.3
		c1.2,2.1,1.3,2.5,1,5.4c-0.3,3.7,0.2,5.2,2.9,7.9c4.4,4.3,15.4,7.8,24.5,7.8c1.3,0,2,0.3,2.6,0.9c0.7,0.9,1.2,0.9,4.9,0.7
		c4.8-0.3,9.1-1.6,9.8-3.3c0.2-0.6,0.6-1,0.9-1c0.9,0,6.9-3.1,8.5-4.4c2.9-2.3,3.6-3.8,3.7-9.2c0.2-4.6,0.1-4.9-0.9-6.4
		c-0.9-1.3-1-1.7-0.4-2.1c0.5-0.4,1-0.3,2.7,0.9c5.2,3.3,7.6,6.9,7.2,10.6c-1.3,9.3-15.9,16-35.7,16.5C62.3,93.3,59,93.2,58.1,93.1z
		"/>
</g>
<g id="layer101">
	<path class="st10" d="M189,96c-6.7-0.2-14.6-2.1-21.3-5.1c-5.2-2.4-9.6-5.1-13.8-8.6c-1.5-1.3-4.8-4.5-6-6
		c-4.5-5.4-7.5-11.4-8.8-17.8c-0.7-3.1-0.8-5.4-0.5-7.2c0.6-3.5,2.7-6.5,5.6-8.3l0.7-0.4v-0.4c0-1.2,0.3-2.7,0.9-3.9
		c1.4-3.2,4.4-5.5,8-6.1c1.1-0.2,3.1-0.2,4.2,0.1c3.5,0.7,6.5,3.2,7.7,6.4c0.1,0.4,0.3,0.7,0.3,0.7c0,0,0.3-0.1,0.7-0.3
		c1.6-0.7,3-0.6,4.4,0.5c0.8,0.7,1.3,1.5,2.3,3.6c2.1,4.7,6.4,8.9,12.4,11.9c3.3,1.7,5.5,2.2,9.5,2.3c1.2,0,2.3,0.1,2.6,0.1
		c0.2,0.1,0.8,0.3,1.3,0.5c1.3,0.6,2.6,2,3.1,3.2l0.2,0.5h0.7c3.7,0,6.8,1.3,8.6,3.7c3.1,4.1,2.2,10.1-2.1,14.6l-0.6,0.6l0.1,0.6
		c0.1,1,0.1,2.7,0,3.7c-0.4,2.5-1.4,4.4-3.2,6.3c-1.6,1.6-3.5,2.7-6.2,3.6C196.5,95.6,192.9,96.1,189,96z"/>
</g>
<g id="layer102">
	<path class="st11" d="M195.2,83.2c-0.2,0-0.3-0.1-0.3-0.2c0-0.1-0.1-1-0.1-2.1c0-1.7,0-1.9-0.3-2.7c-0.4-1.4-0.9-2.2-2.1-3.3
		c-1.3-1.3-2.7-2-5.4-2.9c-0.9-0.3-1.6-0.5-1.7-0.6c-0.1-0.1,0-0.3,0.1-0.7c0.1-0.3,0.3-1.1,0.4-1.8c0.5-2.3,1.1-3.8,2-4.8
		c0.9-1,1.5-1.3,2.4-0.9c0.9,0.4,1.3,1,1.3,2.4c0.1,0.9,0.1,1.1,0.3,1.5c0.4,0.6,0.8,0.9,1.5,0.9c1,0.1,1.7-0.4,2.1-1.3
		c0.2-0.7,0.1-2.8-0.2-3.6c-0.1-0.1,0.2-0.2,2.3-0.2c1.4,0,2.6-0.1,2.9-0.2c0.9-0.2,4.1-0.2,5,0c3.4,0.8,5.6,2.7,6.4,5.7
		c0.3,1,0.3,3.2,0,4.2c-0.5,2-1.4,3.9-2.5,5.1c-0.2,0.3-0.4,0.5-0.4,0.5c0,0.1-1.8,1.6-2.5,2.1c-2,1.3-4.3,2.1-7,2.5
		C198.7,83.2,196,83.3,195.2,83.2z M209.8,72.1c0.4-0.4,0.9-1.3,0.9-1.9c0.2-1.5-1.1-2.6-2.9-2.6c-0.6,0-0.8,0-0.8,0.1
		c0,0.1,0.2,0.3,0.9,0.6c0.9,0.5,1.4,0.8,1.6,1.2c0.2,0.3,0.1,1.1-0.1,2C209.1,72.5,209.2,72.7,209.8,72.1z"/>
	<path class="st11" d="M179.7,69.2c-0.9-0.4-1.7-0.9-1.7-0.9s0.5-0.6,1-1.2c2.5-2.8,3.6-4.7,3.9-6.7c0-0.2,0.1-0.4,0.1-0.4
		c0,0,0.2,0,0.5,0.2c0.3,0.1,0.8,0.4,1.2,0.5l0.7,0.3l-0.4,0.4c-0.6,0.7-1.2,1.6-1.7,2.7c-0.6,1.2-1,2.4-1.5,4.4
		c-0.2,0.8-0.4,1.5-0.4,1.5C181.4,70,180.6,69.6,179.7,69.2z"/>
	<path class="st11" d="M173.6,65.7c-1.3-0.9-2.2-1.6-2.2-1.7c0-0.1,0-0.1,0.1-0.2c0.2-0.1,1.1-1.6,1.7-2.8c1.3-2.5,2.5-3.7,3.6-4.1
		c0.6-0.2,1,0,1.5,0.5c0.5,0.6,0.7,1.2,0.7,2c0,0.5-0.1,0.8-0.5,1.5c-0.5,1.1-1,1.7-2.3,3.2c-0.5,0.6-1.1,1.3-1.3,1.5
		c-0.2,0.2-0.4,0.4-0.4,0.4C174.3,66.2,174,66,173.6,65.7z"/>
	<path class="st11" d="M166.9,60.1c-1.2-1.2-1.9-2.1-1.9-2.1c0,0,0.8-0.4,1.7-0.8c1.6-0.8,2.7-1.5,3.5-2.1c0.7-0.6,1.7-1.6,2.1-2.2
		l0.4-0.6l0.7,0.7c0.4,0.4,0.7,0.7,0.7,0.7s-0.2,0.2-0.4,0.3c-1.4,0.9-2.5,2.3-4,4.8c-0.7,1.3-1.5,2.5-1.6,2.5
		C168.1,61.3,167.6,60.8,166.9,60.1z"/>
	<path class="st11" d="M162,54.2c-1.3-1.9-2.6-4-3.8-6.4c-0.4-0.9-1-1.9-1.2-2.2c-1.4-2-3.5-3.3-5.8-3.7c-1.3-0.3-3.4-0.1-4.6,0.3
		l-0.4,0.1l0.1-0.7c0.2-2,1.1-4,2.6-5.5c0.8-0.8,1.4-1.2,2.4-1.7c4.4-2.2,9.7-0.9,12.4,2.9c0.5,0.7,0.8,1.4,1.4,2.9
		c0.3,0.7,0.7,1.8,1,2.4c0.3,0.6,0.5,1.1,0.5,1.1c0,0-0.2,0.1-0.5,0.2c-0.8,0.3-2.1,0.9-2.5,1.2c-1.1,1-0.9,2.7,0.5,3.3
		c0.5,0.3,1.3,0.2,2.4-0.3c1.5-0.7,2.3-0.7,2.8,0.1c0.3,0.4,0.3,1.2,0,1.8c-0.3,0.6-1.7,2-2.5,2.5c-0.7,0.4-4.2,2.3-4.4,2.3
		C162.4,54.7,162.2,54.5,162,54.2z M151.3,38.2c0.1,0,0.2-0.3,0.4-0.6c0.9-1.9,1.5-2.2,3.4-1.7c0.5,0.1,0.7,0.2,0.8,0.1
		c0.2-0.2-0.1-0.5-0.7-0.9c-1.8-1.2-3.5-0.5-4,1.5c-0.1,0.3-0.1,0.8-0.1,1C151,38.2,151.1,38.4,151.3,38.2z"/>
</g>
<g id="layer103">
	<path class="st12" d="M176.6,77.3c-1.2-0.3-2.4-1.3-3-2.4c-0.5-1-0.7-1.9-0.6-3.2c0.1-1.3,0.2-1.9,0.9-3.1c0.4-0.7,1.1-1.8,1.6-2.4
		c0.1-0.1,0.3-0.3,0.4-0.4c0.3-0.3,1.2-1.3,1.3-1.5c0.7-0.8,2-2.6,2.3-3.4c0.6-1.5,0.4-3-0.5-4c-0.9-1-1.8-1.1-3-0.6
		c-1.2,0.6-2.3,1.9-3.6,4.3c-1.1,1.9-1.8,3-3.2,4.4c-2.1,2-4,3-6.1,3.2c-1.6,0.1-3-0.4-4.2-1.6c-1.3-1.3-1.8-2.9-1.4-4.7
		c0.4-1.8,1.6-3.5,3.4-5c0.7-0.5,2.1-1.4,3.8-2.3c1-0.5,2.2-1.2,2.6-1.4c0.9-0.6,2.3-1.9,2.6-2.5c0.7-1.2,0.6-2.6-0.2-3.4
		c-0.9-0.9-1.9-0.8-3.9,0.1c-0.7,0.4-1,0.4-1.4,0.2c-0.6-0.3-0.8-1.1-0.4-1.6c0.3-0.4,1.7-1.1,2.8-1.4c0.7-0.2,1-0.2,1.7-0.2
		c0.7,0,0.9,0.1,1.5,0.3c1.1,0.5,2.2,1.7,2.5,2.8c0.4,1.3,0.2,2.8-0.4,4c-0.6,1.1-2.1,2.7-3.5,3.6c-0.5,0.3-1.7,1-2.8,1.5
		c-2.4,1.2-3.4,1.9-4.4,2.9c-1.6,1.6-2.1,3.1-1.6,4.5c0.4,1,1.6,1.8,2.7,1.9c1.7,0.1,4.2-1.3,5.9-3.4c0.7-0.9,1.3-1.8,2.1-3.1
		c0.9-1.6,1.5-2.5,2.4-3.4c0.8-0.9,1.3-1.3,2.2-1.7c3-1.5,6.3,0.4,7,3.9c0.4,2-0.4,4.4-2.2,6.7c-0.4,0.5-2.2,2.6-2.3,2.6
		c-0.2,0.2-1.3,1.7-1.6,2.3c-1.2,2.4-0.6,4.8,1.3,5.3c1.1,0.3,2.9-0.6,3.8-1.9c0.7-1.1,1.1-2,1.7-4.7c0.5-2.2,0.9-3.1,1.5-4.4
		c1.4-2.9,3.4-4.2,5.6-4.1c1.8,0.1,3.5,1.3,4.3,2.9c0.5,0.9,0.6,1.4,0.6,2.6c0,1.1-0.1,1.4-0.6,1.7c-0.4,0.2-0.7,0.2-1.1,0
		c-0.5-0.3-0.5-0.5-0.6-1.6c-0.1-1.2-0.2-1.7-0.8-2.3c-0.6-0.6-1.3-1-2.2-1c-0.7,0-1,0.1-1.6,0.7c-0.8,0.6-1.7,2.2-2.2,3.6
		c-0.1,0.4-0.4,1.6-0.7,2.6c-0.7,2.7-1.1,3.9-2,5.2C181.5,76.6,178.8,77.8,176.6,77.3z"/>
</g>
<g id="layer104">
	<path class="st13" d="M187.8,94.7c-10.4-0.5-22.1-4.9-30.8-11.4c-9-6.8-14.7-15.2-16.7-25c-0.8-3.9-0.8-5.9,0-8.3
		c1.2-3.5,4.2-6.3,7.5-7c1-0.2,2.8-0.1,3.7,0.1c1.4,0.4,2.3,0.9,3.2,1.8c0.8,0.7,1.4,1.6,2.3,3.4c1.4,2.7,2.7,4.9,3.9,6.5
		c0.2,0.3,0.4,0.6,0.4,0.6c0,0-0.4,0.3-0.8,0.7c-3,2.3-4.5,5.5-4,8.2c0.2,1.1,0.8,2,1.7,2.9c0.4,0.4,1,0.9,1.3,1.1
		c3,1.7,6.7,0.9,10.1-2.3l1-0.9l0.9,0.6c0.5,0.4,1.2,0.9,1.6,1.1l0.7,0.5l-0.2,0.3c-0.5,0.8-0.6,1.1-0.9,1.8
		c-1.3,3.5-0.1,7.2,2.7,8.5c0.9,0.4,1.5,0.5,2.4,0.5c1.8,0,3.7-0.9,5-2.3c0.7-0.7,1.6-2,1.9-2.8c0.1-0.3,0.3-0.5,0.3-0.5
		c0,0,0.3,0.1,0.7,0.2c0.3,0.1,1,0.3,1.4,0.5c3.7,1.2,5.7,2.9,6.4,5.3c0.1,0.4,0.2,1,0.2,2.4c0,1.3,0.1,2,0.2,2.5
		c0.5,2.2,2.1,3.6,4.3,3.6c0.5,0,0.7-0.2,0.7-0.6c0-0.3-0.3-0.6-0.7-0.6c-0.5,0-1.2-0.2-1.6-0.4c-0.3-0.2-0.9-0.7-1.1-1
		c-0.1-0.2,0-0.2,1.7-0.2c2.6,0,4.4-0.3,6.5-1c1.2-0.4,2.4-1,3.5-1.6c0.4-0.3,0.8-0.4,0.8-0.4c0,0,0.1,0.6,0.1,1.3
		c0,3.1-0.9,5.4-2.9,7.4c-2.7,2.7-7.1,4.3-13,4.6C190.2,94.8,189.8,94.8,187.8,94.7z"/>
	<path class="st13" d="M177.3,76.5c-0.8-0.2-1.1-0.3-1.8-0.9c-1-0.7-1.9-2-2.2-3.2c-0.1-0.3-0.2-0.7-0.3-0.8
		c-0.1-0.2-0.1-0.2,0.3-1.5c0.3-0.8,0.9-2,1.5-2.9c0.3-0.4,1.1-1.4,1.9-2.3c1.2-1.4,1.8-2.2,3.1-4.1c1.4-2,0.6-4.4-1.6-5.2
		c-0.6-0.2-1.6-0.2-2.3,0.1c-0.8,0.3-1.6,1.1-2,2c-0.5,1.1-0.6,1.3-2.2,4c-0.3,0.6-1.3,1.9-2.1,2.8c-0.6,0.7-2.1,1.9-3,2.5
		c-1.6,1-2.5,1.2-4,0.9c-2.2-0.4-3.9-1.9-4.6-4.2c-0.2-0.8-0.3-2.2-0.2-2.9c0.3-1.4,2.5-3.7,4.8-5.1c0.7-0.4,1-0.6,2.9-1.5
		c1.3-0.6,2.3-1.3,3.2-2.1c0.4-0.4,0.9-0.8,1.1-1c0.8-0.6,1.2-1.3,1.2-2.2c0-0.7-0.2-1.3-0.6-1.8c-0.6-0.7-1.7-1-2.5-0.7
		c-0.4,0.1-2.1,0.8-2.4,1c-0.6,0.3-1.3,0.1-1.5-0.4c-0.2-0.4-0.2-0.9,0.1-1.2c0.1-0.1,0.4-0.3,0.6-0.5c0.3-0.1,0.5-0.3,0.5-0.3
		c0.1-0.1,1.2-0.5,1.9-0.7c0.5-0.1,0.9-0.1,1.5-0.1c1,0.1,1.8,0.4,2.7,1.2c1.1,1,1.7,2.5,1.4,4.1c-0.1,0.9-0.3,1.5-0.8,2.2
		c-0.4,0.6-2,2.5-2.2,2.5c0,0-0.3,0.2-0.7,0.5c-0.5,0.4-1.3,0.8-2,1.2c-0.1,0-0.8,0.4-1.7,0.8c-2,1-2.8,1.5-3.9,2.6
		c-1.3,1.4-1.9,2.4-1.9,3.7c0,0.5,0.1,0.7,0.3,1.1c0.7,1.3,2.2,2,3.8,1.7c2.2-0.5,5-3,6.5-5.8c1.4-2.5,2-3.5,3.3-4.7
		c1-1,1.8-1.4,2.9-1.6c2.6-0.5,5.1,1.4,5.7,4.3c0.2,0.9,0.1,2-0.2,2.8c-0.3,1-1.1,2.5-1.8,3.3c-0.3,0.4-0.6,0.9-0.7,0.9
		c0,0.1-0.2,0.3-0.4,0.4c-0.2,0.1-0.3,0.3-0.3,0.3s-0.2,0.2-0.4,0.4c-0.2,0.2-0.4,0.3-0.4,0.4s-0.2,0.3-0.4,0.5
		c-1.1,1.2-2,2.7-2.3,3.8c-0.2,0.6-0.1,1.6,0.1,2.3c0.1,0.5,0.6,1.2,1.1,1.5c0.4,0.3,0.4,0.3,1.3,0.3c0.8,0,0.9,0,1.4-0.3
		c0.7-0.3,1.3-0.8,1.8-1.4c0.8-1.1,1.2-2.1,1.9-5.1c0.6-2.6,1.2-4.1,2.1-5.4c0.1-0.2,0.4-0.6,0.5-0.8c0.6-0.9,2-1.8,3.1-2
		c2.1-0.4,4.6,0.9,5.5,2.8c0.4,0.8,0.5,1.2,0.6,2.3c0,0.6,0,0.9-0.1,1.3c-0.3,0.8-1,1.1-1.6,0.7c-0.4-0.3-0.6-0.7-0.6-1.5
		c0-1.7-0.3-2.6-1.1-3.3c-0.6-0.5-1.2-0.7-2-0.7c-1.9,0.1-3.4,1.9-3.7,4.2c0,0.3-0.1,0.7-0.2,0.9c-0.1,0.2-0.3,1.2-0.6,2.2
		c-0.7,2.8-1.3,4.3-2.1,5.5c-0.2,0.3-0.4,0.6-0.5,0.7c-0.3,0.4-1,0.9-1.8,1.1C179.6,76.7,178.2,76.7,177.3,76.5z"/>
	<path class="st13" d="M177.1,74.1c-0.3-0.1-0.7-0.7-0.8-1c-0.1-0.2-0.1-0.7-0.1-1.2c0-0.7,0.1-0.9,0.4-1.5c0.2-0.4,0.4-0.8,0.5-0.9
		l0.2-0.2l1.3,0.7c0.7,0.4,1.6,0.8,1.9,0.9c0.7,0.3,0.7,0.3,0.2,1.3c-0.5,0.8-1,1.4-1.7,1.7C178.2,74.2,177.6,74.3,177.1,74.1z"/>
	<path class="st13" d="M161.8,64.8c-0.5-0.2-0.9-0.6-1.1-1c-0.2-0.4-0.2-1.3,0-1.8c0.3-0.7,0.7-1.3,1.4-2c0.6-0.6,1.7-1.4,1.8-1.4
		c0,0,0.3,0.2,0.5,0.5c0.2,0.3,1,1.1,1.7,1.8l1.3,1.3l-0.8,0.7C164.9,64.7,163,65.4,161.8,64.8z"/>
	<path class="st13" d="M195,61.9c-0.3,0-0.4-0.2-0.8-0.6c-1.2-1.3-2.9-2.1-4.6-2.1c-0.9,0-1.5,0.1-2.5,0.6l-0.6,0.3l-0.9-0.4
		c-0.5-0.2-1.3-0.5-1.7-0.7l-0.7-0.4l-0.2-0.6c-0.6-2.5-2.1-4.2-4.3-4.8c-0.7-0.2-0.9-0.2-1.7-0.2c-0.5,0-1.1,0.1-1.3,0.2l-0.3,0.1
		l-1-1l-1-1l0.2-0.4c0.1-0.3,0.1-0.8,0.2-1.7c0-1.1,0-1.3-0.2-1.9c-0.7-2.1-2.5-3.5-4.8-3.7l-0.7-0.1l-0.6-1.2
		c-0.8-1.7-0.8-1.6-0.3-1.9c0.6-0.4,1-0.5,1.7-0.5c1.3,0,2.3,0.8,3.1,2.6c1.2,2.6,1.4,3,2,3.9c2.6,4,6.6,7.4,11.7,9.9
		c1.8,0.9,3.5,1.5,5.2,1.9c1.5,0.3,2.6,0.4,4.6,0.4c2,0,2.4,0.1,3.4,0.5c0.5,0.2,0.8,0.5,1.4,1c0.6,0.6,1.1,1.3,1.1,1.7
		c0,0.1-0.2,0.1-1.5,0.3C198.8,62,195.5,62,195,61.9z"/>
</g>
<g id="layer105">
	<path class="st14" d="M180.9,87.9c-2.1-0.3-5.9-1.4-8.6-2.6c-6.2-2.7-12.3-7.1-17.3-12.4c-6.3-6.8-10.3-14.2-11.2-20.7
		c-0.2-1.4-0.1-4.1,0.1-5.2c0.1-0.4,0.2-0.9,0.2-1c0-0.1,0-0.2,0-0.2c-0.2,0-1.7,1.1-2.3,1.7l-0.7,0.6l0.2-0.4
		c0.9-1.6,3-3.4,4.9-4.2c1.2-0.5,2.1-0.6,3.5-0.6c2,0.1,3.6,0.7,5,2c0.8,0.7,1.4,1.6,2.3,3.4c1.4,2.7,2.7,4.9,3.9,6.5
		c0.3,0.5,0.4,0.6,0.3,0.7c-0.1,0.1-0.4,0.3-0.7,0.5c-1.3,0.9-2.8,2.6-3.4,4c-0.2,0.4-0.4,0.9-0.5,1.1c-0.1,0.2-0.3,0.6-0.5,1
		c-1.6,3,0.1,6.8,3.5,7.8c0.7,0.2,2.1,0.2,2.9,0c0.3-0.1,0.9-0.3,1.3-0.6c0.4-0.2,0.9-0.4,1.1-0.5c0.4-0.1,0.6-0.2,1.5-0.6
		c0.6-0.3,1.9-1.1,2.4-1.5c0.2-0.2,0.3-0.3,0.3-0.3c0,0,0.4-0.3,0.8-0.8l0.7-0.8l0.9,0.7c0.5,0.4,1.2,0.9,1.6,1.1l0.7,0.5l-0.2,0.4
		c-0.6,1-1.9,3.8-2.1,4.7c-0.2,0.9-0.2,2.3,0,3.1c0.4,1.4,1.3,2.5,2.4,3.1c0.6,0.3,0.8,0.3,1.6,0.4c0.8,0,1,0,1.5-0.2
		c0.4-0.2,0.9-0.3,1.4-0.3c1.5-0.1,3.1-0.9,4.4-2.1c0.4-0.4,0.9-0.9,1.1-1.2c0.3-0.4,1.1-2.1,1.1-2.2c0-0.2,0.2-0.1,0.8,0.1
		c0.3,0.1,1,0.3,1.4,0.5c3.4,1.1,5.4,2.6,6.2,4.8c0.3,0.8,0.5,2,0.3,2.8c-0.6,3.7-3.3,6.2-7.4,6.9C184.9,88,182.3,88.1,180.9,87.9z
		 M176.4,84.1c0.5-0.5,0.1-1.3-0.5-1.3c-0.4,0-0.8,0.3-0.8,0.8c0,0.4,0.3,0.8,0.8,0.8C176.1,84.3,176.3,84.3,176.4,84.1z
		 M185.1,82.7c0.1-0.2,0.1-0.3,0-0.4c-0.2-0.3-0.6-0.2-0.7,0c-0.1,0.2-0.1,0.2,0,0.5C184.6,83.1,185,83,185.1,82.7z M180.3,80.3
		c0.2-0.1,0.1-0.5-0.1-0.5c-0.3,0-0.4,0.2-0.3,0.4C180,80.4,180.1,80.4,180.3,80.3z M175.6,80.1c0-0.1-0.1-0.1-0.2-0.2
		c-0.2,0-0.2,0-0.2,0.2s0,0.2,0.2,0.2C175.5,80.3,175.6,80.2,175.6,80.1z M168.4,74.5c0.2-0.1,0.2-0.6,0-0.7
		c-0.2-0.2-0.6-0.1-0.7,0.2c-0.1,0.2-0.1,0.3,0.1,0.4C168.1,74.6,168.2,74.6,168.4,74.5z M156.8,71c0.1-0.3-0.2-0.5-0.5-0.2
		c-0.1,0.1-0.1,0.2,0,0.3C156.4,71.4,156.7,71.3,156.8,71z M151.8,63.2c0.1-0.2,0.1-0.2,0-0.4c-0.1-0.1-0.2-0.2-0.4-0.2
		s-0.3,0.1-0.4,0.2c-0.1,0.2-0.1,0.2,0,0.4c0.1,0.1,0.2,0.2,0.4,0.2S151.7,63.3,151.8,63.2z M150.7,57.4c0.1,0,0.2-0.2,0.3-0.3
		c0.4-0.9-0.7-1.6-1.3-0.9C149.1,56.8,149.8,57.7,150.7,57.4z M156,56.5c0.3-0.3,0.1-0.7-0.3-0.7c-0.4,0-0.5,0.4-0.3,0.7
		c0.1,0.1,0.2,0.1,0.3,0.1C155.8,56.7,156,56.6,156,56.5z M152,52.1c0.1-0.1,0.1-0.2,0-0.4c-0.1-0.2-0.5-0.2-0.6,0
		c-0.1,0.2-0.1,0.2,0.1,0.4C151.6,52.4,151.9,52.3,152,52.1z"/>
	<path class="st15" d="M177.3,76.5c-0.8-0.2-1.1-0.3-1.8-0.9c-1-0.7-1.9-2-2.2-3.2c-0.1-0.3-0.2-0.7-0.3-0.8
		c-0.1-0.2-0.1-0.2,0.3-1.5c0.3-0.8,0.9-2,1.5-2.9c0.3-0.4,1.1-1.4,1.9-2.3c1.2-1.4,1.8-2.2,3.1-4.1c1.4-2,0.6-4.4-1.6-5.2
		c-0.6-0.2-1.6-0.2-2.3,0.1c-0.8,0.3-1.6,1.1-2,2c-0.5,1.1-0.6,1.3-2.2,4c-0.3,0.6-1.3,1.9-2.1,2.8c-0.6,0.7-2.1,1.9-3,2.5
		c-1.6,1-2.5,1.2-4,0.9c-2.2-0.4-3.9-1.9-4.6-4.2c-0.2-0.8-0.3-2.2-0.2-2.9c0.3-1.4,2.5-3.7,4.8-5.1c0.7-0.4,1-0.6,2.9-1.5
		c1.3-0.6,2.3-1.3,3.2-2.1c0.4-0.4,0.9-0.8,1.1-1c0.8-0.6,1.2-1.3,1.2-2.2c0-0.7-0.2-1.3-0.6-1.8c-0.6-0.7-1.7-1-2.5-0.7
		c-0.4,0.1-2.1,0.8-2.4,1c-0.6,0.3-1.3,0.1-1.5-0.4c-0.2-0.4-0.2-0.9,0.1-1.2c0.1-0.1,0.5-0.4,0.9-0.6c0.4-0.2,0.8-0.4,0.8-0.4
		c0.1-0.1,0.5-0.2,1-0.3c0.7-0.2,1-0.2,1.8-0.2c0.7,0,0.9,0.1,1.5,0.3c0.4,0.2,0.9,0.5,1.2,0.8c1.1,1.1,1.7,2.5,1.4,4.1
		c-0.1,0.9-0.3,1.4-0.8,2.2c-0.4,0.6-2,2.4-2.1,2.5c0,0-0.3,0.2-0.7,0.5c-0.5,0.4-1.3,0.8-2,1.2c-0.1,0-0.8,0.4-1.7,0.8
		c-2,1-2.8,1.5-3.9,2.6c-1.3,1.4-1.9,2.4-1.9,3.7c0,0.5,0.1,0.7,0.3,1.1c0.5,0.9,1.5,1.7,2.6,1.8c1.4,0.1,3.4-0.8,5.1-2.5
		c1.2-1.2,1.9-2.2,2.8-3.9c1-1.9,1.7-2.8,2.8-3.9c1.2-1.2,1.9-1.6,3.1-1.8c2.6-0.5,5.1,1.4,5.7,4.3c0.2,0.8,0.1,2.1,0,2.4
		c0,0.1-0.1,0.4-0.2,0.7c-0.2,0.8-1,2.1-1.6,3c-0.3,0.4-0.6,0.9-0.7,0.9c0,0.1-0.2,0.3-0.4,0.4c-0.2,0.1-0.3,0.3-0.3,0.3
		s-0.2,0.2-0.4,0.4c-0.2,0.2-0.4,0.3-0.4,0.4c0,0-0.2,0.3-0.4,0.5c-1.1,1.2-2,2.7-2.3,3.8c-0.2,0.6-0.1,1.6,0.1,2.3
		c0.1,0.5,0.6,1.2,1.1,1.5c0.4,0.3,0.4,0.3,1.3,0.3c0.8,0,0.9,0,1.4-0.3c0.7-0.3,1.3-0.8,1.8-1.4c0.8-1.1,1.2-2.1,1.9-5.1
		c0.6-2.6,1.2-4.1,2.1-5.4c0.1-0.2,0.4-0.6,0.5-0.8c0.6-0.9,2-1.8,3.1-2c2.1-0.4,4.6,0.9,5.5,2.8c0.4,0.8,0.5,1.2,0.6,2.3
		c0,0.6,0,0.9-0.1,1.3c-0.3,0.8-1,1.1-1.6,0.7c-0.4-0.3-0.6-0.7-0.6-1.5c0-1.7-0.3-2.6-1.1-3.3c-0.6-0.5-1.2-0.7-2-0.7
		c-1.9,0.1-3.4,1.9-3.7,4.2c0,0.3-0.1,0.7-0.2,0.9c-0.1,0.2-0.3,1.2-0.6,2.2c-0.7,2.8-1.3,4.3-2.1,5.5c-0.2,0.3-0.4,0.6-0.5,0.7
		c-0.3,0.4-1,0.9-1.8,1.1C179.6,76.7,178.2,76.7,177.3,76.5z"/>
	<path class="st14" d="M177,74c-1-0.6-0.9-3.2,0.1-4.5l0.2-0.2l1.3,0.7c0.7,0.4,1.6,0.8,1.9,0.9c0.6,0.2,0.6,0.3,0.6,0.5
		c-0.2,0.8-1.3,2.1-2.2,2.5C178.2,74.2,177.3,74.2,177,74z"/>
	<path class="st14" d="M162.2,64.9c-0.7-0.2-1.4-0.8-1.6-1.4c-0.3-0.9,0.4-2.4,1.6-3.5c0.5-0.5,1.5-1.3,1.7-1.3c0,0,0.3,0.2,0.5,0.5
		c0.2,0.3,1,1.1,1.7,1.8l1.3,1.3l-0.5,0.5C165.3,64.4,163.4,65.2,162.2,64.9z"/>
	<path class="st14" d="M200.1,61.4l-0.3-0.3l-1.7,0c-1,0-2.2,0-2.9,0L194,61l-0.6-0.4c-0.7-0.6-1.9-1.1-2.7-1.3
		c-0.8-0.2-2.2-0.1-2.8,0.1c-0.4,0.1-0.5,0.1-0.8,0c-0.6-0.2-2.8-1.2-3.6-1.5c-0.7-0.4-0.7-0.4-0.9-0.9c-0.6-1.6-2.1-3.1-3.6-3.7
		c-0.3-0.1-0.6-0.2-0.7-0.3c-0.1-0.1-0.6-0.1-1.2-0.1h-0.9l-1.3-1.3l-1.3-1.3V49c0-0.7,0-1.3-0.1-1.3c-0.1-0.1-0.2-0.4-0.3-0.7
		c-0.3-0.9-1.1-2-1.8-2.5c-0.7-0.5-1.4-0.9-2.2-1l-0.6-0.1l-0.7-1.4c-0.8-1.5-0.7-1.4-1.3-1.3c-0.3,0.1-0.2-0.2,0.2-0.4
		c0.6-0.4,1-0.5,1.7-0.5c1.3,0,2.3,0.8,3.1,2.6c1.2,2.6,1.4,3,2,3.9c2.6,4,6.6,7.4,11.7,9.9c1.8,0.9,3.5,1.5,5.2,1.9
		c1.5,0.3,2.6,0.4,4.6,0.4c2,0,2.4,0.1,3.4,0.5c0.5,0.2,0.8,0.5,1.4,1c0.6,0.7,1.1,1.3,1.1,1.7c0,0.1-0.2,0.1-0.4,0.1
		C200.4,61.7,200.3,61.7,200.1,61.4z"/>
</g>
</svg>
