<?xml version="1.0" encoding="utf-8"?>
<!-- Generator: Adobe Illustrator 24.0.1, SVG Export Plug-In . SVG Version: 6.00 Build 0)  -->
<svg version="1.1" id="Layer_1" xmlns="http://www.w3.org/2000/svg" xmlns:xlink="http://www.w3.org/1999/xlink" x="0px" y="0px"
	 width="240px" height="128px" viewBox="0 0 240 128" style="enable-background:new 0 0 240 128;" xml:space="preserve">
<style type="text/css">
	.st0{fill:#FFC06C;stroke:#131417;stroke-width:5;stroke-miterlimit:10;}
	.st1{fill:#131417;}
	.st2{fill:#212526;}
	.st3{fill:#DF4456;}
	.st4{fill:#CC364B;}
	.st5{fill:#D39256;}
	.st6{fill:#FFC74F;}
	.st7{fill:#F24962;}
</style>
<circle class="st0" cx="176" cy="64" r="61.5"/>
<circle class="st0" cx="64" cy="64" r="61.5"/>
<path class="st1" d="M155.5,64.1l-8.4,8.4l-8.5-8.4l8.4-8.4L155.5,64.1z M176,43.5l14.6,14.6l8.4-8.4l-23-23.1l-23,23l8.4,8.4
	L176,43.5z M205.1,55.7l-8.4,8.4l8.4,8.4l8.4-8.4L205.1,55.7z M176,84.6L161.5,70l-8.4,8.4l23,23l23-23l-8.4-8.4L176,84.6z
	 M176,72.5l8.4-8.3l-8.4-8.4l-8.5,8.4L176,72.5z"/>
<g id="layer101">
	<path class="st2" d="M77,96c-6.7-0.2-14.6-2.1-21.3-5.1c-5.2-2.4-9.6-5.1-13.8-8.6c-1.5-1.3-4.8-4.5-6-6
		c-4.5-5.4-7.5-11.4-8.8-17.8c-0.7-3.1-0.8-5.4-0.5-7.2c0.6-3.5,2.7-6.5,5.6-8.3l0.7-0.4v-0.4c0-1.2,0.3-2.7,0.9-3.9
		c1.4-3.2,4.4-5.5,8-6.1c1.1-0.2,3.1-0.2,4.2,0.1c3.5,0.7,6.5,3.2,7.7,6.4c0.1,0.4,0.3,0.7,0.3,0.7c0,0,0.3-0.1,0.7-0.3
		c1.6-0.7,3-0.6,4.4,0.5c0.8,0.7,1.3,1.5,2.3,3.6c2.1,4.7,6.4,8.9,12.4,11.9c3.3,1.7,5.5,2.2,9.5,2.3c1.2,0,2.3,0.1,2.6,0.1
		c0.2,0.1,0.8,0.3,1.3,0.5c1.3,0.6,2.6,2,3.1,3.2l0.2,0.5h0.7c3.7,0,6.8,1.3,8.6,3.7c3.1,4.1,2.2,10.1-2.1,14.6L97,80.4l0.1,0.6
		c0.1,1,0.1,2.7,0,3.7c-0.4,2.5-1.4,4.4-3.2,6.3c-1.6,1.6-3.5,2.7-6.2,3.6C84.5,95.6,80.9,96.1,77,96z"/>
</g>
<g id="layer102">
	<path class="st3" d="M83.2,83.2c-0.2,0-0.3-0.1-0.3-0.2c0-0.1-0.1-1-0.1-2.1c0-1.7,0-1.9-0.3-2.7c-0.4-1.4-0.9-2.2-2.1-3.3
		c-1.3-1.3-2.7-2-5.4-2.9c-0.9-0.3-1.6-0.5-1.7-0.6c-0.1-0.1,0-0.3,0.1-0.7c0.1-0.3,0.3-1.1,0.4-1.8c0.5-2.3,1.1-3.8,2-4.8
		c0.9-1,1.5-1.3,2.4-0.9c0.9,0.4,1.3,1,1.3,2.4c0.1,0.9,0.1,1.1,0.3,1.5c0.4,0.6,0.8,0.9,1.5,0.9c1,0.1,1.7-0.4,2.1-1.3
		c0.2-0.7,0.1-2.8-0.2-3.6c-0.1-0.1,0.2-0.2,2.3-0.2c1.4,0,2.6-0.1,2.9-0.2c0.9-0.2,4.1-0.2,5,0c3.4,0.8,5.6,2.7,6.4,5.7
		c0.3,1,0.3,3.2,0,4.2c-0.5,2-1.4,3.9-2.5,5.1c-0.2,0.3-0.4,0.5-0.4,0.5c0,0.1-1.8,1.6-2.5,2.1c-2,1.3-4.3,2.1-7,2.5
		C86.7,83.2,84,83.3,83.2,83.2z M97.8,72.1c0.4-0.4,0.9-1.3,0.9-1.9c0.2-1.5-1.1-2.6-2.9-2.6c-0.6,0-0.8,0-0.8,0.1
		c0,0.1,0.2,0.3,0.9,0.6c0.9,0.5,1.4,0.8,1.6,1.2c0.2,0.3,0.1,1.1-0.1,2C97.1,72.5,97.2,72.7,97.8,72.1z"/>
	<path class="st3" d="M67.7,69.2c-0.9-0.4-1.7-0.9-1.7-0.9s0.5-0.6,1-1.2c2.5-2.8,3.6-4.7,3.9-6.7c0-0.2,0.1-0.4,0.1-0.4
		c0,0,0.2,0,0.5,0.2c0.3,0.1,0.8,0.4,1.2,0.5l0.7,0.3L73,61.3c-0.6,0.7-1.2,1.6-1.7,2.7c-0.6,1.2-1,2.4-1.5,4.4
		c-0.2,0.8-0.4,1.5-0.4,1.5C69.4,70,68.6,69.6,67.7,69.2z"/>
	<path class="st3" d="M61.6,65.7c-1.3-0.9-2.2-1.6-2.2-1.7c0-0.1,0-0.1,0.1-0.2c0.2-0.1,1.1-1.6,1.7-2.8c1.3-2.5,2.5-3.7,3.6-4.1
		c0.6-0.2,1,0,1.5,0.5c0.5,0.6,0.7,1.2,0.7,2c0,0.5-0.1,0.8-0.5,1.5c-0.5,1.1-1,1.7-2.3,3.2c-0.5,0.6-1.1,1.3-1.3,1.5
		c-0.2,0.2-0.4,0.4-0.4,0.4C62.3,66.2,62,66,61.6,65.7z"/>
	<path class="st3" d="M54.9,60.1C53.7,58.9,53,58.1,53,58c0,0,0.8-0.4,1.7-0.8c1.6-0.8,2.7-1.5,3.5-2.1c0.7-0.6,1.7-1.6,2.1-2.2
		l0.4-0.6l0.7,0.7c0.4,0.4,0.7,0.7,0.7,0.7S62,53.8,61.8,54c-1.4,0.9-2.5,2.3-4,4.8c-0.7,1.3-1.5,2.5-1.6,2.5
		C56.1,61.3,55.6,60.8,54.9,60.1z"/>
	<path class="st3" d="M50,54.2c-1.3-1.9-2.6-4-3.8-6.4c-0.4-0.9-1-1.9-1.2-2.2c-1.4-2-3.5-3.3-5.8-3.7c-1.3-0.3-3.4-0.1-4.6,0.3
		l-0.4,0.1l0.1-0.7c0.2-2,1.1-4,2.6-5.5c0.8-0.8,1.4-1.2,2.4-1.7c4.4-2.2,9.7-0.9,12.4,2.9c0.5,0.7,0.8,1.4,1.4,2.9
		c0.3,0.7,0.7,1.8,1,2.4c0.3,0.6,0.5,1.1,0.5,1.1c0,0-0.2,0.1-0.5,0.2C53.3,44,52,44.7,51.7,45c-1.1,1-0.9,2.7,0.5,3.3
		c0.5,0.3,1.3,0.2,2.4-0.3c1.5-0.7,2.3-0.7,2.8,0.1c0.3,0.4,0.3,1.2,0,1.8c-0.3,0.6-1.7,2-2.5,2.5c-0.7,0.4-4.2,2.3-4.4,2.3
		C50.4,54.7,50.2,54.5,50,54.2z M39.3,38.2c0.1,0,0.2-0.3,0.4-0.6c0.9-1.9,1.5-2.2,3.4-1.7c0.5,0.1,0.7,0.2,0.8,0.1
		c0.2-0.2-0.1-0.5-0.7-0.9c-1.8-1.2-3.5-0.5-4,1.5c-0.1,0.3-0.1,0.8-0.1,1C39,38.2,39.1,38.4,39.3,38.2z"/>
</g>
<g id="layer103">
	<path class="st4" d="M64.6,77.3c-1.2-0.3-2.4-1.3-3-2.4c-0.5-1-0.7-1.9-0.6-3.2c0.1-1.3,0.2-1.9,0.9-3.1c0.4-0.7,1.1-1.8,1.6-2.4
		c0.1-0.1,0.3-0.3,0.4-0.4c0.3-0.3,1.2-1.3,1.3-1.5c0.7-0.8,2-2.6,2.3-3.4c0.6-1.5,0.4-3-0.5-4c-0.9-1-1.8-1.1-3-0.6
		c-1.2,0.6-2.3,1.9-3.6,4.3c-1.1,1.9-1.8,3-3.2,4.4c-2.1,2-4,3-6.1,3.2c-1.6,0.1-3-0.4-4.2-1.6c-1.3-1.3-1.8-2.9-1.4-4.7
		c0.4-1.8,1.6-3.5,3.4-5c0.7-0.5,2.1-1.4,3.8-2.3c1-0.5,2.2-1.2,2.6-1.4c0.9-0.6,2.3-1.9,2.6-2.5c0.7-1.2,0.6-2.6-0.2-3.4
		c-0.9-0.9-1.9-0.8-3.9,0.1c-0.7,0.4-1,0.4-1.4,0.2c-0.6-0.3-0.8-1.1-0.4-1.6c0.3-0.4,1.7-1.1,2.8-1.4c0.7-0.2,1-0.2,1.7-0.2
		c0.7,0,0.9,0.1,1.5,0.3c1.1,0.5,2.2,1.7,2.5,2.8c0.4,1.3,0.2,2.8-0.4,4c-0.6,1.1-2.1,2.7-3.5,3.6c-0.5,0.3-1.7,1-2.8,1.5
		c-2.4,1.2-3.4,1.9-4.4,2.9c-1.6,1.6-2.1,3.1-1.6,4.5c0.4,1,1.6,1.8,2.7,1.9c1.7,0.1,4.2-1.3,5.9-3.4c0.7-0.9,1.3-1.8,2.1-3.1
		c0.9-1.6,1.5-2.5,2.4-3.4c0.8-0.9,1.3-1.3,2.2-1.7c3-1.5,6.3,0.4,7,3.9c0.4,2-0.4,4.4-2.2,6.7c-0.4,0.5-2.2,2.6-2.3,2.6
		c-0.2,0.2-1.3,1.7-1.6,2.3c-1.2,2.4-0.6,4.8,1.3,5.3c1.1,0.3,2.9-0.6,3.8-1.9c0.7-1.1,1.1-2,1.7-4.7c0.5-2.2,0.9-3.1,1.5-4.4
		c1.4-2.9,3.4-4.2,5.6-4.1c1.8,0.1,3.5,1.3,4.3,2.9c0.5,0.9,0.6,1.4,0.6,2.6c0,1.1-0.1,1.4-0.6,1.7c-0.4,0.2-0.7,0.2-1.1,0
		c-0.5-0.3-0.5-0.5-0.6-1.6c-0.1-1.2-0.2-1.7-0.8-2.3c-0.6-0.6-1.3-1-2.2-1c-0.7,0-1,0.1-1.6,0.7c-0.8,0.6-1.7,2.2-2.2,3.6
		c-0.1,0.4-0.4,1.6-0.7,2.6c-0.7,2.7-1.1,3.9-2,5.2C69.5,76.6,66.8,77.8,64.6,77.3z"/>
</g>
<g id="layer104">
	<path class="st5" d="M75.8,94.7c-10.4-0.5-22.1-4.9-30.8-11.4c-9-6.8-14.7-15.2-16.7-25c-0.8-3.9-0.8-5.9,0-8.3
		c1.2-3.5,4.2-6.3,7.5-7c1-0.2,2.8-0.1,3.7,0.1c1.4,0.4,2.3,0.9,3.2,1.8c0.8,0.7,1.4,1.6,2.3,3.4c1.4,2.7,2.7,4.9,3.9,6.5
		c0.2,0.3,0.4,0.6,0.4,0.6c0,0-0.4,0.3-0.8,0.7c-3,2.3-4.5,5.5-4,8.2c0.2,1.1,0.8,2,1.7,2.9c0.4,0.4,1,0.9,1.3,1.1
		c3,1.7,6.7,0.9,10.1-2.3l1-0.9l0.9,0.6c0.5,0.4,1.2,0.9,1.6,1.1l0.7,0.5l-0.2,0.3c-0.5,0.8-0.6,1.1-0.9,1.8
		c-1.3,3.5-0.1,7.2,2.7,8.5c0.9,0.4,1.5,0.5,2.4,0.5c1.8,0,3.7-0.9,5-2.3c0.7-0.7,1.6-2,1.9-2.8c0.1-0.3,0.3-0.5,0.3-0.5
		c0,0,0.3,0.1,0.7,0.2c0.3,0.1,1,0.3,1.4,0.5c3.7,1.2,5.7,2.9,6.4,5.3c0.1,0.4,0.2,1,0.2,2.4c0,1.3,0.1,2,0.2,2.5
		c0.5,2.2,2.1,3.6,4.3,3.6c0.5,0,0.7-0.2,0.7-0.6c0-0.3-0.3-0.6-0.7-0.6c-0.5,0-1.2-0.2-1.6-0.4c-0.3-0.2-0.9-0.7-1.1-1
		c-0.1-0.2,0-0.2,1.7-0.2c2.6,0,4.4-0.3,6.5-1c1.2-0.4,2.4-1,3.5-1.6c0.4-0.3,0.8-0.4,0.8-0.4c0,0,0.1,0.6,0.1,1.3
		c0,3.1-0.9,5.4-2.9,7.4c-2.7,2.7-7.1,4.3-13,4.6C78.2,94.8,77.8,94.8,75.8,94.7z"/>
	<path class="st5" d="M65.3,76.5c-0.8-0.2-1.1-0.3-1.8-0.9c-1-0.7-1.9-2-2.2-3.2c-0.1-0.3-0.2-0.7-0.3-0.8C61,71.4,61,71.4,61.4,70
		c0.3-0.8,0.9-2,1.5-2.9c0.3-0.4,1.1-1.4,1.9-2.3c1.2-1.4,1.8-2.2,3.1-4.1c1.4-2,0.6-4.4-1.6-5.2c-0.6-0.2-1.6-0.2-2.3,0.1
		c-0.8,0.3-1.6,1.1-2,2c-0.5,1.1-0.6,1.3-2.2,4c-0.3,0.6-1.3,1.9-2.1,2.8c-0.6,0.7-2.1,1.9-3,2.5c-1.6,1-2.5,1.2-4,0.9
		c-2.2-0.4-3.9-1.9-4.6-4.2c-0.2-0.8-0.3-2.2-0.2-2.9c0.3-1.4,2.5-3.7,4.8-5.1c0.7-0.4,1-0.6,2.9-1.5c1.3-0.6,2.3-1.3,3.2-2.1
		c0.4-0.4,0.9-0.8,1.1-1c0.8-0.6,1.2-1.3,1.2-2.2c0-0.7-0.2-1.3-0.6-1.8c-0.6-0.7-1.7-1-2.5-0.7c-0.4,0.1-2.1,0.8-2.4,1
		C53,47.7,52.2,47.5,52,47c-0.2-0.4-0.2-0.9,0.1-1.2c0.1-0.1,0.4-0.3,0.6-0.5c0.3-0.1,0.5-0.3,0.5-0.3c0.1-0.1,1.2-0.5,1.9-0.7
		c0.5-0.1,0.9-0.1,1.5-0.1c1,0.1,1.8,0.4,2.7,1.2c1.1,1,1.7,2.5,1.4,4.1c-0.1,0.9-0.3,1.5-0.8,2.2c-0.4,0.6-2,2.5-2.2,2.5
		c0,0-0.3,0.2-0.7,0.5c-0.5,0.4-1.3,0.8-2,1.2c-0.1,0-0.8,0.4-1.7,0.8c-2,1-2.8,1.5-3.9,2.6c-1.3,1.4-1.9,2.4-1.9,3.7
		c0,0.5,0.1,0.7,0.3,1.1c0.7,1.3,2.2,2,3.8,1.7c2.2-0.5,5-3,6.5-5.8c1.4-2.5,2-3.5,3.3-4.7c1-1,1.8-1.4,2.9-1.6
		c2.6-0.5,5.1,1.4,5.7,4.3c0.2,0.9,0.1,2-0.2,2.8c-0.3,1-1.1,2.5-1.8,3.3c-0.3,0.4-0.6,0.9-0.7,0.9c0,0.1-0.2,0.3-0.4,0.4
		c-0.2,0.1-0.3,0.3-0.3,0.3s-0.2,0.2-0.4,0.4c-0.2,0.2-0.4,0.3-0.4,0.4s-0.2,0.3-0.4,0.5c-1.1,1.2-2,2.7-2.3,3.8
		c-0.2,0.6-0.1,1.6,0.1,2.3c0.1,0.5,0.6,1.2,1.1,1.5c0.4,0.3,0.4,0.3,1.3,0.3c0.8,0,0.9,0,1.4-0.3c0.7-0.3,1.3-0.8,1.8-1.4
		c0.8-1.1,1.2-2.1,1.9-5.1c0.6-2.6,1.2-4.1,2.1-5.4c0.1-0.2,0.4-0.6,0.5-0.8c0.6-0.9,2-1.8,3.1-2c2.1-0.4,4.6,0.9,5.5,2.8
		c0.4,0.8,0.5,1.2,0.6,2.3c0,0.6,0,0.9-0.1,1.3c-0.3,0.8-1,1.1-1.6,0.7c-0.4-0.3-0.6-0.7-0.6-1.5c0-1.7-0.3-2.6-1.1-3.3
		c-0.6-0.5-1.2-0.7-2-0.7c-1.9,0.1-3.4,1.9-3.7,4.2c0,0.3-0.1,0.7-0.2,0.9C73.5,67,73.2,68,73,69c-0.7,2.8-1.3,4.3-2.1,5.5
		c-0.2,0.3-0.4,0.6-0.5,0.7c-0.3,0.4-1,0.9-1.8,1.1C67.6,76.7,66.2,76.7,65.3,76.5z"/>
	<path class="st5" d="M65.1,74.1c-0.3-0.1-0.7-0.7-0.8-1c-0.1-0.2-0.1-0.7-0.1-1.2c0-0.7,0.1-0.9,0.4-1.5c0.2-0.4,0.4-0.8,0.5-0.9
		l0.2-0.2l1.3,0.7c0.7,0.4,1.6,0.8,1.9,0.9c0.7,0.3,0.7,0.3,0.2,1.3c-0.5,0.8-1,1.4-1.7,1.7C66.2,74.2,65.6,74.3,65.1,74.1z"/>
	<path class="st5" d="M49.8,64.8c-0.5-0.2-0.9-0.6-1.1-1c-0.2-0.4-0.2-1.3,0-1.8c0.3-0.7,0.7-1.3,1.4-2c0.6-0.6,1.7-1.4,1.8-1.4
		c0,0,0.3,0.2,0.5,0.5c0.2,0.3,1,1.1,1.7,1.8l1.3,1.3L54.7,63C52.9,64.7,51,65.4,49.8,64.8z"/>
	<path class="st5" d="M83,61.9c-0.3,0-0.4-0.2-0.8-0.6c-1.2-1.3-2.9-2.1-4.6-2.1c-0.9,0-1.5,0.1-2.5,0.6L74.4,60l-0.9-0.4
		c-0.5-0.2-1.3-0.5-1.7-0.7l-0.7-0.4l-0.2-0.6c-0.6-2.5-2.1-4.2-4.3-4.8c-0.7-0.2-0.9-0.2-1.7-0.2c-0.5,0-1.1,0.1-1.3,0.2l-0.3,0.1
		l-1-1l-1-1l0.2-0.4c0.1-0.3,0.1-0.8,0.2-1.7c0-1.1,0-1.3-0.2-1.9c-0.7-2.1-2.5-3.5-4.8-3.7l-0.7-0.1l-0.6-1.2
		c-0.8-1.7-0.8-1.6-0.3-1.9c0.6-0.4,1-0.5,1.7-0.5c1.3,0,2.3,0.8,3.1,2.6c1.2,2.6,1.4,3,2,3.9c2.6,4,6.6,7.4,11.7,9.9
		c1.8,0.9,3.5,1.5,5.2,1.9c1.5,0.3,2.6,0.4,4.6,0.4c2,0,2.4,0.1,3.4,0.5c0.5,0.2,0.8,0.5,1.4,1c0.6,0.6,1.1,1.3,1.1,1.7
		c0,0.1-0.2,0.1-1.5,0.3C86.8,62,83.5,62,83,61.9z"/>
</g>
<g id="layer105">
	<path class="st6" d="M68.9,87.9c-2.1-0.3-5.9-1.4-8.6-2.6c-6.2-2.7-12.3-7.1-17.3-12.4c-6.3-6.8-10.3-14.2-11.2-20.7
		c-0.2-1.4-0.1-4.1,0.1-5.2c0.1-0.4,0.2-0.9,0.2-1c0-0.1,0-0.2,0-0.2c-0.2,0-1.7,1.1-2.3,1.7L29.2,48l0.2-0.4c0.9-1.6,3-3.4,4.9-4.2
		c1.2-0.5,2.1-0.6,3.5-0.6c2,0.1,3.6,0.7,5,2c0.8,0.7,1.4,1.6,2.3,3.4c1.4,2.7,2.7,4.9,3.9,6.5c0.3,0.5,0.4,0.6,0.3,0.7
		c-0.1,0.1-0.4,0.3-0.7,0.5c-1.3,0.9-2.8,2.6-3.4,4c-0.2,0.4-0.4,0.9-0.5,1.1c-0.1,0.2-0.3,0.6-0.5,1c-1.6,3,0.1,6.8,3.5,7.8
		c0.7,0.2,2.1,0.2,2.9,0c0.3-0.1,0.9-0.3,1.3-0.6c0.4-0.2,0.9-0.4,1.1-0.5c0.4-0.1,0.6-0.2,1.5-0.6c0.6-0.3,1.9-1.1,2.4-1.5
		c0.2-0.2,0.3-0.3,0.3-0.3c0,0,0.4-0.3,0.8-0.8l0.7-0.8l0.9,0.7c0.5,0.4,1.2,0.9,1.6,1.1l0.7,0.5l-0.2,0.4c-0.6,1-1.9,3.8-2.1,4.7
		c-0.2,0.9-0.2,2.3,0,3.1c0.4,1.4,1.3,2.5,2.4,3.1c0.6,0.3,0.8,0.3,1.6,0.4c0.8,0,1,0,1.5-0.2c0.4-0.2,0.9-0.3,1.4-0.3
		c1.5-0.1,3.1-0.9,4.4-2.1c0.4-0.4,0.9-0.9,1.1-1.2c0.3-0.4,1.1-2.1,1.1-2.2c0-0.2,0.2-0.1,0.8,0.1c0.3,0.1,1,0.3,1.4,0.5
		c3.4,1.1,5.4,2.6,6.2,4.8c0.3,0.8,0.5,2,0.3,2.8c-0.6,3.7-3.3,6.2-7.4,6.9C72.9,88,70.3,88.1,68.9,87.9z M64.4,84.1
		c0.5-0.5,0.1-1.3-0.5-1.3c-0.4,0-0.8,0.3-0.8,0.8c0,0.4,0.3,0.8,0.8,0.8C64.1,84.3,64.3,84.3,64.4,84.1z M73.1,82.7
		c0.1-0.2,0.1-0.3,0-0.4c-0.2-0.3-0.6-0.2-0.7,0c-0.1,0.2-0.1,0.2,0,0.5C72.6,83.1,73,83,73.1,82.7z M68.3,80.3
		c0.2-0.1,0.1-0.5-0.1-0.5c-0.3,0-0.4,0.2-0.3,0.4C68,80.4,68.1,80.4,68.3,80.3z M63.6,80.1c0-0.1-0.1-0.1-0.2-0.2
		c-0.2,0-0.2,0-0.2,0.2s0,0.2,0.2,0.2C63.5,80.3,63.6,80.2,63.6,80.1z M56.4,74.5c0.2-0.1,0.2-0.6,0-0.7c-0.2-0.2-0.6-0.1-0.7,0.2
		c-0.1,0.2-0.1,0.3,0.1,0.4C56.1,74.6,56.2,74.6,56.4,74.5z M44.8,71c0.1-0.3-0.2-0.5-0.5-0.2c-0.1,0.1-0.1,0.2,0,0.3
		C44.4,71.4,44.7,71.3,44.8,71z M39.8,63.2c0.1-0.2,0.1-0.2,0-0.4c-0.1-0.1-0.2-0.2-0.4-0.2c-0.1,0-0.3,0.1-0.4,0.2
		c-0.1,0.2-0.1,0.2,0,0.4c0.1,0.1,0.2,0.2,0.4,0.2C39.5,63.4,39.7,63.3,39.8,63.2z M38.7,57.4c0.1,0,0.2-0.2,0.3-0.3
		c0.4-0.9-0.7-1.6-1.3-0.9C37.1,56.8,37.8,57.7,38.7,57.4z M44,56.5c0.3-0.3,0.1-0.7-0.3-0.7c-0.4,0-0.5,0.4-0.3,0.7
		c0.1,0.1,0.2,0.1,0.3,0.1C43.8,56.7,44,56.6,44,56.5z M40,52.1c0.1-0.1,0.1-0.2,0-0.4c-0.1-0.2-0.5-0.2-0.6,0
		c-0.1,0.2-0.1,0.2,0.1,0.4C39.6,52.4,39.9,52.3,40,52.1z"/>
	<path class="st7" d="M65.3,76.5c-0.8-0.2-1.1-0.3-1.8-0.9c-1-0.7-1.9-2-2.2-3.2c-0.1-0.3-0.2-0.7-0.3-0.8C61,71.4,61,71.4,61.4,70
		c0.3-0.8,0.9-2,1.5-2.9c0.3-0.4,1.1-1.4,1.9-2.3c1.2-1.4,1.8-2.2,3.1-4.1c1.4-2,0.6-4.4-1.6-5.2c-0.6-0.2-1.6-0.2-2.3,0.1
		c-0.8,0.3-1.6,1.1-2,2c-0.5,1.1-0.6,1.3-2.2,4c-0.3,0.6-1.3,1.9-2.1,2.8c-0.6,0.7-2.1,1.9-3,2.5c-1.6,1-2.5,1.2-4,0.9
		c-2.2-0.4-3.9-1.9-4.6-4.2c-0.2-0.8-0.3-2.2-0.2-2.9c0.3-1.4,2.5-3.7,4.8-5.1c0.7-0.4,1-0.6,2.9-1.5c1.3-0.6,2.3-1.3,3.2-2.1
		c0.4-0.4,0.9-0.8,1.1-1c0.8-0.6,1.2-1.3,1.2-2.2c0-0.7-0.2-1.3-0.6-1.8c-0.6-0.7-1.7-1-2.5-0.7c-0.4,0.1-2.1,0.8-2.4,1
		C53,47.7,52.2,47.5,52,47c-0.2-0.4-0.2-0.9,0.1-1.2c0.1-0.1,0.5-0.4,0.9-0.6c0.4-0.2,0.8-0.4,0.8-0.4c0.1-0.1,0.5-0.2,1-0.3
		c0.7-0.2,1-0.2,1.8-0.2c0.7,0,0.9,0.1,1.5,0.3c0.4,0.2,0.9,0.5,1.2,0.8c1.1,1.1,1.7,2.5,1.4,4.1c-0.1,0.9-0.3,1.4-0.8,2.2
		c-0.4,0.6-2,2.4-2.1,2.5c0,0-0.3,0.2-0.7,0.5c-0.5,0.4-1.3,0.8-2,1.2c-0.1,0-0.8,0.4-1.7,0.8c-2,1-2.8,1.5-3.9,2.6
		c-1.3,1.4-1.9,2.4-1.9,3.7c0,0.5,0.1,0.7,0.3,1.1c0.5,0.9,1.5,1.7,2.6,1.8c1.4,0.1,3.4-0.8,5.1-2.5c1.2-1.2,1.9-2.2,2.8-3.9
		c1-1.9,1.7-2.8,2.8-3.9c1.2-1.2,1.9-1.6,3.1-1.8c2.6-0.5,5.1,1.4,5.7,4.3c0.2,0.8,0.1,2.1,0,2.4c0,0.1-0.1,0.4-0.2,0.7
		c-0.2,0.8-1,2.1-1.6,3c-0.3,0.4-0.6,0.9-0.7,0.9c0,0.1-0.2,0.3-0.4,0.4c-0.2,0.1-0.3,0.3-0.3,0.3s-0.2,0.2-0.4,0.4
		c-0.2,0.2-0.4,0.3-0.4,0.4c0,0-0.2,0.3-0.4,0.5c-1.1,1.2-2,2.7-2.3,3.8c-0.2,0.6-0.1,1.6,0.1,2.3c0.1,0.5,0.6,1.2,1.1,1.5
		c0.4,0.3,0.4,0.3,1.3,0.3c0.8,0,0.9,0,1.4-0.3c0.7-0.3,1.3-0.8,1.8-1.4c0.8-1.1,1.2-2.1,1.9-5.1c0.6-2.6,1.2-4.1,2.1-5.4
		c0.1-0.2,0.4-0.6,0.5-0.8c0.6-0.9,2-1.8,3.1-2c2.1-0.4,4.6,0.9,5.5,2.8c0.4,0.8,0.5,1.2,0.6,2.3c0,0.6,0,0.9-0.1,1.3
		c-0.3,0.8-1,1.1-1.6,0.7c-0.4-0.3-0.6-0.7-0.6-1.5c0-1.7-0.3-2.6-1.1-3.3c-0.6-0.5-1.2-0.7-2-0.7c-1.9,0.1-3.4,1.9-3.7,4.2
		c0,0.3-0.1,0.7-0.2,0.9C73.5,67,73.2,68,73,69c-0.7,2.8-1.3,4.3-2.1,5.5c-0.2,0.3-0.4,0.6-0.5,0.7c-0.3,0.4-1,0.9-1.8,1.1
		C67.6,76.7,66.2,76.7,65.3,76.5z"/>
	<path class="st6" d="M65,74c-1-0.6-0.9-3.2,0.1-4.5l0.2-0.2l1.3,0.7c0.7,0.4,1.6,0.8,1.9,0.9c0.6,0.2,0.6,0.3,0.6,0.5
		c-0.2,0.8-1.3,2.1-2.2,2.5C66.2,74.2,65.3,74.2,65,74z"/>
	<path class="st6" d="M50.2,64.9c-0.7-0.2-1.4-0.8-1.6-1.4c-0.3-0.9,0.4-2.4,1.6-3.5c0.5-0.5,1.5-1.3,1.7-1.3c0,0,0.3,0.2,0.5,0.5
		c0.2,0.3,1,1.1,1.7,1.8l1.3,1.3l-0.5,0.5C53.3,64.4,51.4,65.2,50.2,64.9z"/>
	<path class="st6" d="M88.1,61.4l-0.3-0.3l-1.7,0c-1,0-2.2,0-2.9,0L82,61l-0.6-0.4c-0.7-0.6-1.9-1.1-2.7-1.3
		c-0.8-0.2-2.2-0.1-2.8,0.1c-0.4,0.1-0.5,0.1-0.8,0c-0.6-0.2-2.8-1.2-3.6-1.5c-0.7-0.4-0.7-0.4-0.9-0.9c-0.6-1.6-2.1-3.1-3.6-3.7
		c-0.3-0.1-0.6-0.2-0.7-0.3c-0.1-0.1-0.6-0.1-1.2-0.1h-0.9L63,51.5l-1.3-1.3V49c0-0.7,0-1.3-0.1-1.3c-0.1-0.1-0.2-0.4-0.3-0.7
		c-0.3-0.9-1.1-2-1.8-2.5c-0.7-0.5-1.4-0.9-2.2-1l-0.6-0.1l-0.7-1.4c-0.8-1.5-0.7-1.4-1.3-1.3c-0.3,0.1-0.2-0.2,0.2-0.4
		c0.6-0.4,1-0.5,1.7-0.5c1.3,0,2.3,0.8,3.1,2.6c1.2,2.6,1.4,3,2,3.9c2.6,4,6.6,7.4,11.7,9.9c1.8,0.9,3.5,1.5,5.2,1.9
		c1.5,0.3,2.6,0.4,4.6,0.4c2,0,2.4,0.1,3.4,0.5c0.5,0.2,0.8,0.5,1.4,1c0.6,0.7,1.1,1.3,1.1,1.7c0,0.1-0.2,0.1-0.4,0.1
		C88.4,61.7,88.3,61.7,88.1,61.4z"/>
</g>
</svg>
