<?xml version="1.0" encoding="utf-8"?>
<!-- Generator: Adobe Illustrator 24.0.1, SVG Export Plug-In . SVG Version: 6.00 Build 0)  -->
<svg version="1.1" id="Layer_1" xmlns="http://www.w3.org/2000/svg" xmlns:xlink="http://www.w3.org/1999/xlink" x="0px" y="0px"
	 width="128px" height="128px" viewBox="0 0 128 128" style="enable-background:new 0 0 128 128;" xml:space="preserve">
<style type="text/css">
	.st0{display:none;}
	.st1{display:inline;fill:#ECA445;}
	.st2{display:inline;fill:#7E1800;}
	.st3{display:inline;fill:#FFBF50;}
	.st4{display:inline;fill:#FFF8F6;}
	.st5{display:inline;fill:#FFFFFF;}
	.st6{display:inline;}
	.st7{fill:#7E1800;}
	.st8{fill:#FFE773;}
	.st9{fill:#212526;}
	.st10{fill:#DF4456;}
	.st11{fill:#CC364B;}
	.st12{fill:#D39256;}
	.st13{fill:#FFC74F;}
	.st14{fill:#F24962;}
	.st15{fill:#F4AE00;}
	.st16{fill:#5E4300;}
	.st17{fill:#4C4846;}
	.st18{fill:#545250;}
	.st19{fill:#7E7E7E;}
	.st20{fill:#666666;}
	.st21{fill:#CFCFCF;}
	.st22{fill:#B3B3B3;}
	.st23{fill:#FFBC00;}
	.st24{fill:#E1D5C8;}
	.st25{fill:#FFCE55;}
	.st26{fill:#FFDC83;}
	.st27{fill:#A9FFF5;}
	.st28{fill:#FFC024;}
	.st29{fill:#FFC400;}
	.st30{fill:#F7B000;}
	.st31{fill:#FF4C00;}
	.st32{fill:#EB3800;}
	.st33{fill:#EDA900;}
	.st34{fill:#DD9900;}
	.st35{fill:#FFBB10;}
	.st36{fill:#E0A000;}
	.st37{fill:#AC5700;}
	.st38{fill:#98E6DD;}
	.st39{opacity:0.7;}
	.st40{fill:#DBFFFA;}
	.st41{fill:#FFC24C;}
	.st42{fill:#FF6B4A;}
	.st43{fill:#ED9E00;}
	.st44{fill:#FFEAB6;}
	.st45{fill:#B8A794;}
	.st46{fill:#FFDB80;}
	.st47{fill:#FFFFFF;}
</style>
<g>
	<g class="st0">
		<path class="st1" d="M55.1,31c2.2-0.2,4.3,0.3,6.1,1.3c0.8,0.5,1.7,0.9,2.5,1.4c2.1,1.1,4.7,1.5,7.2,1.9
			c5.8,0.7,11.7,1.2,17.6,0.5c5.4-0.6,10.6-1.7,15.7-3.2c4-1.2,7.9-2.6,12-1.1c3.1,1.1,5.2,3.7,4.4,6.5c-1.3,4.4-6.3,7.1-11.1,9.1
			c-3.8,1.6-8.2,2.8-12.4,3.6c-5.1,0.9-10,2-15.3,2.2c-9.3,0.3-17.7-1.7-24.8-6.6c-3.4-2.3-7.1-5.2-7.8-8.9
			c-0.4-1.7-0.3-3.6,1.5-4.8c1.1-0.8,2.6-1.8,4.1-1.9C54.9,31,55,31,55.1,31z"/>
		<path class="st2" d="M43.1,39c-0.4-2.1,0.9-4.3,3.1-5.5c2.4-1.2,5.5-1.2,8.2-0.6c2.7,0.6,5.2,1.8,7.8,2.7
			c6.4,2.4,13.4,3.5,20.4,3.3c10.3-0.3,20-3.4,29.9-5.8c2.9-0.7,6.2-1.3,8.6,0.2c2,1.2,2.5,3.5,1.6,5.4s-2.9,3.2-5.1,4.1
			c-2.2,0.8-4.7,1.2-7.2,1.5c-6.2,0.8-12.4,1.4-18.5,2.1c-7.4,0.8-14.8,1.5-22.3,1.3c-7.9-0.2-16.6-1.3-23.3-4.8
			C44.5,42.1,43.3,40.6,43.1,39z"/>
		<path class="st3" d="M52.5,35.6c2.2-0.2,4.4,0.3,6.2,1.3c0.8,0.5,1.7,0.9,2.6,1.4c2.2,1.1,4.8,1.6,7.4,1.9c6,0.8,12,1.2,18,0.6
			c5.5-0.6,10.9-1.7,16.1-3.2c4.1-1.2,8-2.6,12.3-1.1c3.2,1.2,5.3,3.7,4.4,6.6c-1.3,4.5-6.5,7.2-11.3,9.3c-3.9,1.6-8.4,2.9-12.6,3.7
			C90.4,57,85.4,58.2,80,58.3c-9.5,0.3-18.1-1.7-25.3-6.7c-3.4-2.4-7.2-5.4-8-9.1c-0.4-1.8-0.3-3.6,1.5-4.9
			C49.3,36.8,50.9,35.8,52.5,35.6C52.3,35.6,52.4,35.6,52.5,35.6z"/>
		<path class="st4" d="M114.2,34.2C114.2,34.2,114.3,34.2,114.2,34.2c0.1-0.1,0.2-0.1,0.3-0.2c0.1-0.1,0.2-0.1,0.4-0.2
			c0.2-0.1,0.4-0.1,0.6-0.2c0.2-0.1,0.5-0.1,0.7-0.1c0.3,0,0.5,0,0.8,0s0.6,0,0.9,0.1c0.3,0,0.6,0.1,0.9,0.2
			c0.2,0.1,0.6,0.2,0.8,0.3c0.3,0.1,0.5,0.3,0.7,0.4c0.2,0.2,0.4,0.3,0.6,0.5s0.3,0.3,0.4,0.5s0.2,0.3,0.3,0.4
			c0.1,0.1,0.1,0.3,0.1,0.4c0,0.1,0,0.2,0.1,0.2c0,0.1,0,0.1,0,0.1s-0.1-0.1-0.2-0.2c-0.1-0.1-0.2-0.2-0.3-0.3
			c-0.1-0.1-0.2-0.2-0.4-0.3c-0.3-0.2-0.6-0.5-1.1-0.7c-0.2-0.1-0.4-0.2-0.6-0.3s-0.4-0.2-0.7-0.3c-0.2-0.1-0.5-0.1-0.7-0.2
			c-0.2,0-0.5-0.1-0.7-0.1c-0.5-0.1-1-0.1-1.4-0.1c-0.2,0-0.4,0-0.6,0s-0.3,0-0.4,0C114.4,34.2,114.2,34.2,114.2,34.2z"/>
		<path class="st5" d="M97.3,40.6c0,0,0.1,0,0.2,0c0.2,0,0.4-0.1,0.7-0.1c0.6-0.1,1.4-0.3,2.3-0.6c0.5-0.1,1-0.3,1.5-0.5
			s1.1-0.4,1.7-0.6c0.6-0.2,1.2-0.4,1.8-0.6c0.6-0.2,1.3-0.4,2-0.5c0.7-0.2,1.4-0.3,2.1-0.3c0.7-0.1,1.4-0.1,2.1,0
			c1.4,0.1,2.6,0.5,3.5,0.9c0.5,0.2,0.8,0.5,1.1,0.7c0.3,0.2,0.5,0.5,0.7,0.7s0.3,0.4,0.3,0.5c0.1,0.1,0.1,0.2,0.1,0.2
			s0-0.1-0.1-0.2c-0.1-0.1-0.2-0.3-0.4-0.4c-0.2-0.2-0.4-0.4-0.8-0.6c-0.3-0.2-0.7-0.4-1.1-0.6c-0.4-0.2-0.9-0.3-1.5-0.4
			c-0.5-0.1-1.1-0.2-1.7-0.2s-1.2,0-1.9,0.1c-0.6,0.1-1.3,0.2-1.9,0.3s-1.3,0.3-1.9,0.5s-1.2,0.4-1.8,0.6c-1.2,0.4-2.3,0.7-3.4,0.9
			c-1,0.2-1.9,0.3-2.5,0.3c-0.3,0-0.5,0-0.7,0C97.4,40.6,97.3,40.6,97.3,40.6z"/>
		<g class="st6">
			<path class="st7" d="M58.4,49.2c-0.1,0-0.2,0-0.3,0c-0.2,0-0.4,0-0.5-0.1s-0.1-0.2-0.1-0.4v-3.9c0.1,0,0.1,0,0.3,0
				c0.1,0,0.2,0,0.3,0c0.2,0,0.4,0,0.5,0.1s0.2,0.2,0.2,0.4v1.3h1.7v-1.8c0.1,0,0.1,0,0.3,0s0.2,0,0.3,0c0.2,0,0.4,0,0.5,0.1
				s0.2,0.2,0.2,0.4v3.9c-0.1,0-0.1,0-0.2,0c-0.1,0-0.2,0-0.3,0c-0.2,0-0.4,0-0.5-0.1s-0.1-0.2-0.1-0.4v-1.3H59v1.8
				C58.6,49.1,58.5,49.1,58.4,49.2z"/>
			<path class="st7" d="M67.4,46.9c0,0.4-0.1,0.7-0.2,1s-0.3,0.5-0.5,0.7s-0.5,0.3-0.8,0.4c-0.3,0.1-0.6,0.2-1,0.2s-0.7-0.1-1-0.2
				c-0.3-0.1-0.6-0.3-0.8-0.4s-0.4-0.4-0.5-0.7s-0.2-0.6-0.2-1s0.1-0.7,0.2-1c0.1-0.3,0.3-0.5,0.5-0.7s0.5-0.3,0.8-0.4
				c0.3-0.1,0.6-0.2,1-0.2c0.3,0,0.7,0.1,1,0.2c0.3,0.1,0.6,0.3,0.8,0.4s0.4,0.4,0.5,0.7C67.4,46.2,67.4,46.5,67.4,46.9z M66.1,46.9
				c0-0.5-0.1-0.8-0.3-1.1c-0.2-0.2-0.5-0.4-0.9-0.4s-0.6,0.1-0.9,0.4c-0.2,0.2-0.3,0.6-0.3,1.1s0.1,0.8,0.3,1.1
				c0.2,0.2,0.5,0.4,0.9,0.4s0.7-0.1,0.9-0.4C66,47.7,66.1,47.4,66.1,46.9z"/>
			<path class="st7" d="M70.4,45.6v3.5c-0.1,0-0.1,0-0.2,0s-0.2,0-0.3,0c-0.2,0-0.4,0-0.5-0.1s-0.2-0.2-0.2-0.4v-3H68
				c0,0-0.1-0.1-0.1-0.2c0-0.1,0-0.2,0-0.3c0-0.2,0-0.3,0.1-0.4c0.1-0.1,0.2-0.1,0.3-0.1h3.5c0,0,0.1,0.1,0.1,0.2c0,0.1,0,0.2,0,0.3
				c0,0.2,0,0.3-0.1,0.4c-0.1,0.1-0.2,0.1-0.3,0.1H70.4z"/>
			<path class="st7" d="M76.9,46.9c0,0.4-0.1,0.7-0.2,1s-0.3,0.5-0.5,0.7s-0.5,0.3-0.8,0.4c-0.3,0.1-0.7,0.1-1.1,0.1
				c-0.1,0-0.2,0-0.3,0c-0.1,0-0.2,0-0.3,0c-0.1,0-0.2,0-0.4-0.1c-0.1,0-0.2,0-0.3-0.1c-0.3-0.1-0.4-0.3-0.4-0.5v-3.5
				c0-0.1,0-0.2,0.1-0.2c0.1-0.1,0.1-0.1,0.2-0.1c0.2-0.1,0.4-0.1,0.7-0.1c0.2,0,0.5,0,0.7,0c0.4,0,0.8,0,1.1,0.1
				c0.3,0.1,0.6,0.2,0.9,0.4c0.2,0.2,0.4,0.4,0.6,0.7C76.8,46.2,76.9,46.5,76.9,46.9z M75.6,46.9c0-0.5-0.1-0.8-0.4-1.1
				s-0.6-0.3-1-0.3c-0.1,0-0.2,0-0.3,0c-0.1,0-0.2,0-0.3,0v2.7c0.1,0,0.2,0,0.3,0c0.1,0,0.2,0,0.3,0c0.4,0,0.7-0.1,1-0.3
				C75.5,47.7,75.6,47.4,75.6,46.9z"/>
			<path class="st7" d="M82.5,46.9c0,0.4-0.1,0.7-0.2,1s-0.3,0.5-0.5,0.7S81.3,48.9,81,49c-0.3,0.1-0.6,0.2-1,0.2s-0.7-0.1-1-0.2
				c-0.3-0.1-0.6-0.3-0.8-0.4c-0.2-0.2-0.4-0.4-0.5-0.7s-0.2-0.6-0.2-1s0.1-0.7,0.2-1s0.3-0.5,0.5-0.7s0.5-0.3,0.8-0.4
				c0.3-0.1,0.6-0.2,1-0.2c0.3,0,0.7,0.1,1,0.2c0.3,0.1,0.6,0.3,0.8,0.4s0.4,0.4,0.5,0.7S82.5,46.5,82.5,46.9z M81.2,46.9
				c0-0.5-0.1-0.8-0.3-1.1c-0.2-0.2-0.5-0.4-0.9-0.4s-0.6,0.1-0.9,0.4c-0.2,0.2-0.3,0.6-0.3,1.1s0.1,0.8,0.3,1.1
				c0.2,0.2,0.5,0.4,0.9,0.4s0.7-0.1,0.9-0.4C81.1,47.7,81.2,47.4,81.2,46.9z"/>
			<path class="st7" d="M87.6,48.5c0,0.1,0,0.2-0.1,0.3s-0.2,0.1-0.3,0.2c-0.1,0-0.2,0.1-0.3,0.1c-0.1,0-0.2,0.1-0.4,0.1
				c-0.1,0-0.3,0-0.4,0.1c-0.1,0-0.3,0-0.4,0c-0.4,0-0.7,0-1.1-0.1c-0.3-0.1-0.6-0.2-0.9-0.4c-0.2-0.2-0.4-0.4-0.6-0.7
				c-0.1-0.3-0.2-0.6-0.2-1s0.1-0.7,0.2-1s0.3-0.5,0.6-0.7c0.2-0.2,0.5-0.3,0.9-0.4c0.3-0.1,0.7-0.1,1.1-0.1c0.5,0,0.9,0.1,1.2,0.2
				c0.3,0.1,0.4,0.3,0.4,0.5c0,0.1,0,0.2-0.1,0.3s-0.1,0.2-0.2,0.2c-0.1-0.1-0.3-0.2-0.5-0.2c-0.2-0.1-0.4-0.1-0.7-0.1
				c-0.2,0-0.4,0-0.6,0.1s-0.3,0.2-0.5,0.3c-0.1,0.1-0.2,0.3-0.3,0.4c-0.1,0.2-0.1,0.4-0.1,0.6c0,0.2,0,0.4,0.1,0.6
				c0.1,0.2,0.2,0.3,0.3,0.4c0.1,0.1,0.3,0.2,0.5,0.3s0.4,0.1,0.6,0.1c0.1,0,0.2,0,0.3,0c0.1,0,0.2,0,0.2-0.1v-0.8h-0.9
				c0,0-0.1-0.1-0.1-0.2c0-0.1,0-0.2,0-0.2c0-0.2,0-0.3,0.1-0.3c0.1-0.1,0.2-0.1,0.3-0.1H87c0.1,0,0.3,0,0.3,0.1
				c0.1,0.1,0.1,0.2,0.1,0.3v1.2H87.6z"/>
			<path class="st7" d="M88.2,48.6c0-0.2,0.1-0.3,0.2-0.5c0.1-0.1,0.3-0.2,0.5-0.2s0.4,0.1,0.5,0.2c0.1,0.1,0.2,0.3,0.2,0.5
				s-0.1,0.3-0.2,0.5c-0.1,0.1-0.3,0.2-0.5,0.2s-0.4-0.1-0.5-0.2C88.2,48.9,88.2,48.8,88.2,48.6z"/>
			<path class="st7" d="M93.9,45.3c0,0.1,0,0.2-0.1,0.3s-0.1,0.2-0.2,0.2c-0.1-0.1-0.3-0.2-0.4-0.2c-0.2-0.1-0.4-0.1-0.6-0.1
				c-0.4,0-0.8,0.1-1,0.4s-0.4,0.6-0.4,1c0,0.5,0.1,0.8,0.4,1.1c0.3,0.2,0.6,0.4,1,0.4c0.2,0,0.4,0,0.6-0.1s0.3-0.1,0.4-0.2
				c0.1,0.1,0.1,0.1,0.2,0.2c0,0.1,0.1,0.2,0.1,0.3s0,0.2-0.1,0.3s-0.2,0.2-0.3,0.2c-0.1,0-0.2,0.1-0.4,0.1s-0.4,0.1-0.7,0.1
				c-0.4,0-0.7,0-1-0.1s-0.6-0.2-0.8-0.4c-0.2-0.2-0.4-0.4-0.5-0.7s-0.2-0.6-0.2-1s0.1-0.7,0.2-1s0.3-0.5,0.5-0.7s0.5-0.3,0.8-0.4
				c0.3-0.1,0.6-0.2,1-0.2c0.5,0,0.9,0.1,1.1,0.2S93.9,45.1,93.9,45.3z"/>
			<path class="st7" d="M97.5,48.2H96c-0.1,0.2-0.1,0.3-0.2,0.5s-0.1,0.3-0.1,0.5c-0.1,0-0.1,0-0.2,0.1c-0.1,0-0.2,0-0.3,0
				c-0.2,0-0.4,0-0.5-0.1s-0.2-0.2-0.2-0.3s0-0.1,0-0.2c0-0.1,0-0.1,0.1-0.2c0-0.1,0.1-0.3,0.2-0.5s0.1-0.4,0.2-0.6
				c0.1-0.2,0.2-0.5,0.3-0.7c0.1-0.2,0.2-0.5,0.3-0.7c0.1-0.2,0.2-0.4,0.2-0.6c0.1-0.2,0.1-0.3,0.2-0.4c0.1,0,0.2-0.1,0.4-0.1
				c0.2,0,0.3-0.1,0.5-0.1s0.4,0,0.6,0.1s0.3,0.2,0.4,0.3c0.1,0.3,0.2,0.6,0.3,0.9c0.1,0.3,0.2,0.7,0.4,1c0.1,0.4,0.2,0.7,0.3,1.1
				c0.1,0.3,0.2,0.7,0.3,0.9c-0.1,0.1-0.1,0.1-0.3,0.2c-0.1,0-0.3,0.1-0.4,0.1c-0.2,0-0.4,0-0.5-0.1s-0.2-0.2-0.2-0.3L97.5,48.2z
				 M96.7,45.7c-0.1,0.2-0.2,0.5-0.3,0.7c-0.1,0.3-0.2,0.6-0.3,0.9h1.1c-0.1-0.3-0.2-0.6-0.3-0.9C96.9,46.1,96.9,45.9,96.7,45.7
				L96.7,45.7z"/>
			<path class="st7" d="M103.1,44.7c0,0,0.1,0.1,0.1,0.2c0,0.1,0,0.2,0,0.3c0,0.2,0,0.3-0.1,0.4c-0.1,0.1-0.2,0.1-0.3,0.1H101v1h1.8
				c0,0.1,0.1,0.1,0.1,0.2c0,0.1,0,0.2,0,0.3c0,0.2,0,0.3-0.1,0.4c-0.1,0.1-0.2,0.1-0.3,0.1H101v1.6c-0.1,0-0.1,0-0.2,0
				s-0.2,0-0.3,0c-0.2,0-0.4,0-0.5-0.1s-0.1-0.2-0.1-0.4v-3.3c0-0.2,0.1-0.3,0.2-0.4c0.1-0.1,0.3-0.2,0.5-0.2h2.5V44.7z"/>
			<path class="st7" d="M104.1,49c-0.1-0.1-0.2-0.3-0.2-0.4v-3.2c0-0.2,0.1-0.3,0.2-0.4c0.1-0.1,0.3-0.2,0.5-0.2h2.6
				c0,0,0.1,0.1,0.1,0.2c0,0.1,0,0.2,0,0.2c0,0.2,0,0.3-0.1,0.4c-0.1,0.1-0.2,0.1-0.3,0.1h-1.8v0.8h1.8c0,0,0.1,0.1,0.1,0.2
				c0,0.1,0,0.2,0,0.2c0,0.2,0,0.3-0.1,0.4c-0.1,0.1-0.2,0.1-0.3,0.1h-1.5v0.9h2.1c0,0,0.1,0.1,0.1,0.2c0,0.1,0,0.2,0,0.3
				c0,0.2,0,0.3-0.1,0.3c-0.1,0.1-0.2,0.1-0.3,0.1h-2.4C104.4,49.1,104.3,49.1,104.1,49z"/>
		</g>
		<g class="st6">
			<path class="st8" d="M93.1,41.5c-1.6,0-3.1-0.6-4.2-1.2c-0.5-0.2-0.9-0.5-1.4-0.7c-1.1-0.6-2.2-1.2-3.4-1.5
				c-1.8-0.4-3.8-0.2-5.3,0.7c-0.4,0.2-0.7,0.5-1.1,0.8c-0.7,0.5-1.4,1.1-2.3,1.4c-1.6,0.5-3.6,0.3-5.5-0.6c-1.1-0.6-2-1.3-2.9-2
				c-0.3-0.3-0.7-0.5-1-0.8c-1.5-1.1-2.8-1.7-4.1-1.8s-2.8,0.2-4.1,1s-2.2,1.8-3.1,2.8c-0.2,0.2-0.6,0.3-0.9,0.1
				c-0.3-0.2-0.4-0.5-0.2-0.7c0.9-1.1,2-2.2,3.4-3c1.6-0.9,3.4-1.4,5-1.2c2.1,0.2,3.7,1.3,4.8,2c0.4,0.3,0.7,0.5,1.1,0.8
				c0.9,0.7,1.7,1.3,2.7,1.8c1.5,0.8,3.1,1,4.3,0.5c0.7-0.2,1.3-0.7,1.9-1.2c0.4-0.3,0.8-0.6,1.2-0.9c1.8-1.1,4.3-1.4,6.5-0.9
				c1.4,0.4,2.6,1,3.7,1.7c0.4,0.2,0.9,0.5,1.3,0.7c1.3,0.7,3.2,1.3,4.8,0.8c1.2-0.4,2-1.3,2.8-2.3c0.4-0.6,0.9-1.1,1.5-1.6
				c1.9-1.7,5-2.4,7.7-1.8c2.7,0.6,5,2.5,5.6,4.7c0.1,0.3-0.1,0.5-0.5,0.6c-0.3,0.1-0.7-0.1-0.8-0.4c-0.5-1.8-2.3-3.4-4.6-3.9
				c-2.3-0.5-4.9,0.1-6.5,1.5c-0.5,0.4-0.9,1-1.4,1.5c-0.9,1.1-1.8,2.2-3.4,2.7C94.3,41.4,93.7,41.5,93.1,41.5z"/>
		</g>
	</g>
	<g>
		<g id="layer101_1_">
			<path class="st9" d="M54.8,54.8c6.3,2.5,14.3,4.1,21.7,4.2c5.8,0.1,11.1-0.4,16.3-1.6c1.9-0.4,6.3-1.8,8.1-2.5
				c6.5-2.6,11.8-6.4,15.8-11.1c1.9-2.3,3.1-4.1,3.6-5.7c0.9-3.1,0.4-6.4-1.5-9l-0.4-0.6l0.2-0.4c0.5-1,0.8-2.3,0.9-3.6
				c0.1-3.2-1.6-6.3-4.7-8.2c-0.9-0.6-2.7-1.4-3.9-1.6c-3.4-0.8-7.4,0.1-9.9,2.2c-0.3,0.3-0.5,0.4-0.5,0.5c0,0-0.2-0.2-0.5-0.5
				c-1.1-1.2-2.6-1.7-4.2-1.3c-1,0.2-1.8,0.7-3.7,2c-4,3.1-9.8,4.7-16.5,4.8c-3.8,0.1-6-0.3-9.7-1.9c-1.1-0.5-2.1-0.9-2.5-0.9
				c-0.3,0-0.9-0.1-1.4-0.1c-1.5,0-3.3,0.6-4.2,1.4l-0.4,0.3L57,20.9c-3.4-1.5-6.8-1.6-9.5-0.4c-4.7,2.1-6.5,7.4-4.5,12.8l0.3,0.7
				L43,34.6c-0.5,0.7-1.3,2.2-1.6,3c-0.8,2.2-0.7,4.2,0.2,6.4c0.8,2,2,3.6,4.1,5.4C48.1,51.6,51.2,53.4,54.8,54.8z"/>
		</g>
		<g id="layer102_1_">
			<path class="st10" d="M54.8,41.9c0.2,0.1,0.3,0,0.5-0.1c0.1-0.1,0.5-0.8,1-1.7c0.8-1.4,0.9-1.6,1.4-2.1c1-1,1.8-1.4,3.3-1.8
				c1.8-0.5,3.3-0.6,6.2-0.2c0.9,0.1,1.7,0.2,1.7,0.2c0.1,0,0.1-0.3,0.2-0.6c0.1-0.3,0.3-1,0.4-1.6c0.5-2,0.6-3.6,0.3-4.7
				c-0.4-1.2-0.9-1.6-1.8-1.7c-1,0-1.6,0.3-2.3,1.5c-0.5,0.7-0.5,0.8-0.9,1.1c-0.6,0.4-1.1,0.4-1.8,0.2c-0.9-0.3-1.4-1-1.3-1.9
				c0.1-0.7,1.1-2.3,1.7-2.8c0.1-0.1-0.1-0.2-2-1.1c-1.3-0.6-2.4-1.1-2.6-1.3c-0.7-0.5-3.7-1.8-4.7-1.9c-3.5-0.7-6.3,0-8.3,2.1
				c-0.7,0.7-1.7,2.5-1.9,3.5c-0.5,1.8-0.4,3.7,0,5.2c0.1,0.3,0.1,0.6,0.2,0.6c-0.1,0.1,0.9,2,1.3,2.6c1.2,1.8,3,3.4,5.2,4.8
				C51.6,40.6,54.1,41.7,54.8,41.9z M46.4,27.1c-0.2-0.5-0.2-1.4,0-2c0.5-1.3,2.1-1.7,3.8-1c0.6,0.2,0.7,0.3,0.7,0.4
				c-0.1,0.1-0.3,0.1-1.1,0.2c-1,0-1.6,0.1-2,0.4c-0.3,0.2-0.6,0.9-0.8,1.6C46.8,27.7,46.6,27.8,46.4,27.1z"/>
			<path class="st10" d="M75.2,36.6c1,0,1.9-0.1,1.9-0.1s-0.1-0.7-0.4-1.4c-1-3.3-1.2-5.2-0.6-7.1c0.1-0.2,0.1-0.3,0.1-0.4
				c0-0.1-0.3,0-0.5,0c-0.3,0-0.9,0-1.3-0.1l-0.8,0l0.2,0.5c0.2,0.8,0.4,1.8,0.4,2.9c0,1.2-0.1,2.3-0.6,4.2
				c-0.2,0.7-0.3,1.4-0.3,1.5C73.2,36.6,74.2,36.6,75.2,36.6z"/>
			<path class="st10" d="M82.3,36.1c1.5-0.2,2.8-0.4,2.8-0.5c0-0.1,0-0.1,0-0.2c-0.1-0.2-0.3-1.8-0.4-2.9c-0.1-2.5-0.6-4-1.5-4.8
				c-0.4-0.4-0.9-0.4-1.6-0.1c-0.7,0.3-1.2,0.7-1.5,1.4C80,29.3,80,29.5,80,30.3c0,1.1,0.2,1.8,0.7,3.5c0.2,0.7,0.5,1.5,0.5,1.8
				c0.1,0.3,0.2,0.5,0.2,0.5C81.4,36.2,81.8,36.2,82.3,36.1z"/>
			<path class="st10" d="M90.9,34.2c1.6-0.6,2.7-0.9,2.6-1c0,0-0.5-0.6-1.1-1.3c-1.1-1.3-1.8-2.2-2.3-3.1c-0.4-0.7-0.9-1.9-1-2.7
				L89,25.4l-0.9,0.3c-0.5,0.2-1,0.3-1,0.3s0.1,0.2,0.2,0.4c0.9,1.3,1.3,2.9,1.5,5.5c0.1,1.4,0.3,2.7,0.4,2.7
				C89.2,34.7,90,34.5,90.9,34.2z"/>
			<path class="st10" d="M98,31.3c2-1,4.1-2.2,6.3-3.8c0.8-0.5,1.7-1.1,2.1-1.3c2.1-1,4.6-1.4,6.9-0.8c1.4,0.3,3.2,1.3,4.1,2
				l0.3,0.3l0.2-0.6c0.7-1.8,0.8-3.8,0-5.5c-0.4-1-0.7-1.5-1.5-2.3c-3-3.5-8.5-4.6-12.6-2.5c-0.7,0.4-1.3,0.8-2.5,1.8
				c-0.5,0.5-1.5,1.2-2,1.6c-0.6,0.4-1,0.7-1,0.7s0.2,0.1,0.4,0.4c0.6,0.5,1.6,1.6,1.7,1.9c0.6,1.3-0.4,2.5-1.9,2.6
				c-0.6,0-1.3-0.4-2.1-1.3c-1.1-1.2-1.8-1.5-2.6-1c-0.4,0.3-0.8,0.9-0.8,1.5c0,0.6,0.7,2.3,1.2,3.1c0.4,0.6,2.9,3.5,3,3.6
				C97.3,31.5,97.7,31.4,98,31.3z M114.8,22.4c0-0.1,0-0.3-0.1-0.7c0.1-1.9-0.3-2.4-2.3-2.7c-0.5-0.1-0.8-0.1-0.8-0.2
				c-0.1-0.2,0.3-0.4,1-0.4c2.2-0.3,3.4,0.9,3.1,2.8c-0.1,0.3-0.2,0.7-0.4,0.9C115.1,22.5,114.9,22.6,114.8,22.4z"/>
		</g>
		<g id="layer103_1_">
			<path class="st11" d="M74.4,44.4c1.2,0.2,2.8-0.1,3.8-0.8c0.9-0.6,1.5-1.3,2-2.4s0.6-1.7,0.6-2.9c0-0.7-0.2-1.9-0.4-2.6
				c-0.1-0.2-0.1-0.4-0.2-0.5c-0.1-0.4-0.5-1.6-0.6-1.7c-0.3-1-0.7-3-0.6-3.7c0.1-1.5,0.9-2.6,2.2-3.1c1.2-0.5,2.2-0.2,3,0.7
				c0.8,0.9,1.2,2.4,1.4,4.9c0.1,2,0.3,3.2,1,4.9c1,2.5,2.3,4.1,4.2,5c1.4,0.7,2.9,0.8,4.5,0.3c1.8-0.6,2.9-1.6,3.4-3.3
				c0.4-1.6,0.1-3.5-0.9-5.4c-0.4-0.7-1.3-2-2.5-3.3c-0.8-0.8-1.5-1.9-1.8-2.2c-0.6-0.8-1.2-2.4-1.3-3.1c-0.1-1.2,0.6-2.3,1.7-2.7
				c1.2-0.4,2.1,0.1,3.5,1.7c0.5,0.6,0.7,0.7,1.2,0.7c0.7,0,1.2-0.6,1.1-1.2c-0.1-0.4-1-1.5-2-2.2c-0.5-0.4-0.8-0.5-1.5-0.8
				s-0.9-0.3-1.5-0.3c-1.3,0-2.7,0.5-3.5,1.3c-0.9,0.9-1.5,2.2-1.4,3.5c0,1.1,0.7,3.1,1.6,4.3c0.3,0.4,1.1,1.5,1.9,2.3
				c1.7,2,2.3,2.9,2.8,4.1c0.7,1.9,0.6,3.4-0.5,4.3c-0.8,0.6-2.2,0.9-3.3,0.5c-1.6-0.6-3.2-2.6-3.9-5.2c-0.2-1-0.4-2-0.5-3.4
				c-0.1-1.7-0.3-2.7-0.7-3.8s-0.7-1.5-1.3-2.2c-2-2.4-5.9-2.2-8.1,0.4c-1.2,1.5-1.6,3.8-0.9,6.4c0.2,0.5,0.9,3,1,3.1
				c0.1,0.3,0.4,1.9,0.4,2.5c0.1,2.4-1.5,4.2-3.5,3.9c-1.2-0.2-2.4-1.7-2.7-3c-0.2-1.1-0.1-2.1,0.5-4.5c0.4-2,0.6-2.9,0.6-4.2
				c0-2.9-1.2-4.8-3.4-5.5c-1.7-0.6-3.8-0.3-5.2,0.7c-0.8,0.6-1.1,0.9-1.7,1.9c-0.5,0.9-0.5,1.2-0.2,1.6c0.2,0.4,0.6,0.5,1,0.4
				c0.5,0,0.7-0.2,1.2-1.1c0.6-0.9,1-1.3,1.8-1.6c0.8-0.3,1.6-0.3,2.4,0c0.6,0.3,0.9,0.5,1.2,1.2c0.5,0.8,0.6,2.5,0.4,3.8
				c-0.1,0.4-0.3,1.5-0.5,2.4c-0.6,2.5-0.7,3.7-0.5,5C70.2,41.9,72.2,44,74.4,44.4z"/>
		</g>
		<g id="layer104_1_">
			<path class="st12" d="M56.5,54.2c9.7,3.6,22.3,4.7,33.2,2.8c11.2-2,20.1-6.7,26.3-13.9c2.4-2.9,3.4-4.5,3.7-6.8
				c0.5-3.3-1.1-6.8-3.8-8.7c-0.8-0.5-2.5-1.2-3.4-1.4c-1.5-0.2-2.5-0.1-3.8,0.2c-1.1,0.3-2,0.8-3.6,1.9c-2.4,1.7-4.6,2.9-6.4,3.8
				c-0.4,0.2-0.7,0.3-0.7,0.3s0.2,0.4,0.4,0.9c1.8,3,1.8,6.3,0,8.3c-0.7,0.8-1.6,1.4-2.8,1.7c-0.6,0.2-1.3,0.3-1.6,0.4
				c-3.5,0.3-6.4-1.9-8.2-5.9l-0.5-1.2l-1.1,0.2c-0.6,0.1-1.5,0.2-1.9,0.3l-0.9,0.1l0,0.3c0.1,0.8,0.1,1.1,0,1.8
				c-0.3,3.3-3,5.9-6.2,5.9c-1,0-1.5-0.2-2.4-0.6c-1.6-0.7-3-2.2-3.6-3.8c-0.3-0.9-0.5-2.3-0.5-3c0-0.3,0-0.5-0.1-0.5
				s-0.4-0.1-0.7-0.1c-0.3,0-1-0.1-1.5-0.2c-3.9-0.5-6.5,0.1-8.2,1.8c-0.3,0.3-0.6,0.8-1.2,1.9c-0.6,1.1-0.9,1.6-1.3,2
				c-1.4,1.6-3.5,2.1-5.5,1.2c-0.5-0.2-0.5-0.4-0.4-0.8c0.2-0.3,0.5-0.4,0.8-0.2c0.4,0.2,1.2,0.3,1.6,0.3c0.4,0,1.2-0.2,1.4-0.4
				c0.1-0.1,0.1-0.2-1.4-0.8c-2.4-1-3.9-1.9-5.5-3.4c-0.9-0.8-1.8-1.8-2.4-2.7c-0.3-0.4-0.5-0.7-0.6-0.7c0,0-0.3,0.5-0.6,1.1
				c-1.4,2.6-1.6,4.8-0.6,7.2c1.2,3.3,4.6,6.3,9.9,8.9C54.3,53.4,54.6,53.5,56.5,54.2z"/>
			<path class="st12" d="M74.2,43.5c0.8,0.1,1.1,0.1,2,0c1.2-0.2,2.6-1,3.5-1.8c0.2-0.2,0.5-0.5,0.6-0.5c0.2-0.1,0.2-0.1,0.4-1.4
				c0.1-0.8,0.1-2-0.1-3c-0.1-0.4-0.4-1.6-0.7-2.6c-0.5-1.6-0.7-2.5-1-4.5c-0.4-2.2,1.4-3.8,3.8-3.6c0.6,0.1,1.6,0.5,2,0.9
				c0.6,0.6,1,1.5,1,2.5c0,1.1,0,1.3,0.2,4.1c0,0.6,0.4,2.1,0.6,3.1c0.2,0.8,1.1,2.3,1.7,3.3c1.1,1.4,1.8,2,3.2,2.3
				c2.3,0.5,4.4-0.1,6-1.7c0.6-0.5,1.3-1.7,1.4-2.3c0.3-1.3-0.6-4-2.2-6.1c-0.5-0.7-0.7-0.9-2-2.3c-0.9-1-1.5-1.9-2-3
				c-0.2-0.5-0.4-1-0.6-1.2c-0.5-0.8-0.5-1.5-0.1-2.3c0.3-0.6,0.7-1,1.4-1.2c0.9-0.3,2-0.2,2.6,0.4c0.3,0.3,1.5,1.5,1.8,1.8
				c0.4,0.5,1.1,0.6,1.5,0.3c0.4-0.3,0.5-0.7,0.5-1c-0.1-0.2-0.2-0.4-0.4-0.7c-0.2-0.2-0.3-0.4-0.3-0.5c0-0.1-0.9-0.9-1.5-1.3
				c-0.4-0.3-0.8-0.5-1.3-0.7c-0.9-0.3-1.9-0.4-3-0.1c-1.5,0.4-2.6,1.4-3.1,2.8c-0.3,0.8-0.4,1.4-0.2,2.2c0.1,0.7,0.8,2.8,0.9,2.8
				c0.1,0,0.2,0.3,0.4,0.6c0.3,0.5,0.8,1.2,1.3,1.8c0,0.1,0.6,0.7,1.2,1.3c1.4,1.6,1.9,2.3,2.4,3.7c0.7,1.7,0.7,2.7,0.1,3.8
				c-0.2,0.4-0.4,0.6-0.7,0.8c-1.2,0.9-3,0.8-4.2-0.1c-1.8-1.3-3.2-4.4-3.4-7.3c-0.2-2.6-0.3-3.7-1-5.1c-0.5-1.2-1-1.9-2-2.5
				c-2.2-1.4-5.3-0.8-7.1,1.3c-0.6,0.7-1,1.5-1.1,2.4c-0.1,0.9-0.1,2.5,0.1,3.4c0.1,0.5,0.2,1,0.2,1c0,0.1,0.1,0.3,0.2,0.5
				c0.1,0.2,0.1,0.4,0.1,0.4c0,0.1,0.1,0.3,0.2,0.5c0.2,0.2,0.2,0.4,0.2,0.4c0,0.1,0.1,0.3,0.2,0.6c0.5,1.4,0.6,3,0.4,4.1
				c-0.1,0.6-0.6,1.4-1,1.8c-0.3,0.4-1.1,0.7-1.6,0.8c-0.5,0.1-0.5,0-1.3-0.3c-0.7-0.3-0.9-0.4-1.1-0.7c-0.5-0.6-0.8-1.2-1-1.9
				c-0.3-1.2-0.2-2.2,0.5-5c0.6-2.4,0.7-3.8,0.5-5.2c0-0.2-0.1-0.6-0.2-0.9c-0.2-1-1-2.3-2-2.9c-1.8-1.2-4.6-1.1-6.3,0.1
				c-0.8,0.5-1,0.8-1.5,1.7c-0.3,0.5-0.4,0.7-0.4,1.1c-0.1,0.7,0.4,1.3,1.2,1.2c0.4,0,0.7-0.3,1.1-1c0.7-1.3,1.4-2,2.4-2.3
				c0.7-0.2,1.3-0.1,2.1,0.2c1.7,0.8,2.3,2.9,1.5,4.9c-0.1,0.3-0.2,0.6-0.2,0.8s-0.2,1.1-0.4,2c-0.6,2.5-0.8,4-0.4,5.3
				c0.1,0.3,0.1,0.6,0.1,0.8c0.1,0.4,0.5,1.1,1.2,1.6C72,42.7,73.2,43.3,74.2,43.5z"/>
			<path class="st12" d="M75.3,41.6c0.3,0,0.9-0.2,1.2-0.5c0.1-0.1,0.4-0.5,0.6-0.9c0.3-0.6,0.4-0.8,0.3-1.4c0-0.4,0-0.8-0.1-0.9
				l-0.1-0.2l-1.5,0c-0.8,0-1.8,0-2.1,0c-0.8,0-0.8,0-0.7,1c0,0.8,0.3,1.5,0.8,2.1C74.3,41.3,74.8,41.6,75.3,41.6z"/>
			<path class="st12" d="M93.5,40c0.5,0,1.1-0.1,1.5-0.4c0.3-0.2,0.7-0.9,0.8-1.4c0.1-0.7-0.1-1.4-0.4-2.2c-0.3-0.8-0.9-1.8-1-1.9
				c-0.1,0-0.3,0.1-0.7,0.2c-0.3,0.1-1.4,0.5-2.3,0.8l-1.8,0.6l0.4,0.9C90.7,38.7,92.1,40,93.5,40z"/>
			<path class="st12" d="M64.4,24.6c0.3,0,0.5,0,1-0.2c1.7-0.6,3.6-0.6,5.2,0.1c0.8,0.3,1.3,0.7,2,1.4l0.4,0.4l1.1,0.1
				c0.5,0,1.4,0,1.9,0.1l0.9,0l0.4-0.5c1.7-1.8,3.8-2.6,6.1-2.3c0.7,0.1,0.9,0.1,1.6,0.5c0.5,0.2,0.9,0.5,1.1,0.6l0.2,0.2l1.5-0.4
				l1.4-0.4l0.1-0.4c0-0.3,0.2-0.7,0.6-1.4c0.5-0.9,0.5-1,1.1-1.5c1.6-1.4,3.9-1.9,6-1.1l0.7,0.2l1.1-0.8c1.5-1,1.5-1,1.1-1.5
				c-0.3-0.5-0.7-0.8-1.3-1.1c-1.1-0.5-2.4-0.2-4,0.9c-2.3,1.6-2.6,1.8-3.6,2.4c-4.2,2.2-9.3,3.4-15.1,3.5c-2.1,0.1-3.9-0.2-5.6-0.5
				c-1.6-0.4-2.5-0.7-4.4-1.4c-1.8-0.8-2.3-0.9-3.3-0.9c-0.6,0-0.9,0-1.7,0.3c-0.8,0.3-1.6,0.7-1.8,0.9c0,0.1,0.2,0.2,1.2,0.8
				C60.8,23.1,63.9,24.4,64.4,24.6z"/>
		</g>
		<g id="layer105_1_">
			<path class="st13" d="M65.8,51.4c2,0.6,6,1.1,9,1.2c6.8,0.2,14.5-1,21.3-3.4c8.7-3.1,15.6-7.5,19.3-12.5c0.8-1.1,1.9-3.3,2.2-4.3
				c0.1-0.4,0.2-0.8,0.2-0.9c0.1-0.1,0.1-0.2,0.1-0.1c0.2,0.1,1.1,1.5,1.4,2.3l0.4,0.8l0-0.4c-0.1-1.7-1.2-4-2.6-5.4
				c-0.9-0.9-1.6-1.3-3-1.8c-1.9-0.7-3.6-0.8-5.5-0.3c-1.1,0.3-2,0.8-3.6,1.9c-2.4,1.7-4.6,2.9-6.4,3.8c-0.5,0.2-0.7,0.3-0.6,0.5
				c0,0.1,0.2,0.4,0.4,0.8c0.8,1.2,1.4,3.2,1.4,4.7c0,0.4,0,0.9,0,1.1c0,0.2,0,0.6,0,1c0.1,3.1-3,5.5-6.6,5c-0.8-0.1-2-0.7-2.6-1.1
				c-0.3-0.2-0.7-0.6-0.9-1c-0.3-0.3-0.7-0.7-0.8-0.9c-0.3-0.3-0.4-0.4-1.2-1.1c-0.4-0.5-1.3-1.7-1.5-2.2c-0.1-0.2-0.1-0.4-0.1-0.4
				s-0.2-0.4-0.4-0.9l-0.4-0.9l-1.1,0.2c-0.6,0.1-1.5,0.2-1.9,0.3l-0.9,0.1l0.1,0.4c0.1,1,0,3.9-0.1,4.7c-0.2,0.8-0.8,2-1.3,2.6
				c-0.9,1-2.2,1.6-3.6,1.5c-0.7,0-0.9,0-1.6-0.3c-0.7-0.2-0.9-0.4-1.3-0.7c-0.3-0.3-0.7-0.6-1.1-0.7c-1.3-0.6-2.5-1.9-3.1-3.5
				c-0.2-0.5-0.4-1.1-0.4-1.4c-0.1-0.5-0.1-2.1,0-2.3c0.1-0.1-0.1-0.2-0.8-0.3c-0.3,0-1-0.1-1.5-0.2c-3.6-0.5-6.1,0-7.7,1.5
				c-0.6,0.5-1.3,1.5-1.5,2.2c-1.1,3.3,0.3,6.4,3.7,8.6C62.1,50,64.4,51,65.8,51.4z M71.6,50.1c-0.2-0.6,0.5-1.1,1.1-0.9
				c0.4,0.2,0.5,0.6,0.4,0.9c-0.2,0.4-0.6,0.5-1,0.3C71.8,50.4,71.7,50.2,71.6,50.1z M64.2,45.5c0-0.2,0-0.3,0.2-0.4
				c0.3-0.1,0.6,0,0.7,0.3c0,0.2,0,0.3-0.2,0.4C64.6,46,64.2,45.8,64.2,45.5z M69.7,45.4c-0.1-0.2,0.1-0.5,0.3-0.4
				c0.3,0,0.3,0.3,0.1,0.5C70,45.7,69.9,45.6,69.7,45.4z M74.1,47.1c0-0.1,0.1-0.1,0.3-0.1c0.2,0.1,0.2,0.1,0.1,0.2
				c-0.1,0.2-0.1,0.1-0.3,0.1C74.1,47.3,74,47.2,74.1,47.1z M83.2,45.4c-0.1-0.2,0-0.6,0.2-0.6c0.3-0.1,0.6,0.2,0.6,0.4
				c0,0.2-0.1,0.2-0.3,0.3C83.4,45.6,83.3,45.5,83.2,45.4z M95.3,47.1c0.1-0.3,0.4-0.3,0.5,0c0.1,0.2,0,0.3-0.1,0.3
				C95.5,47.5,95.3,47.4,95.3,47.1z M103.3,42.6c0-0.2,0-0.3,0.2-0.4c0.1-0.1,0.3-0.1,0.5-0.1c0.1,0,0.2,0.1,0.2,0.4
				c0,0.2,0,0.3-0.2,0.4c-0.1,0.1-0.3,0.1-0.5,0.1C103.5,42.9,103.4,42.8,103.3,42.6z M106.9,38.3c0-0.1-0.1-0.2-0.1-0.4
				c0-0.9,1.3-1.1,1.6-0.3C108.6,38.4,107.6,38.9,106.9,38.3z M102.4,35.5c-0.1-0.3,0.2-0.6,0.5-0.5c0.3,0.1,0.3,0.5-0.1,0.7
				c-0.1,0-0.2,0-0.3,0C102.5,35.7,102.4,35.6,102.4,35.5z M108,33.5c0-0.1,0.1-0.2,0.2-0.3c0.2-0.2,0.6,0,0.6,0.2
				c0,0.3,0,0.3-0.2,0.3C108.3,33.9,108.1,33.7,108,33.5z"/>
			<path class="st14" d="M74.2,43.5c0.8,0.1,1.1,0.1,2,0c1.2-0.2,2.6-1,3.5-1.8c0.2-0.2,0.5-0.5,0.6-0.5c0.2-0.1,0.2-0.1,0.4-1.4
				c0.1-0.8,0.1-2-0.1-3c-0.1-0.4-0.4-1.6-0.7-2.6c-0.5-1.6-0.7-2.5-1-4.5c-0.4-2.2,1.4-3.8,3.8-3.6c0.6,0.1,1.6,0.5,2,0.9
				c0.6,0.6,1,1.5,1,2.5c0,1.1,0,1.3,0.2,4.1c0,0.6,0.4,2.1,0.6,3.1c0.2,0.8,1.1,2.3,1.7,3.3c1.1,1.4,1.8,2,3.2,2.3
				c2.3,0.5,4.4-0.1,6-1.7c0.6-0.5,1.3-1.7,1.4-2.3c0.3-1.3-0.6-4-2.2-6.1c-0.5-0.7-0.7-0.9-2-2.3c-0.9-1-1.5-1.9-2-3
				c-0.2-0.5-0.4-1-0.6-1.2c-0.5-0.8-0.5-1.5-0.1-2.3c0.3-0.6,0.7-1,1.4-1.2c0.9-0.3,2-0.2,2.6,0.4c0.3,0.3,1.5,1.5,1.8,1.8
				c0.4,0.5,1.1,0.6,1.5,0.3c0.4-0.3,0.5-0.7,0.5-1c-0.1-0.2-0.3-0.5-0.6-0.8c-0.3-0.3-0.5-0.6-0.6-0.7c0-0.1-0.4-0.4-0.8-0.6
				c-0.6-0.4-0.8-0.6-1.5-0.8c-0.7-0.3-0.9-0.3-1.5-0.3c-0.4,0-1,0.1-1.4,0.2c-1.5,0.4-2.6,1.4-3.1,2.8c-0.3,0.8-0.3,1.3-0.2,2.2
				c0.1,0.6,0.8,2.8,0.9,2.8c0.1,0,0.2,0.3,0.4,0.6c0.3,0.5,0.8,1.2,1.3,1.8c0,0.1,0.6,0.7,1.2,1.3c1.4,1.6,1.9,2.3,2.4,3.7
				c0.7,1.7,0.7,2.7,0.1,3.8c-0.2,0.4-0.4,0.6-0.7,0.8c-0.9,0.6-2.1,0.7-3.2,0.4c-1.4-0.5-2.7-2-3.6-4.1c-0.6-1.5-0.8-2.5-0.9-4.3
				c-0.1-1.9-0.3-3-0.8-4.3c-0.6-1.4-1.1-2.1-2.1-2.7c-2.2-1.4-5.3-0.8-7.1,1.3c-0.4,0.6-1,1.6-1,2c0,0.1-0.1,0.4-0.1,0.7
				c-0.1,0.8-0.1,2.1,0.1,3.1c0.1,0.5,0.2,1,0.2,1s0.1,0.3,0.2,0.5c0.1,0.2,0.1,0.4,0.1,0.4s0.1,0.3,0.2,0.5c0.1,0,0.1,0.3,0.1,0.3
				s0.1,0.3,0.2,0.6c0.5,1.4,0.6,3,0.4,4.1c-0.1,0.6-0.6,1.4-1,1.8c-0.3,0.4-1.1,0.7-1.6,0.8c-0.5,0.1-0.5,0-1.3-0.3
				c-0.7-0.3-0.9-0.4-1.1-0.7c-0.5-0.6-0.8-1.2-1-1.9c-0.3-1.2-0.2-2.2,0.5-5c0.6-2.4,0.7-3.8,0.5-5.2c0-0.2-0.1-0.6-0.2-0.9
				c-0.2-1-1-2.3-2-2.9c-1.8-1.2-4.6-1.1-6.3,0.1c-0.8,0.5-1,0.8-1.5,1.7c-0.3,0.5-0.4,0.7-0.4,1.1c-0.1,0.7,0.4,1.3,1.2,1.2
				c0.4,0,0.7-0.3,1.1-0.9c0.7-1.3,1.4-2,2.4-2.3c0.7-0.2,1.3-0.1,2.1,0.2c1.7,0.8,2.3,2.9,1.5,4.9c-0.1,0.3-0.2,0.6-0.2,0.8
				c0,0.2-0.2,1.1-0.4,2c-0.6,2.5-0.8,4-0.4,5.3c0.1,0.3,0.1,0.6,0.1,0.8c0.1,0.4,0.5,1.1,1.2,1.6C72,42.7,73.2,43.3,74.2,43.5z"/>
			<path class="st13" d="M75.5,41.6c1.2-0.1,2.3-2.2,1.9-3.7l-0.1-0.2l-1.5,0c-0.8,0-1.8,0-2.1,0c-0.6,0-0.7,0-0.7,0.2
				c-0.2,0.7,0.3,2.2,0.9,2.9C74.3,41.2,75.1,41.6,75.5,41.6z"/>
			<path class="st13" d="M93,40c0.7,0.1,1.6-0.1,2.1-0.6c0.6-0.7,0.6-2.1,0.1-3.6c-0.2-0.6-0.8-1.6-1-1.7c-0.1,0-0.3,0.1-0.7,0.2
				c-0.3,0.1-1.4,0.5-2.3,0.8l-1.8,0.6l0.2,0.6C90.5,38.3,91.8,39.7,93,40z"/>
			<path class="st13" d="M59.9,22.2l0.4-0.2l1.5,0.7c0.9,0.4,2.1,0.9,2.7,1.1l1.1,0.4l0.7-0.1c0.9-0.2,2.2-0.2,3,0
				c0.8,0.1,2.1,0.8,2.5,1.2c0.3,0.3,0.4,0.3,0.7,0.3c0.7,0.1,3.1,0.2,3.9,0.1c0.8,0,0.8,0,1.2-0.4c1.2-1.1,3.3-1.7,4.9-1.6
				c0.3,0,0.7,0,0.8,0c0.1,0,0.6,0.1,1.1,0.3l0.9,0.4l1.9-0.5l1.8-0.6l0.5-1c0.3-0.6,0.6-1,0.7-1c0.1,0,0.3-0.2,0.6-0.4
				c0.7-0.6,1.9-1.2,2.7-1.4c0.8-0.1,1.7-0.2,2.4,0l0.6,0.1l1.3-0.9c1.4-1,1.3-0.9,1.8-0.6c0.3,0.2,0.3-0.1,0-0.4
				c-0.3-0.5-0.7-0.8-1.3-1.1c-1.1-0.5-2.4-0.2-4,0.9c-2.3,1.6-2.6,1.8-3.6,2.4c-4.2,2.2-9.3,3.4-15.1,3.5c-2.1,0.1-3.9-0.2-5.6-0.5
				c-1.6-0.4-2.5-0.7-4.4-1.4c-1.8-0.8-2.3-0.9-3.3-0.9c-0.6,0-0.9,0-1.7,0.3c-0.8,0.3-1.6,0.7-1.8,0.9c0,0.1,0.1,0.2,0.3,0.3
				C59.6,22.3,59.6,22.3,59.9,22.2z"/>
		</g>
	</g>
	<g>
		<path class="st15" d="M55.2,59.8H37.3H26c0-3.5,2.8-6.3,6.3-6.3h23L55.2,59.8L55.2,59.8z"/>
		<polygon class="st16" points="108.1,112.3 10,112.3 4.1,103.6 4.1,95.8 108.1,95.8 		"/>
		<g>
			<ellipse class="st17" cx="93.2" cy="111.9" rx="9.2" ry="9.2"/>
			<ellipse class="st18" cx="93.2" cy="111.9" rx="6.4" ry="6.4"/>
			<ellipse class="st19" cx="93.2" cy="111.9" rx="5.6" ry="5.6"/>
			<path class="st20" d="M96.8,107.5c0.6,0.9,0.9,1.9,0.9,3c0,3.1-2.5,5.6-5.6,5.6c-1.4,0-2.6-0.5-3.6-1.3c1,1.6,2.7,2.6,4.7,2.6
				c3.1,0,5.6-2.5,5.6-5.6C98.8,110.1,98,108.6,96.8,107.5z"/>
			<circle class="st21" cx="93.2" cy="111.9" r="1.1"/>
			<path class="st22" d="M93.8,111c0.1,0.1,0.1,0.3,0.1,0.4c0,0.6-0.5,1.1-1.1,1.1c-0.2,0-0.5-0.1-0.6-0.2c0.2,0.4,0.6,0.7,1,0.7
				c0.6,0,1.1-0.5,1.1-1.1C94.3,111.5,94.1,111.2,93.8,111z"/>
		</g>
		<path class="st23" d="M19.2,66.2l-8.6,20.4l-8,6v16.2h4.6c1.3-4.4,5.4-7.7,10.3-7.7c5.8,0,10.5,4.6,10.8,10.3l2.2,2.2h52
			c-0.1-0.6-0.1-1.1-0.1-1.7c0-6,4.8-10.8,10.8-10.8s10.8,4.8,10.8,10.8c0,0.6,0,1.2-0.1,1.7h20.7V66.2H19.2z"/>
		<path class="st24" d="M124.4,105h-23c0.7,0.9,1.3,2,1.8,3.1h21.2C124.4,108.1,124.4,105,124.4,105z"/>
		<path class="st24" d="M2.6,108.1h4.8c0.4-1.1,1-2.2,1.8-3.1H2.6V108.1z"/>
		<path class="st24" d="M25.9,105c0.7,0.9,1.3,2,1.8,3.1H83c0.4-1.1,1-2.2,1.8-3.1H25.9z"/>
		<path class="st15" d="M7.6,107.5h-5v1.1h4.6C7.3,108.3,7.5,107.9,7.6,107.5z"/>
		<path class="st15" d="M27.4,107.5c0.5,1.2,0.8,2.5,0.9,3.8l2.2,2.2h52c-0.1-0.6-0.1-1.1-0.1-1.7c0-1.5,0.3-2.9,0.9-4.2H27.4V107.5
			z"/>
		<path class="st15" d="M103,107.5c0.6,1.3,0.9,2.7,0.9,4.2c0,0.6,0,1.2-0.1,1.7h20.7v-6H103V107.5z"/>
		<path class="st25" d="M30.2,110.5l1.1,1.1h16.2v-42c0-1.6-1.3-2.9-2.9-2.9H28.7c-1.6,0-2.9,1.3-2.9,2.9V102
			C28.2,104.1,29.9,107.1,30.2,110.5z"/>
		<path class="st26" d="M47.5,108.1V105H28.3c0.6,1,1.1,2,1.4,3.1H47.5z"/>
		<path class="st27" d="M22.9,67.9h-1c-0.6,0-1.1,0.3-1.3,0.9l-4.8,13.1c-0.3,0.9,0.3,1.8,1.3,1.8h5.8c0.7,0,1.3-0.6,1.3-1.3V69.3
			C24.2,68.5,23.6,67.9,22.9,67.9z"/>
		<path class="st27" d="M27.3,70.1v11.5c0,1.2,0.9,2.1,2.1,2.1h14.2c1.2,0,2.1-0.9,2.1-2.1V70.1c0-1.2-0.9-2.1-2.1-2.1H29.4
			C28.3,67.9,27.3,68.9,27.3,70.1z"/>
		<g>
			<path class="st19" d="M5.2,111.5H3.9c-2.2,0-3.9-1.7-3.9-3.9l0,0c0-2.2,1.7-3.9,3.9-3.9h1.3V111.5z"/>
			<path class="st20" d="M0,106.2c0,0.1,0,0.2,0,0.3v2.3c0,1.5,1.2,2.8,2.8,2.8h2.4v-2.8H2.8C1.3,108.8,0.1,107.7,0,106.2z"/>
		</g>
		<g>
			<path class="st19" d="M122.8,114.9h1.3c2.2,0,3.9-1.7,3.9-3.9l0,0c0-2.2-1.7-3.9-3.9-3.9h-1.3
				C122.8,107.1,122.8,114.9,122.8,114.9z"/>
			<path class="st20" d="M128,109.6c0,0.1,0,0.2,0,0.3v2.3c0,1.5-1.2,2.8-2.8,2.8h-2.4v-2.8h2.4C126.7,112.1,127.9,111,128,109.6z"
				/>
		</g>
		<path class="st28" d="M122.3,66.3H21c-2,0-3.7-1.7-3.7-3.7v-0.1c0-2,1.7-3.7,3.7-3.7h101.3c2,0,3.7,1.7,3.7,3.7v0.1
			C126,64.6,124.4,66.3,122.3,66.3z"/>
		<path class="st15" d="M124.2,63.2H19.1c-1,0-1.8-0.8-1.8-1.8v3.1c0,1,0.8,1.8,1.8,1.8h105.2c1,0,1.8-0.8,1.8-1.8v-3.1
			C126,62.4,125.2,63.2,124.2,63.2z"/>
		<g>
			<ellipse class="st17" cx="17.3" cy="111.9" rx="9.2" ry="9.2"/>
			<ellipse class="st18" cx="17.3" cy="111.9" rx="6.4" ry="6.4"/>
			<ellipse class="st19" cx="17.3" cy="111.9" rx="5.6" ry="5.6"/>
			<path class="st20" d="M20.9,107.5c0.6,0.9,0.9,1.9,0.9,3c0,3.1-2.5,5.6-5.6,5.6c-1.4,0-2.6-0.5-3.6-1.3c1,1.6,2.7,2.6,4.7,2.6
				c3.1,0,5.6-2.5,5.6-5.6C23,110.1,22.2,108.6,20.9,107.5z"/>
			<circle class="st21" cx="17.3" cy="111.9" r="1.1"/>
			<path class="st22" d="M18,111c0.1,0.1,0.1,0.3,0.1,0.4c0,0.6-0.5,1.1-1.1,1.1c-0.2,0-0.5-0.1-0.6-0.2c0.2,0.4,0.6,0.7,1,0.7
				c0.6,0,1.1-0.5,1.1-1.1C18.4,111.5,18.2,111.2,18,111z"/>
		</g>
		<path class="st29" d="M6.6,98.1c0,2.1-0.6,3.9-1.4,3.9s-1.4-1.7-1.4-3.9s0.6-3.9,1.4-3.9S6.6,96,6.6,98.1z"/>
		<path class="st30" d="M4.5,98.1c0-1.8,0.4-3.3,1-3.8c-0.1-0.1-0.2-0.1-0.3-0.1c-0.8,0-1.4,1.7-1.4,3.9s0.6,3.9,1.4,3.9
			c0.1,0,0.2,0,0.3-0.1C5,101.5,4.5,100,4.5,98.1z"/>
		<path class="st23" d="M29.6,107.5c0.3,0.9,0.5,1.9,0.6,2.9l1.1,1.1h16.2v-4H29.6z"/>
		<path class="st31" d="M124.4,103.1L124.4,103.1c-2.5,0-4.6-2-4.6-4.6v-0.8c0-2.5,2-4.6,4.6-4.6l0,0V103.1z"/>
		<path class="st32" d="M120.7,100.6v-4.9c0-1.4,1.1-2.5,2.5-2.5h-0.8c-1.4,0-2.5,1.1-2.5,2.5v4.9c0,1.4,1.1,2.5,2.5,2.5h0.8
			C121.8,103.1,120.7,102,120.7,100.6z"/>
		<path class="st23" d="M45.5,89h-3.7c-0.4,0-0.7-0.3-0.7-0.7l0,0c0-0.4,0.3-0.7,0.7-0.7h3.7c0.4,0,0.7,0.3,0.7,0.7l0,0
			C46.2,88.7,45.9,89,45.5,89z"/>
		<rect x="56" y="67.8" class="st33" width="54.3" height="24.4"/>
		<polygon class="st34" points="123.3,54.1 43.2,54.1 56,67.8 110.4,67.8 		"/>
		<rect x="56.1" y="73.4" class="st35" width="21.6" height="18.9"/>
		<path class="st36" d="M59.7,87.5L59.7,87.5c-0.7,0-1.3-0.6-1.3-1.3v-5.7c0-0.7,0.6-1.3,1.3-1.3l0,0c0.7,0,1.3,0.6,1.3,1.3v5.7
			C60.9,87,60.4,87.5,59.7,87.5z"/>
		<rect x="90.4" y="73.6" class="st34" width="20" height="1.3"/>
		<rect x="90.4" y="80" class="st34" width="20" height="1.3"/>
		<rect x="90.4" y="86.5" class="st37" width="20" height="1.3"/>
		<rect x="83.9" y="83.5" class="st27" width="26.5" height="8.7"/>
		<rect x="83.9" y="89.3" class="st38" width="26.5" height="3"/>
		<g class="st39">
			<polygon class="st40" points="95.2,83.5 89.9,83.5 98.6,92.2 103.9,92.2 			"/>
			<polygon class="st40" points="98.4,83.5 96.3,83.5 105.1,92.2 107.1,92.2 			"/>
		</g>
		<path class="st41" d="M76.3,85.4l-0.1-2h-0.8l-0.1,2l0,0c-0.5,0-0.8,0.4-0.8,0.8v5.1h2.8v-5.1C77.1,85.8,76.8,85.4,76.3,85.4
			L76.3,85.4z"/>
		<path class="st42" d="M80,85.4l-0.1-2H79l-0.1,2l0,0c-0.5,0-0.8,0.4-0.8,0.8v5.1h2.8v-5.1C80.8,85.8,80.4,85.4,80,85.4L80,85.4z"
			/>
		<rect x="51.8" y="91.3" class="st34" width="62.8" height="2.5"/>
		<rect x="43.2" y="52.5" class="st43" width="80.1" height="1.7"/>
		<rect x="112.2" y="71.9" class="st44" width="10.4" height="16.6"/>
		<rect x="113.1" y="73.1" class="st45" width="8.6" height="1.1"/>
		<path class="st45" d="M121.4,76.4h-8c-0.2,0-0.3-0.1-0.3-0.3l0,0c0-0.2,0.1-0.3,0.3-0.3h8c0.2,0,0.3,0.1,0.3,0.3l0,0
			C121.7,76.3,121.6,76.4,121.4,76.4z"/>
		<path class="st45" d="M121.4,77.8h-8c-0.2,0-0.3-0.1-0.3-0.3l0,0c0-0.2,0.1-0.3,0.3-0.3h8c0.2,0,0.3,0.1,0.3,0.3l0,0
			C121.7,77.7,121.6,77.8,121.4,77.8z"/>
		<path class="st45" d="M121.4,79.2h-8c-0.2,0-0.3-0.1-0.3-0.3l0,0c0-0.2,0.1-0.3,0.3-0.3h8c0.2,0,0.3,0.1,0.3,0.3l0,0
			C121.7,79.1,121.6,79.2,121.4,79.2z"/>
		<path class="st45" d="M121.4,80.6h-8c-0.2,0-0.3-0.1-0.3-0.3l0,0c0-0.2,0.1-0.3,0.3-0.3h8c0.2,0,0.3,0.1,0.3,0.3l0,0
			C121.7,80.5,121.6,80.6,121.4,80.6z"/>
		<path class="st45" d="M121.4,82h-8c-0.2,0-0.3-0.1-0.3-0.3l0,0c0-0.2,0.1-0.3,0.3-0.3h8c0.2,0,0.3,0.1,0.3,0.3l0,0
			C121.7,81.9,121.6,82,121.4,82z"/>
		<path class="st45" d="M121.4,84.4h-8c-0.2,0-0.3-0.1-0.3-0.3l0,0c0-0.2,0.1-0.3,0.3-0.3h8c0.2,0,0.3,0.1,0.3,0.3l0,0
			C121.7,84.2,121.6,84.4,121.4,84.4z"/>
		<path class="st45" d="M121.4,85.7h-8c-0.2,0-0.3-0.1-0.3-0.3l0,0c0-0.2,0.1-0.3,0.3-0.3h8c0.2,0,0.3,0.1,0.3,0.3l0,0
			C121.7,85.5,121.6,85.7,121.4,85.7z"/>
		<path class="st45" d="M121.4,87h-8c-0.2,0-0.3-0.1-0.3-0.3l0,0c0-0.2,0.1-0.3,0.3-0.3h8c0.2,0,0.3,0.1,0.3,0.3l0,0
			C121.7,86.9,121.6,87,121.4,87z"/>
		<rect x="55.9" y="95" class="st46" width="22.1" height="9.2"/>
		<path class="st34" d="M71.4,97.4h-9.8c-0.2,0-0.4-0.2-0.4-0.4l0,0c0-0.2,0.2-0.4,0.4-0.4h9.8c0.2,0,0.4,0.2,0.4,0.4l0,0
			C71.8,97.2,71.7,97.4,71.4,97.4z"/>
		<path class="st34" d="M71.4,99.2h-9.8c-0.2,0-0.4-0.2-0.4-0.4l0,0c0-0.2,0.2-0.4,0.4-0.4h9.8c0.2,0,0.4,0.2,0.4,0.4l0,0
			C71.8,99.1,71.7,99.2,71.4,99.2z"/>
		<path class="st34" d="M71.4,101.1h-9.8c-0.2,0-0.4-0.2-0.4-0.4l0,0c0-0.2,0.2-0.4,0.4-0.4h9.8c0.2,0,0.4,0.2,0.4,0.4l0,0
			C71.8,100.9,71.7,101.1,71.4,101.1z"/>
		<path class="st34" d="M71.4,103h-9.8c-0.2,0-0.4-0.2-0.4-0.4l0,0c0-0.2,0.2-0.4,0.4-0.4h9.8c0.2,0,0.4,0.2,0.4,0.4l0,0
			C71.8,102.8,71.7,103,71.4,103z"/>
		<path class="st34" d="M16.8,85.8L16.8,85.8c-0.4,0-0.8-0.3-0.8-0.8v-6.4c0-0.4,0.3-0.8,0.8-0.8l0,0c0.4,0,0.8,0.3,0.8,0.8V85
			C17.5,85.5,17.2,85.8,16.8,85.8z"/>
		<g class="st39">
			<path class="st47" d="M19.2,72.6l-1.4,3.8l6.3,6.3c0.1-0.1,0.1-0.3,0.1-0.5v-4.7L19.2,72.6z"/>
			<polygon class="st47" points="20.1,70.3 19.6,71.8 24.2,76.5 24.2,74.4 			"/>
		</g>
		<g class="st39">
			<path class="st47" d="M31.5,67.9h-2c-0.9,0-1.6,0.5-1.9,1.3L42,83.7h1.7c0.9,0,1.8-0.6,2-1.5L31.5,67.9z"/>
			<polygon class="st47" points="34.7,67.9 32.6,67.9 45.8,81.1 45.8,79 			"/>
		</g>
	</g>
</g>
<g>
	<path d="M56.6,62.8c-0.1,0-0.2,0-0.4,0c-0.3,0-0.5,0-0.6-0.1s-0.2-0.3-0.2-0.5v-4.9c0.1,0,0.2,0,0.3,0s0.2,0,0.4,0
		c0.3,0,0.5,0,0.6,0.1s0.2,0.3,0.2,0.5v1.6h1.9v-2.2c0.1,0,0.2,0,0.3,0s0.2,0,0.4,0c0.3,0,0.5,0,0.6,0.1s0.2,0.3,0.2,0.5v4.9
		c-0.1,0-0.2,0-0.3,0s-0.2,0-0.4,0c-0.3,0-0.5,0-0.6-0.1s-0.2-0.3-0.2-0.5v-1.6h-1.9v2.2C56.9,62.7,56.8,62.7,56.6,62.8z"/>
	<path d="M66.9,60c0,0.5-0.1,0.9-0.2,1.2c-0.1,0.4-0.3,0.7-0.6,0.9c-0.3,0.2-0.5,0.4-0.9,0.6c-0.3,0.1-0.7,0.2-1.1,0.2
		s-0.8-0.1-1.1-0.2c-0.3-0.1-0.6-0.3-0.9-0.6c-0.2-0.2-0.4-0.5-0.6-0.9c-0.1-0.4-0.2-0.8-0.2-1.2c0-0.5,0.1-0.9,0.2-1.2
		c0.1-0.4,0.3-0.7,0.6-0.9s0.5-0.4,0.9-0.6c0.3-0.1,0.7-0.2,1.1-0.2c0.4,0,0.8,0.1,1.1,0.2c0.3,0.1,0.6,0.3,0.9,0.6s0.5,0.5,0.6,0.9
		C66.8,59.1,66.9,59.5,66.9,60z M65.4,60c0-0.6-0.1-1-0.4-1.3c-0.2-0.3-0.6-0.4-1-0.4s-0.7,0.1-1,0.4s-0.4,0.7-0.4,1.3
		s0.1,1,0.4,1.3s0.6,0.4,1,0.4s0.7-0.1,1-0.4C65.3,61,65.4,60.6,65.4,60z"/>
	<path d="M70.2,58.4v4.3c-0.1,0-0.2,0-0.3,0c-0.1,0-0.2,0-0.4,0c-0.3,0-0.5,0-0.6-0.1s-0.2-0.3-0.2-0.5v-3.7h-1.4
		c0-0.1-0.1-0.1-0.1-0.2c0-0.1,0-0.2,0-0.3c0-0.2,0-0.4,0.1-0.4c0.1-0.1,0.2-0.1,0.4-0.1h3.9c0,0.1,0.1,0.1,0.1,0.2
		c0,0.1,0,0.2,0,0.3c0,0.2,0,0.3-0.1,0.4c-0.1,0.1-0.2,0.1-0.4,0.1H70.2z"/>
	<path d="M77.6,60c0,0.5-0.1,0.9-0.2,1.3c-0.1,0.4-0.3,0.7-0.6,0.9c-0.3,0.2-0.6,0.4-0.9,0.5s-0.8,0.2-1.2,0.2c-0.1,0-0.2,0-0.3,0
		c-0.1,0-0.3,0-0.4,0s-0.3,0-0.4-0.1c-0.1,0-0.3-0.1-0.4-0.1c-0.3-0.1-0.5-0.3-0.5-0.6v-4.3c0-0.1,0-0.2,0.1-0.3s0.2-0.1,0.3-0.2
		c0.2-0.1,0.5-0.1,0.8-0.2c0.3,0,0.5,0,0.8,0c0.5,0,0.9,0.1,1.3,0.2c0.4,0.1,0.7,0.3,1,0.5s0.5,0.5,0.6,0.9
		C77.5,59.1,77.6,59.5,77.6,60z M76.2,60c0-0.6-0.1-1-0.4-1.3s-0.7-0.4-1.1-0.4c-0.1,0-0.2,0-0.3,0c-0.1,0-0.2,0-0.3,0v3.3
		c0.1,0,0.2,0,0.3,0s0.2,0,0.3,0c0.5,0,0.8-0.1,1.1-0.4C76,61,76.2,60.6,76.2,60z"/>
	<path d="M83.9,60c0,0.5-0.1,0.9-0.2,1.2c-0.1,0.4-0.3,0.7-0.6,0.9c-0.3,0.2-0.5,0.4-0.9,0.6s-0.7,0.2-1.1,0.2s-0.8-0.1-1.1-0.2
		s-0.6-0.3-0.9-0.6c-0.2-0.2-0.4-0.5-0.6-0.9c-0.1-0.4-0.2-0.8-0.2-1.2c0-0.5,0.1-0.9,0.2-1.2c0.1-0.4,0.3-0.7,0.6-0.9
		s0.5-0.4,0.9-0.6c0.3-0.1,0.7-0.2,1.1-0.2s0.8,0.1,1.1,0.2c0.3,0.1,0.6,0.3,0.9,0.6s0.5,0.5,0.6,0.9C83.8,59.1,83.9,59.5,83.9,60z
		 M82.5,60c0-0.6-0.1-1-0.4-1.3c-0.2-0.3-0.6-0.4-1-0.4s-0.7,0.1-1,0.4s-0.4,0.7-0.4,1.3s0.1,1,0.4,1.3s0.6,0.4,1,0.4s0.7-0.1,1-0.4
		C82.3,61,82.5,60.6,82.5,60z"/>
	<path d="M89.7,61.9c0,0.2,0,0.3-0.1,0.4s-0.2,0.2-0.3,0.3c-0.1,0-0.2,0.1-0.3,0.1c-0.1,0-0.3,0.1-0.4,0.1s-0.3,0.1-0.5,0.1
		s-0.3,0-0.5,0c-0.4,0-0.8-0.1-1.2-0.2c-0.4-0.1-0.7-0.3-1-0.5s-0.5-0.5-0.6-0.9c-0.2-0.4-0.2-0.8-0.2-1.3s0.1-0.9,0.2-1.3
		c0.2-0.4,0.4-0.7,0.6-0.9c0.3-0.2,0.6-0.4,1-0.5s0.8-0.2,1.2-0.2c0.6,0,1,0.1,1.3,0.3s0.5,0.4,0.5,0.7c0,0.1,0,0.3-0.1,0.4
		c-0.1,0.1-0.2,0.2-0.3,0.2c-0.1-0.1-0.3-0.2-0.6-0.3c-0.2-0.1-0.5-0.1-0.8-0.1s-0.5,0-0.7,0.1s-0.4,0.2-0.5,0.3S86.1,59,86,59.2
		s-0.1,0.5-0.1,0.7c0,0.3,0,0.6,0.1,0.8s0.2,0.4,0.3,0.5c0.1,0.1,0.3,0.3,0.5,0.3c0.2,0.1,0.4,0.1,0.7,0.1c0.1,0,0.3,0,0.4,0
		s0.2-0.1,0.3-0.1v-1h-1c0-0.1-0.1-0.1-0.1-0.2c0-0.1,0-0.2,0-0.3c0-0.2,0-0.3,0.1-0.4c0.1-0.1,0.2-0.1,0.4-0.1h1.5
		c0.2,0,0.3,0,0.4,0.1s0.1,0.2,0.1,0.4L89.7,61.9L89.7,61.9z"/>
	<path d="M90.4,62.1c0-0.2,0.1-0.4,0.2-0.6c0.1-0.2,0.3-0.2,0.6-0.2c0.2,0,0.4,0.1,0.6,0.2c0.1,0.2,0.2,0.3,0.2,0.6
		s-0.1,0.4-0.2,0.6c-0.1,0.2-0.3,0.2-0.6,0.2c-0.3,0-0.4-0.1-0.6-0.2C90.4,62.5,90.4,62.3,90.4,62.1z"/>
	<path d="M96.8,58c0,0.1,0,0.3-0.1,0.4s-0.2,0.2-0.3,0.2c-0.2-0.1-0.3-0.2-0.5-0.3s-0.4-0.1-0.7-0.1c-0.5,0-0.9,0.2-1.1,0.5
		c-0.3,0.3-0.4,0.7-0.4,1.3s0.1,1,0.4,1.3s0.7,0.4,1.2,0.4c0.3,0,0.5,0,0.7-0.1s0.4-0.2,0.5-0.2c0.1,0.1,0.2,0.2,0.2,0.3
		c0.1,0.1,0.1,0.2,0.1,0.4c0,0.1,0,0.2-0.1,0.3s-0.2,0.2-0.3,0.3c-0.1,0.1-0.3,0.1-0.5,0.2C95.7,63,95.4,63,95.1,63
		c-0.4,0-0.8-0.1-1.1-0.2s-0.7-0.3-0.9-0.5s-0.5-0.5-0.6-0.9s-0.2-0.8-0.2-1.3s0.1-0.9,0.2-1.2c0.1-0.4,0.3-0.7,0.6-0.9
		s0.5-0.4,0.9-0.6c0.3-0.1,0.7-0.2,1.1-0.2c0.5,0,1,0.1,1.3,0.3C96.7,57.5,96.8,57.8,96.8,58z"/>
	<path d="M101,61.5h-1.8c-0.1,0.2-0.1,0.4-0.2,0.6s-0.1,0.4-0.1,0.6c-0.1,0-0.2,0-0.2,0.1c-0.1,0-0.2,0-0.3,0c-0.3,0-0.5,0-0.6-0.1
		s-0.2-0.2-0.2-0.4c0-0.1,0-0.2,0-0.2c0-0.1,0.1-0.2,0.1-0.3c0-0.2,0.1-0.4,0.2-0.6s0.2-0.5,0.3-0.8c0.1-0.3,0.2-0.6,0.3-0.9
		s0.2-0.6,0.3-0.8s0.2-0.5,0.3-0.7c0.1-0.2,0.1-0.4,0.2-0.5s0.2-0.1,0.4-0.2c0.2,0,0.4-0.1,0.6-0.1c0.3,0,0.5,0,0.7,0.1
		s0.3,0.2,0.4,0.4c0.1,0.3,0.2,0.7,0.4,1.1c0.1,0.4,0.3,0.9,0.4,1.3c0.1,0.4,0.3,0.9,0.4,1.3c0.1,0.4,0.2,0.8,0.3,1.2
		c-0.1,0.1-0.2,0.1-0.3,0.2s-0.3,0.1-0.5,0.1c-0.3,0-0.4,0-0.5-0.1s-0.2-0.2-0.2-0.4L101,61.5z M100.1,58.4
		c-0.1,0.3-0.2,0.6-0.3,0.9c-0.1,0.3-0.2,0.7-0.3,1.1h1.3c-0.1-0.4-0.2-0.7-0.3-1.1C100.3,59,100.2,58.7,100.1,58.4L100.1,58.4z"/>
	<path d="M107.2,57.3c0,0.1,0.1,0.1,0.1,0.2c0,0.1,0,0.2,0,0.3c0,0.2,0,0.3-0.1,0.4c-0.1,0.1-0.2,0.1-0.4,0.1h-2v1.2h2
		c0,0.1,0.1,0.1,0.1,0.2c0,0.1,0,0.2,0,0.3c0,0.2,0,0.3-0.1,0.4c-0.1,0.1-0.2,0.1-0.4,0.1h-1.7v2c-0.1,0-0.2,0-0.3,0
		c-0.1,0-0.2,0-0.4,0c-0.3,0-0.5,0-0.6-0.1s-0.2-0.3-0.2-0.5V58c0-0.2,0.1-0.4,0.2-0.5s0.3-0.2,0.5-0.2H107.2z"/>
	<path d="M108.5,62.5c-0.1-0.1-0.2-0.3-0.2-0.5v-4c0-0.2,0.1-0.4,0.2-0.5s0.3-0.2,0.5-0.2h3c0,0.1,0.1,0.1,0.1,0.2s0,0.2,0,0.3
		c0,0.2,0,0.3-0.1,0.4s-0.2,0.1-0.4,0.1h-2v1h2.1c0,0.1,0.1,0.1,0.1,0.2c0,0.1,0,0.2,0,0.3c0,0.2,0,0.3-0.1,0.4
		c-0.1,0.1-0.2,0.1-0.4,0.1h-1.7v1.1h2.4c0,0.1,0.1,0.1,0.1,0.2c0,0.1,0,0.2,0,0.3c0,0.2,0,0.3-0.1,0.4c-0.1,0.1-0.2,0.1-0.4,0.1
		H109C108.8,62.7,108.6,62.7,108.5,62.5z"/>
</g>
<g>
	<g id="layer101">
		<path class="st9" d="M40.6,103.4c-1.6,0-3.5-0.5-5.1-1.2c-1.2-0.6-2.3-1.2-3.3-2.1c-0.4-0.3-1.1-1.1-1.4-1.4
			c-1.1-1.3-1.8-2.7-2.1-4.3c-0.1-0.7-0.2-1.3-0.1-1.7c0.1-0.8,0.6-1.6,1.3-2l0.2-0.1v-0.1c0-0.3,0.1-0.6,0.2-0.9
			c0.3-0.8,1.1-1.3,1.9-1.5c0.3,0,0.7,0,1,0c0.8,0.2,1.6,0.8,1.9,1.5c0,0.1,0.1,0.1,0.1,0.2c0,0,0.1,0,0.2-0.1
			c0.4-0.2,0.7-0.1,1,0.1c0.2,0.2,0.3,0.3,0.6,0.9c0.5,1.1,1.5,2.1,3,2.8c0.8,0.4,1.3,0.5,2.3,0.5c0.3,0,0.6,0,0.6,0
			c0.1,0,0.2,0.1,0.3,0.1c0.3,0.1,0.6,0.5,0.7,0.8l0,0.1h0.2c0.9,0,1.6,0.3,2.1,0.9c0.7,1,0.5,2.4-0.5,3.5l-0.1,0.1l0,0.1
			c0,0.2,0,0.6,0,0.9c-0.1,0.6-0.3,1.1-0.8,1.5c-0.4,0.4-0.8,0.7-1.5,0.9C42.4,103.3,41.6,103.4,40.6,103.4z"/>
	</g>
	<g id="layer102">
		<path class="st10" d="M42.1,100.3C42.1,100.3,42.1,100.3,42.1,100.3C42,100.2,42,100,42,99.7c0-0.4,0-0.5-0.1-0.6
			c-0.1-0.3-0.2-0.5-0.5-0.8c-0.3-0.3-0.6-0.5-1.3-0.7c-0.2-0.1-0.4-0.1-0.4-0.1c0,0,0-0.1,0-0.2c0-0.1,0.1-0.3,0.1-0.4
			c0.1-0.5,0.3-0.9,0.5-1.2c0.2-0.2,0.4-0.3,0.6-0.2c0.2,0.1,0.3,0.2,0.3,0.6c0,0.2,0,0.3,0.1,0.3c0.1,0.1,0.2,0.2,0.4,0.2
			c0.2,0,0.4-0.1,0.5-0.3c0.1-0.2,0-0.7,0-0.9c0,0,0,0,0.6,0c0.3,0,0.6,0,0.7,0c0.2,0,1,0,1.2,0c0.8,0.2,1.3,0.6,1.5,1.4
			c0.1,0.2,0.1,0.8,0,1c-0.1,0.5-0.3,0.9-0.6,1.2c-0.1,0.1-0.1,0.1-0.1,0.1c0,0-0.4,0.4-0.6,0.5c-0.5,0.3-1,0.5-1.7,0.6
			C43,100.3,42.3,100.3,42.1,100.3z M45.6,97.6c0.1-0.1,0.2-0.3,0.2-0.5c0-0.4-0.3-0.6-0.7-0.6c-0.1,0-0.2,0-0.2,0
			c0,0,0,0.1,0.2,0.1c0.2,0.1,0.3,0.2,0.4,0.3c0,0.1,0,0.3,0,0.5C45.5,97.7,45.5,97.8,45.6,97.6z"/>
		<path class="st10" d="M38.4,96.9c-0.2-0.1-0.4-0.2-0.4-0.2s0.1-0.1,0.2-0.3c0.6-0.7,0.9-1.1,0.9-1.6c0,0,0-0.1,0-0.1
			c0,0,0.1,0,0.1,0s0.2,0.1,0.3,0.1l0.2,0.1l-0.1,0.1c-0.1,0.2-0.3,0.4-0.4,0.7c-0.1,0.3-0.2,0.6-0.4,1.1c0,0.2-0.1,0.4-0.1,0.4
			C38.8,97.1,38.6,97,38.4,96.9z"/>
		<path class="st10" d="M36.9,96.1c-0.3-0.2-0.5-0.4-0.5-0.4c0,0,0,0,0,0c0,0,0.3-0.4,0.4-0.7c0.3-0.6,0.6-0.9,0.9-1
			c0.1,0,0.2,0,0.4,0.1c0.1,0.1,0.2,0.3,0.1,0.5c0,0.1,0,0.2-0.1,0.4c-0.1,0.3-0.2,0.4-0.6,0.8c-0.1,0.1-0.3,0.3-0.3,0.4
			c0,0.1-0.1,0.1-0.1,0.1C37.1,96.2,37,96.2,36.9,96.1z"/>
		<path class="st10" d="M35.3,94.8c-0.3-0.3-0.5-0.5-0.4-0.5c0,0,0.2-0.1,0.4-0.2c0.4-0.2,0.6-0.3,0.8-0.5c0.2-0.1,0.4-0.4,0.5-0.5
			l0.1-0.1l0.2,0.2c0.1,0.1,0.2,0.2,0.2,0.2s0,0-0.1,0.1c-0.3,0.2-0.6,0.6-0.9,1.2c-0.2,0.3-0.4,0.6-0.4,0.6
			C35.6,95.1,35.5,94.9,35.3,94.8z"/>
		<path class="st10" d="M34.2,93.3c-0.3-0.4-0.6-0.9-0.9-1.5c-0.1-0.2-0.2-0.4-0.3-0.5c-0.3-0.5-0.8-0.8-1.4-0.9
			c-0.3-0.1-0.8,0-1.1,0.1l-0.1,0l0-0.2c0-0.5,0.3-1,0.6-1.3c0.2-0.2,0.3-0.3,0.6-0.4c1-0.5,2.3-0.2,3,0.7c0.1,0.2,0.2,0.3,0.3,0.7
			c0.1,0.2,0.2,0.4,0.2,0.6c0.1,0.1,0.1,0.3,0.1,0.3s-0.1,0-0.1,0c-0.2,0.1-0.5,0.2-0.6,0.3c-0.3,0.2-0.2,0.6,0.1,0.8
			c0.1,0.1,0.3,0,0.6-0.1c0.4-0.2,0.6-0.2,0.7,0c0.1,0.1,0.1,0.3,0,0.4c-0.1,0.1-0.4,0.5-0.6,0.6c-0.1,0.1-1,0.5-1,0.5
			S34.2,93.4,34.2,93.3z M31.6,89.5c0,0,0-0.1,0.1-0.1c0.2-0.5,0.3-0.5,0.8-0.4c0.1,0,0.2,0,0.2,0c0,0,0-0.1-0.2-0.2
			c-0.4-0.3-0.8-0.1-1,0.4c0,0.1,0,0.2,0,0.3C31.5,89.5,31.6,89.6,31.6,89.5z"/>
	</g>
	<g id="layer103">
		<path class="st11" d="M37.7,98.9c-0.3-0.1-0.6-0.3-0.7-0.6c-0.1-0.2-0.2-0.5-0.1-0.8s0.1-0.5,0.2-0.7c0.1-0.2,0.3-0.4,0.4-0.6
			c0,0,0.1-0.1,0.1-0.1c0.1-0.1,0.3-0.3,0.3-0.3c0.2-0.2,0.5-0.6,0.6-0.8c0.1-0.4,0.1-0.7-0.1-1c-0.2-0.2-0.4-0.3-0.7-0.1
			s-0.5,0.4-0.9,1c-0.3,0.5-0.4,0.7-0.8,1c-0.5,0.5-1,0.7-1.5,0.8c-0.4,0-0.7-0.1-1-0.4c-0.3-0.3-0.4-0.7-0.3-1.1
			c0.1-0.4,0.4-0.8,0.8-1.2c0.2-0.1,0.5-0.3,0.9-0.5c0.3-0.1,0.5-0.3,0.6-0.3c0.2-0.1,0.5-0.4,0.6-0.6c0.2-0.3,0.1-0.6,0-0.8
			c-0.2-0.2-0.5-0.2-0.9,0c-0.2,0.1-0.2,0.1-0.3,0c-0.1-0.1-0.2-0.3-0.1-0.4c0.1-0.1,0.4-0.3,0.7-0.3c0.2,0,0.2,0,0.4,0
			c0.2,0,0.2,0,0.4,0.1c0.3,0.1,0.5,0.4,0.6,0.7c0.1,0.3,0.1,0.7-0.1,1c-0.1,0.3-0.5,0.7-0.8,0.9c-0.1,0.1-0.4,0.2-0.7,0.4
			c-0.6,0.3-0.8,0.4-1.1,0.7c-0.4,0.4-0.5,0.7-0.4,1.1c0.1,0.2,0.4,0.4,0.6,0.5c0.4,0,1-0.3,1.4-0.8c0.2-0.2,0.3-0.4,0.5-0.7
			c0.2-0.4,0.4-0.6,0.6-0.8c0.2-0.2,0.3-0.3,0.5-0.4c0.7-0.4,1.5,0.1,1.7,0.9c0.1,0.5-0.1,1.1-0.5,1.6c-0.1,0.1-0.5,0.6-0.6,0.6
			c-0.1,0-0.3,0.4-0.4,0.6c-0.3,0.6-0.1,1.2,0.3,1.3c0.3,0.1,0.7-0.1,0.9-0.4c0.2-0.3,0.3-0.5,0.4-1.1c0.1-0.5,0.2-0.7,0.4-1
			c0.3-0.7,0.8-1,1.3-1c0.4,0,0.9,0.3,1,0.7c0.1,0.2,0.1,0.3,0.1,0.6c0,0.3,0,0.3-0.1,0.4c-0.1,0.1-0.2,0.1-0.3,0
			c-0.1-0.1-0.1-0.1-0.1-0.4c0-0.3-0.1-0.4-0.2-0.6c-0.1-0.1-0.3-0.2-0.5-0.2c-0.2,0-0.2,0-0.4,0.1c-0.2,0.1-0.4,0.5-0.5,0.9
			c0,0.1-0.1,0.4-0.2,0.6c-0.2,0.6-0.3,0.9-0.5,1.2C38.8,98.7,38.2,99,37.7,98.9z"/>
	</g>
	<g id="layer104">
		<path class="st12" d="M40.4,103.1c-2.5-0.1-5.3-1.2-7.4-2.7c-2.2-1.6-3.5-3.7-4-6c-0.2-0.9-0.2-1.4,0-2c0.3-0.8,1-1.5,1.8-1.7
			c0.2,0,0.7,0,0.9,0c0.3,0.1,0.6,0.2,0.8,0.4c0.2,0.2,0.3,0.4,0.6,0.8c0.3,0.6,0.6,1.2,0.9,1.6c0.1,0.1,0.1,0.1,0.1,0.1
			s-0.1,0.1-0.2,0.2c-0.7,0.5-1.1,1.3-0.9,2c0.1,0.3,0.2,0.5,0.4,0.7c0.1,0.1,0.2,0.2,0.3,0.3c0.7,0.4,1.6,0.2,2.4-0.6l0.2-0.2
			l0.2,0.1c0.1,0.1,0.3,0.2,0.4,0.3l0.2,0.1l0,0.1c-0.1,0.2-0.1,0.3-0.2,0.4c-0.3,0.8,0,1.7,0.6,2c0.2,0.1,0.3,0.1,0.6,0.1
			c0.4,0,0.9-0.2,1.2-0.5c0.2-0.2,0.4-0.5,0.4-0.7c0-0.1,0.1-0.1,0.1-0.1s0.1,0,0.2,0s0.2,0.1,0.3,0.1c0.9,0.3,1.4,0.7,1.5,1.3
			c0,0.1,0,0.2,0,0.6c0,0.3,0,0.5,0,0.6c0.1,0.5,0.5,0.9,1,0.9c0.1,0,0.2,0,0.2-0.1c0-0.1-0.1-0.1-0.1-0.1c-0.1,0-0.3,0-0.4-0.1
			c-0.1,0-0.2-0.2-0.3-0.2c0,0,0,0,0.4,0c0.6,0,1-0.1,1.6-0.2c0.3-0.1,0.6-0.2,0.8-0.4c0.1-0.1,0.2-0.1,0.2-0.1c0,0,0,0.1,0,0.3
			c0,0.7-0.2,1.3-0.7,1.8c-0.6,0.7-1.7,1-3.1,1.1C40.9,103.1,40.8,103.1,40.4,103.1z"/>
		<path class="st12" d="M37.8,98.7c-0.2,0-0.3-0.1-0.4-0.2c-0.2-0.2-0.4-0.5-0.5-0.8c0-0.1,0-0.2-0.1-0.2c0,0,0,0,0.1-0.4
			c0.1-0.2,0.2-0.5,0.4-0.7c0.1-0.1,0.3-0.3,0.4-0.5c0.3-0.3,0.4-0.5,0.7-1c0.3-0.5,0.1-1-0.4-1.2c-0.1,0-0.4,0-0.5,0
			c-0.2,0.1-0.4,0.3-0.5,0.5c-0.1,0.3-0.1,0.3-0.5,1c-0.1,0.1-0.3,0.4-0.5,0.7c-0.1,0.2-0.5,0.4-0.7,0.6c-0.4,0.2-0.6,0.3-0.9,0.2
			c-0.5-0.1-0.9-0.5-1.1-1c-0.1-0.2-0.1-0.5,0-0.7c0.1-0.3,0.6-0.9,1.2-1.2c0.2-0.1,0.2-0.1,0.7-0.3c0.3-0.1,0.5-0.3,0.8-0.5
			c0.1-0.1,0.2-0.2,0.3-0.2c0.2-0.1,0.3-0.3,0.3-0.5c0-0.2,0-0.3-0.1-0.4c-0.1-0.2-0.4-0.2-0.6-0.2c-0.1,0-0.5,0.2-0.6,0.2
			c-0.1,0.1-0.3,0-0.4-0.1c0-0.1,0-0.2,0-0.3c0,0,0.1-0.1,0.1-0.1c0.1,0,0.1-0.1,0.1-0.1c0,0,0.3-0.1,0.5-0.2c0.1,0,0.2,0,0.4,0
			c0.2,0,0.4,0.1,0.6,0.3c0.3,0.3,0.4,0.6,0.3,1c0,0.2-0.1,0.4-0.2,0.5c-0.1,0.1-0.5,0.6-0.5,0.6c0,0-0.1,0-0.2,0.1
			c-0.1,0.1-0.3,0.2-0.5,0.3c0,0-0.2,0.1-0.4,0.2c-0.5,0.2-0.7,0.4-0.9,0.6c-0.3,0.3-0.4,0.6-0.4,0.9c0,0.1,0,0.2,0.1,0.3
			c0.2,0.3,0.5,0.5,0.9,0.4c0.5-0.1,1.2-0.7,1.6-1.4c0.3-0.6,0.5-0.8,0.8-1.1c0.2-0.2,0.4-0.3,0.7-0.4c0.6-0.1,1.2,0.3,1.4,1
			c0,0.2,0,0.5,0,0.7c-0.1,0.2-0.3,0.6-0.4,0.8c-0.1,0.1-0.1,0.2-0.2,0.2s-0.1,0.1-0.1,0.1c0,0-0.1,0.1-0.1,0.1c0,0,0,0.1-0.1,0.1
			c-0.1,0-0.1,0.1-0.1,0.1s0,0.1-0.1,0.1c-0.3,0.3-0.5,0.6-0.6,0.9c0,0.1,0,0.4,0,0.5c0,0.1,0.1,0.3,0.3,0.3
			c0.1,0.1,0.1,0.1,0.3,0.1c0.2,0,0.2,0,0.3-0.1c0.2-0.1,0.3-0.2,0.4-0.3c0.2-0.3,0.3-0.5,0.5-1.2c0.1-0.6,0.3-1,0.5-1.3
			c0,0,0.1-0.1,0.1-0.2c0.1-0.2,0.5-0.4,0.7-0.5c0.5-0.1,1.1,0.2,1.3,0.7C42,95.6,42,95.7,42,96c0,0.1,0,0.2,0,0.3
			c-0.1,0.2-0.2,0.3-0.4,0.2c-0.1,0-0.1-0.1-0.1-0.3c0-0.4-0.1-0.6-0.3-0.8c-0.1-0.1-0.3-0.2-0.5-0.2c-0.4,0-0.8,0.4-0.9,1
			c0,0.1,0,0.2,0,0.2s-0.1,0.3-0.1,0.5c-0.2,0.7-0.3,1-0.5,1.3c0,0.1-0.1,0.1-0.1,0.2c-0.1,0.1-0.2,0.2-0.4,0.3
			C38.4,98.7,38.1,98.7,37.8,98.7z"/>
		<path class="st12" d="M37.8,98.1c-0.1,0-0.2-0.1-0.2-0.2c0,0,0-0.1,0-0.3c0-0.2,0-0.2,0.1-0.4c0-0.1,0.1-0.2,0.1-0.2l0,0l0.3,0.1
			c0.2,0.1,0.4,0.2,0.4,0.2c0.2,0.1,0.2,0.1,0,0.3c-0.1,0.2-0.2,0.3-0.4,0.4C38.1,98.2,37.9,98.2,37.8,98.1z"/>
		<path class="st12" d="M34.1,95.9c-0.1,0-0.2-0.1-0.3-0.2c0-0.1,0-0.3,0-0.4c0.1-0.2,0.2-0.3,0.3-0.5c0.1-0.1,0.4-0.3,0.4-0.3
			c0,0,0.1,0.1,0.1,0.1c0.1,0.1,0.2,0.3,0.4,0.4l0.3,0.3l-0.2,0.2C34.8,95.9,34.4,96,34.1,95.9z"/>
		<path class="st12" d="M42.1,95.2c-0.1,0-0.1,0-0.2-0.1c-0.3-0.3-0.7-0.5-1.1-0.5c-0.2,0-0.4,0-0.6,0.1L40,94.7l-0.2-0.1
			c-0.1,0-0.3-0.1-0.4-0.2l-0.2-0.1l0-0.1c-0.1-0.6-0.5-1-1-1.2c-0.2,0-0.2-0.1-0.4,0c-0.1,0-0.3,0-0.3,0l-0.1,0l-0.3-0.2l-0.2-0.2
			l0-0.1c0-0.1,0-0.2,0-0.4c0-0.3,0-0.3-0.1-0.5c-0.2-0.5-0.6-0.8-1.1-0.9l-0.2,0l-0.1-0.3c-0.2-0.4-0.2-0.4-0.1-0.5
			c0.1-0.1,0.2-0.1,0.4-0.1c0.3,0,0.5,0.2,0.7,0.6c0.3,0.6,0.3,0.7,0.5,0.9c0.6,1,1.6,1.8,2.8,2.4c0.4,0.2,0.8,0.4,1.3,0.4
			c0.4,0.1,0.6,0.1,1.1,0.1c0.5,0,0.6,0,0.8,0.1c0.1,0.1,0.2,0.1,0.3,0.3c0.1,0.1,0.3,0.3,0.3,0.4c0,0-0.1,0-0.4,0.1
			C43,95.2,42.2,95.2,42.1,95.2z"/>
	</g>
	<g id="layer105">
		<path class="st13" d="M38.7,101.4c-0.5-0.1-1.4-0.3-2.1-0.6c-1.5-0.6-3-1.7-4.1-3c-1.5-1.6-2.5-3.4-2.7-5c0-0.3,0-1,0-1.2
			c0-0.1,0-0.2,0.1-0.2c0,0,0,0,0,0c0,0-0.4,0.3-0.6,0.4l-0.2,0.1l0-0.1c0.2-0.4,0.7-0.8,1.2-1c0.3-0.1,0.5-0.1,0.8-0.1
			c0.5,0,0.9,0.2,1.2,0.5c0.2,0.2,0.3,0.4,0.6,0.8c0.3,0.6,0.6,1.2,0.9,1.6c0.1,0.1,0.1,0.1,0.1,0.2c0,0-0.1,0.1-0.2,0.1
			c-0.3,0.2-0.7,0.6-0.8,1c0,0.1-0.1,0.2-0.1,0.3s-0.1,0.1-0.1,0.2c-0.4,0.7,0,1.6,0.8,1.9c0.2,0,0.5,0,0.7,0c0.1,0,0.2-0.1,0.3-0.1
			c0.1,0,0.2-0.1,0.3-0.1c0.1,0,0.1,0,0.4-0.1c0.1-0.1,0.5-0.3,0.6-0.4c0,0,0.1-0.1,0.1-0.1s0.1-0.1,0.2-0.2l0.2-0.2l0.2,0.1
			c0.1,0.1,0.3,0.2,0.4,0.3l0.2,0.1l-0.1,0.1c-0.1,0.2-0.4,0.9-0.5,1.1c-0.1,0.2-0.1,0.6,0,0.7c0.1,0.3,0.3,0.6,0.6,0.7
			c0.1,0.1,0.2,0.1,0.4,0.1c0.2,0,0.2,0,0.4,0c0.1,0,0.2-0.1,0.3-0.1c0.4,0,0.7-0.2,1.1-0.5c0.1-0.1,0.2-0.2,0.3-0.3
			c0.1-0.1,0.3-0.5,0.3-0.5c0,0,0,0,0.2,0c0.1,0,0.2,0.1,0.3,0.1c0.8,0.3,1.3,0.6,1.5,1.1c0.1,0.2,0.1,0.5,0.1,0.7
			c-0.1,0.9-0.8,1.5-1.8,1.7C39.7,101.5,39,101.5,38.7,101.4z M37.6,100.5c0.1-0.1,0-0.3-0.1-0.3c-0.1,0-0.2,0.1-0.2,0.2
			s0.1,0.2,0.2,0.2C37.5,100.6,37.6,100.6,37.6,100.5z M39.7,100.2c0,0,0-0.1,0-0.1c-0.1-0.1-0.1-0.1-0.2,0c0,0,0,0.1,0,0.1
			C39.6,100.3,39.7,100.3,39.7,100.2z M38.5,99.6c0,0,0-0.1,0-0.1c-0.1,0-0.1,0-0.1,0.1C38.5,99.6,38.5,99.6,38.5,99.6z M37.4,99.6
			C37.4,99.5,37.4,99.5,37.4,99.6C37.3,99.5,37.3,99.5,37.4,99.6C37.3,99.6,37.4,99.6,37.4,99.6C37.4,99.6,37.4,99.6,37.4,99.6z
			 M35.7,98.2c0,0,0.1-0.1,0-0.2c-0.1,0-0.1,0-0.2,0c0,0,0,0.1,0,0.1C35.6,98.2,35.7,98.2,35.7,98.2z M32.9,97.4
			c0-0.1-0.1-0.1-0.1-0.1c0,0,0,0.1,0,0.1C32.8,97.5,32.9,97.5,32.9,97.4z M31.7,95.5c0,0,0-0.1,0-0.1c0,0-0.1-0.1-0.1-0.1
			s-0.1,0-0.1,0.1s0,0.1,0,0.1C31.6,95.5,31.6,95.6,31.7,95.5C31.7,95.5,31.7,95.5,31.7,95.5z M31.4,94.1
			C31.5,94.1,31.5,94.1,31.4,94.1c0.2-0.3-0.1-0.5-0.2-0.3C31.1,94,31.2,94.2,31.4,94.1z M32.7,93.9c0.1-0.1,0-0.2-0.1-0.2
			c-0.1,0-0.1,0.1-0.1,0.2C32.6,93.9,32.7,93.9,32.7,93.9C32.7,93.9,32.7,93.9,32.7,93.9z M31.8,92.9C31.8,92.8,31.8,92.8,31.8,92.9
			c0-0.1-0.1-0.1-0.1-0.1c0,0.1,0,0.1,0,0.1C31.7,92.9,31.7,92.9,31.8,92.9z"/>
		<path class="st14" d="M37.8,98.7c-0.2,0-0.3-0.1-0.4-0.2c-0.2-0.2-0.4-0.5-0.5-0.8c0-0.1,0-0.2-0.1-0.2c0,0,0,0,0.1-0.4
			c0.1-0.2,0.2-0.5,0.4-0.7c0.1-0.1,0.3-0.3,0.4-0.5c0.3-0.3,0.4-0.5,0.7-1c0.3-0.5,0.1-1-0.4-1.2c-0.1,0-0.4,0-0.5,0
			c-0.2,0.1-0.4,0.3-0.5,0.5c-0.1,0.3-0.1,0.3-0.5,1c-0.1,0.1-0.3,0.4-0.5,0.7c-0.1,0.2-0.5,0.4-0.7,0.6c-0.4,0.2-0.6,0.3-0.9,0.2
			c-0.5-0.1-0.9-0.5-1.1-1c-0.1-0.2-0.1-0.5,0-0.7c0.1-0.3,0.6-0.9,1.2-1.2c0.2-0.1,0.2-0.1,0.7-0.3c0.3-0.1,0.5-0.3,0.8-0.5
			c0.1-0.1,0.2-0.2,0.3-0.2c0.2-0.1,0.3-0.3,0.3-0.5c0-0.2,0-0.3-0.1-0.4c-0.1-0.2-0.4-0.2-0.6-0.2c-0.1,0-0.5,0.2-0.6,0.2
			c-0.1,0.1-0.3,0-0.4-0.1c0-0.1,0-0.2,0-0.3c0,0,0.1-0.1,0.2-0.1c0.1,0,0.2-0.1,0.2-0.1s0.1,0,0.2-0.1c0.2,0,0.2-0.1,0.4,0
			c0.2,0,0.2,0,0.4,0.1c0.1,0,0.2,0.1,0.3,0.2c0.3,0.3,0.4,0.6,0.3,1c0,0.2-0.1,0.3-0.2,0.5C36.4,93,36,93.4,36,93.4
			c0,0-0.1,0-0.2,0.1c-0.1,0.1-0.3,0.2-0.5,0.3c0,0-0.2,0.1-0.4,0.2c-0.5,0.2-0.7,0.4-0.9,0.6c-0.3,0.3-0.4,0.6-0.4,0.9
			c0,0.1,0,0.2,0.1,0.3c0.1,0.2,0.4,0.4,0.6,0.4c0.3,0,0.8-0.2,1.2-0.6c0.3-0.3,0.5-0.5,0.7-0.9c0.2-0.4,0.4-0.7,0.7-0.9
			c0.3-0.3,0.5-0.4,0.7-0.4c0.6-0.1,1.2,0.3,1.4,1c0,0.2,0,0.5,0,0.6c0,0,0,0.1-0.1,0.2c-0.1,0.2-0.2,0.5-0.4,0.7
			c-0.1,0.1-0.1,0.2-0.2,0.2s-0.1,0.1-0.1,0.1c0,0-0.1,0.1-0.1,0.1s0,0.1-0.1,0.1c0,0-0.1,0-0.1,0s0,0.1-0.1,0.1
			c-0.3,0.3-0.5,0.6-0.6,0.9c0,0.1,0,0.4,0,0.5c0,0.1,0.1,0.3,0.3,0.3c0.1,0.1,0.1,0.1,0.3,0.1c0.2,0,0.2,0,0.3-0.1
			c0.2-0.1,0.3-0.2,0.4-0.3c0.2-0.3,0.3-0.5,0.5-1.2c0.1-0.6,0.3-1,0.5-1.3c0,0,0.1-0.1,0.1-0.2c0.1-0.2,0.5-0.4,0.7-0.5
			c0.5-0.1,1.1,0.2,1.3,0.7C42,95.6,42,95.7,42,96c0,0.1,0,0.2,0,0.3c-0.1,0.2-0.2,0.3-0.4,0.2c-0.1,0-0.1-0.1-0.1-0.3
			c0-0.4-0.1-0.6-0.3-0.8c-0.1-0.1-0.3-0.2-0.5-0.2c-0.4,0-0.8,0.4-0.9,1c0,0.1,0,0.2,0,0.2s-0.1,0.3-0.1,0.5
			c-0.2,0.7-0.3,1-0.5,1.3c0,0.1-0.1,0.1-0.1,0.2c-0.1,0.1-0.2,0.2-0.4,0.3C38.4,98.7,38.1,98.7,37.8,98.7z"/>
		<path class="st13" d="M37.8,98.1c-0.2-0.1-0.2-0.8,0-1.1l0,0l0.3,0.1c0.2,0.1,0.4,0.2,0.4,0.2c0.1,0.1,0.1,0.1,0.1,0.1
			c0,0.2-0.3,0.5-0.5,0.6C38.1,98.1,37.8,98.1,37.8,98.1z"/>
		<path class="st13" d="M34.2,95.9c-0.2,0-0.3-0.2-0.4-0.3c-0.1-0.2,0.1-0.6,0.4-0.9c0.1-0.1,0.4-0.3,0.4-0.3c0,0,0.1,0.1,0.1,0.1
			s0.2,0.3,0.4,0.4l0.3,0.3l-0.1,0.1C35,95.8,34.5,96,34.2,95.9z"/>
		<path class="st13" d="M43.3,95.1L43.3,95.1L42.8,95c-0.2,0-0.5,0-0.7,0l-0.3,0l-0.1-0.1c-0.2-0.1-0.4-0.3-0.6-0.3
			c-0.2,0-0.5,0-0.7,0c-0.1,0-0.1,0-0.2,0c-0.1,0-0.7-0.3-0.9-0.4c-0.2-0.1-0.2-0.1-0.2-0.2c-0.1-0.4-0.5-0.7-0.9-0.9
			c-0.1,0-0.1-0.1-0.2-0.1c0,0-0.1,0-0.3,0h-0.2l-0.4-0.3L37,92.4v-0.3c0-0.2,0-0.3,0-0.3s0-0.1-0.1-0.2c-0.1-0.2-0.3-0.5-0.4-0.6
			c-0.2-0.1-0.3-0.2-0.5-0.2l-0.1,0l-0.2-0.3c-0.2-0.4-0.2-0.3-0.3-0.3c-0.1,0,0,0,0-0.1c0.1-0.1,0.2-0.1,0.4-0.1
			c0.3,0,0.5,0.2,0.7,0.6c0.3,0.6,0.3,0.7,0.5,0.9c0.6,1,1.6,1.8,2.8,2.4c0.4,0.2,0.8,0.4,1.3,0.4c0.4,0.1,0.6,0.1,1.1,0.1
			c0.5,0,0.6,0,0.8,0.1c0.1,0.1,0.2,0.1,0.3,0.3c0.1,0.1,0.3,0.3,0.3,0.4c0,0,0,0-0.1,0C43.4,95.2,43.4,95.2,43.3,95.1z"/>
	</g>
</g>
</svg>
