<?xml version="1.0" encoding="utf-8"?>
<!-- Generator: Adobe Illustrator 24.0.1, SVG Export Plug-In . SVG Version: 6.00 Build 0)  -->
<svg version="1.1" id="Layer_1" xmlns="http://www.w3.org/2000/svg" xmlns:xlink="http://www.w3.org/1999/xlink" x="0px" y="0px"
	 width="128px" height="128px" viewBox="0 0 128 128" style="enable-background:new 0 0 128 128;" xml:space="preserve">
<style type="text/css">
	.st0{fill:#49203D;}
	.st1{fill:#984C72;}
	.st2{fill:#DF4456;}
	.st3{fill:#C43A54;}
	.st4{fill:#EF6D79;}
</style>
<g id="layer101">
	<path class="st0" d="M64.6,105.7c-6.1-0.8-15.2-3.8-22.5-7.5c-9.1-4.6-19-13.8-25.8-24C9.7,64.6,4,49.4,4,41.6
		c0-6.7,3.3-13.1,8.5-16.5c6.7-4.5,14.3-4,19.9,1.3c2.8,2.7,4,4.7,6.2,10.5c5.6,14.8,12.9,23.7,23.7,28.7c4.9,2.3,8.4,3,14.3,3
		c7.3,0,12.7-1.5,19.9-5.6c8.2-4.6,14.8-4.9,20.8-0.8c2.7,1.9,5.2,5.3,6.1,8.2c0.8,2.7,0.7,7.2-0.2,10c-1.6,5.3-6.2,11.2-11.4,14.6
		c-5.9,3.9-17.5,8.4-26,10C81.2,105.9,69.2,106.3,64.6,105.7z"/>
</g>
<g id="layer102">
	<path class="st1" d="M66.6,103.4c-10.5-1.1-21.4-5.3-30.3-11.6c-4.2-3-12.5-11.1-15.6-15.2c-6.9-9.3-13-23.3-14.1-32.5
		c-1.1-9.1,3.8-17,11.8-19.1c3.5-0.9,5.5-0.8,8.6,0.6c4.5,2.1,6.9,5.2,9.3,12.2c6,17.2,18.1,29.3,32.2,32.4c2.2,0.5,4.7,0.8,7.6,0.8
		c7.6,0,13-1.5,20.8-5.6c5.5-2.9,7.8-3.6,12.2-3.5c3.5,0,3.5,0.1,6.1,1.7c4.4,2.9,6.1,6.2,6.2,11.5c0.1,3.7-0.8,6.4-3,9.7
		c-3.3,4.9-7,7.9-14.1,11.3C92.2,102.2,78.9,104.7,66.6,103.4z M117.2,71.9c0.5-1.9-0.1-3.8-1.6-4.8c-1.2-0.8-4.9-0.6-5.7,0.3
		c-0.5,0.5-0.4,0.6,1.5,0.8c3,0.4,4.1,1.4,4.3,4.1c0.2,1.7,0.3,2,0.6,1.6C116.6,73.7,117,72.8,117.2,71.9z M17.7,29.2
		c0.7-0.2,1.6-0.2,2.7,0.2c2.1,0.7,2.3,0,0.4-1.4c-1.9-1.5-4.1-1.4-5.8,0.3c-1.1,1.1-1.3,1.5-1.3,3.3c0,1.1,0.1,2.2,0.3,2.3
		c0.1,0.2,0.8-0.8,1.4-2.1C16.3,30.2,16.9,29.5,17.7,29.2z"/>
</g>
<g id="layer103">
	<path class="st2" d="M66.6,103.4c-10.5-1.1-21.4-5.3-30.3-11.6c-4.2-3-12.5-11.1-15.6-15.2c-4.2-5.7-7.9-12.6-10.5-19.5
		C6,45.7,5.5,39.6,8.3,33.7c4.6-9.6,16.3-12.1,23.1-4.9c2.1,2.2,3.3,4.5,5,9.1c6,17.2,18.1,29.3,32.2,32.4c2.2,0.5,4.7,0.8,7.6,0.8
		c7.6,0,13-1.5,20.8-5.6c5.5-2.9,7.8-3.6,12.3-3.5c2,0,3.6,0.2,3.8,0.4c0.1,0.2,0.9,0.7,1.8,1.2c3.5,1.8,5.8,5.2,6.5,9.5
		c0.9,5.3-1.2,10.7-6,15.9c-2.5,2.7-5.7,4.9-11,7.4C92.2,102.2,78.9,104.7,66.6,103.4z M117.2,71.9c0.5-1.9-0.1-3.8-1.6-4.8
		c-1.2-0.8-4.9-0.6-5.7,0.3c-0.5,0.5-0.4,0.6,1.5,0.8c3,0.4,4.1,1.4,4.3,4.1c0.2,1.7,0.3,2,0.6,1.6C116.6,73.7,117,72.8,117.2,71.9z
		 M17.7,29.2c0.7-0.2,1.6-0.2,2.7,0.2c2.1,0.7,2.3,0,0.4-1.4c-1.9-1.5-4.1-1.4-5.8,0.3c-1.1,1.1-1.3,1.5-1.3,3.3
		c0,1.1,0.1,2.2,0.3,2.3c0.1,0.2,0.8-0.8,1.4-2.1C16.3,30.2,16.9,29.5,17.7,29.2z"/>
</g>
<path class="st3" d="M23,50.8c0.4,0.3,2.7,1.8,2.4,2.6c-0.3,0.7-2.4,0.9-3.9-0.1s-2.1-3.1-1.6-3.6C20.5,49.2,22.5,50.5,23,50.8z"/>
<path class="st4" d="M70.7,82.8c0.6,1.1-1.2,3-1.3,3.2c-1.9,2.1-4.7,2.1-6.2,2.2c-0.9,0-6.4,0.2-8.9-3.6c-0.2-0.3-1.5-2.3-0.9-3.2
	c0.8-1.1,3.7,1.1,8.8,1.4C67.1,83.1,70,81.5,70.7,82.8z"/>
<circle class="st3" cx="92.6" cy="83.7" r="0.9"/>
<ellipse class="st3" cx="34.8" cy="73.8" rx="2.4" ry="1.5"/>
<ellipse class="st3" cx="82.7" cy="77.3" rx="1.6" ry="0.6"/>
<path class="st3" d="M73.8,98.2c0.2,0.2,0.1,0.7,0,1c-0.6,1.2-2.7,1-3,1c-0.8-0.1-2.4-0.4-2.5-1.1c0-0.3,0.2-0.7,0.5-0.9
	c0.6-0.4,1.2,0.3,2.4,0.3C72.6,98.6,73.5,97.8,73.8,98.2z"/>
<circle class="st3" cx="114" cy="81.5" r="0.5"/>
</svg>
