<?xml version="1.0" encoding="utf-8"?>
<!-- Generator: Adobe Illustrator 24.0.1, SVG Export Plug-In . SVG Version: 6.00 Build 0)  -->
<svg version="1.1" id="Layer_1" xmlns="http://www.w3.org/2000/svg" xmlns:xlink="http://www.w3.org/1999/xlink" x="0px" y="0px"
	 width="128px" height="128px" viewBox="0 0 128 128" style="enable-background:new 0 0 128 128;" xml:space="preserve">
<style type="text/css">
	.st0{fill:#49203D;}
	.st1{fill:#984C72;}
	.st2{fill:#DF4456;}
	.st3{fill:#C43A54;}
	.st4{fill:#EF6D79;}
</style>
<g>
	<g id="layer101">
		<path class="st0" d="M25.5,12.7c3.3-2.5,9.1-5.3,14.3-7c6.6-2.1,15.6-2.3,23.7-0.6c7.7,1.6,17.6,6.2,21.3,10
			c3.1,3.2,4.6,7.8,3.7,11.9c-1.1,5.3-5,8.7-10.2,8.7c-2.6,0-4.1-0.4-7.9-2.1C60.7,29.1,53,28.3,45.4,31c-3.4,1.2-5.5,2.5-8.3,5.3
			c-3.5,3.5-5.4,6.7-7,12.1c-1.8,6-4.8,9.3-9.6,10.2c-2.2,0.4-5-0.1-6.8-1.1c-1.6-0.9-3.7-3.1-4.6-4.9c-1.7-3.3-2.3-8.3-1.4-12.4
			c1-4.6,4.5-12.3,7.8-17C17.4,20.5,23,14.6,25.5,12.7z"/>
	</g>
	<g id="layer102">
		<path class="st1" d="M25.6,14.8c5.5-4.4,12.8-7.5,20-8.7c3.4-0.6,11.2-0.6,14.7,0c7.7,1.2,17.2,5.1,22.1,9
			c4.8,3.8,6.2,10,3.3,14.7c-1.2,2.1-2.3,3-4.4,3.7c-3.2,1.1-5.8,0.7-10.2-1.5c-11-5.4-22.5-5.6-30.8-0.4c-1.3,0.8-2.6,1.9-4,3.2
			c-3.6,3.6-5.6,6.8-7.4,12.5c-1.3,4-2.1,5.4-4.2,7.4c-1.7,1.6-1.7,1.6-3.7,2c-3.5,0.7-5.9-0.1-8.4-2.6c-1.8-1.8-2.6-3.4-3.2-6.1
			C8.6,44.2,8.9,41,10.8,36C13.9,27.4,19.1,20,25.6,14.8z M16.1,53.8c0.6,1.2,1.8,1.8,3,1.5c1-0.2,2.6-2,2.6-2.8
			c0-0.5-0.1-0.5-1.1,0.3c-1.7,1.2-2.6,1.2-4,0c-0.9-0.8-1.1-0.9-1.1-0.5C15.5,52.6,15.8,53.2,16.1,53.8z M84.1,27.4
			c-0.2,0.4-0.7,0.8-1.4,1.2c-1.3,0.6-1.1,1.1,0.5,0.9c1.6-0.2,2.6-1.3,2.6-2.9c0-1.1-0.1-1.3-0.9-2.2c-0.5-0.5-1.1-1-1.2-1
			c-0.1,0,0,0.7,0.3,1.7C84.3,26.4,84.3,27,84.1,27.4z"/>
	</g>
	<g id="layer103">
		<path class="st2" d="M25.6,14.8c5.5-4.4,12.8-7.5,20-8.7c3.4-0.6,11.2-0.6,14.7,0C65,6.9,70,8.4,74.5,10.6
			c7.5,3.5,10.6,6.2,12,10.4c2.3,6.8-2.1,13.5-8.8,13.2c-2.1-0.1-3.7-0.6-6.7-2.1c-11-5.4-22.5-5.6-30.8-0.4c-1.3,0.8-2.6,1.9-4,3.2
			c-3.6,3.6-5.6,6.8-7.4,12.5c-1.3,4-2.1,5.4-4.3,7.5c-1,0.9-1.8,1.6-2,1.6c-0.1,0-0.8,0.1-1.4,0.3c-2.5,0.8-5.2,0.2-7.6-1.5
			c-2.9-2.1-4.5-5.7-4.6-10.5c-0.1-2.5,0.5-5,1.8-8.7C13.9,27.4,19.1,20,25.6,14.8z M16.1,53.8c0.6,1.2,1.8,1.8,3,1.5
			c1-0.2,2.6-2,2.6-2.8c0-0.5-0.1-0.5-1.1,0.3c-1.7,1.2-2.6,1.2-4,0c-0.9-0.8-1.1-0.9-1.1-0.5C15.5,52.6,15.8,53.2,16.1,53.8z
			 M84.1,27.4c-0.2,0.4-0.7,0.8-1.4,1.2c-1.3,0.6-1.1,1.1,0.5,0.9c1.6-0.2,2.6-1.3,2.6-2.9c0-1.1-0.1-1.3-0.9-2.2
			c-0.5-0.5-1.1-1-1.2-1c-0.1,0,0,0.7,0.3,1.7C84.3,26.4,84.3,27,84.1,27.4z"/>
	</g>
	<path class="st3" d="M71.3,19.6c-0.3,0.1-2.1,0.4-2.4-0.1c-0.2-0.5,0.8-1.6,1.9-1.8c1.2-0.2,2.5,0.5,2.4,1
		C73.3,19.2,71.7,19.5,71.3,19.6z"/>
	<path class="st4" d="M33.4,26.7c-0.8-0.2-0.9-2-0.9-2.1c-0.1-1.9,1.3-3.2,2-4c0.4-0.4,3-3.1,6-2.5c0.2,0,1.8,0.4,1.9,1.1
		c0.1,0.9-2.3,1.2-4.9,3.4C34.9,24.8,34.3,26.9,33.4,26.7z"/>
	<circle class="st3" cx="22.4" cy="36.5" r="0.6"/>
	<ellipse transform="matrix(0.7148 -0.6993 0.6993 0.7148 5.8202 42.36)" class="st3" cx="54.8" cy="14" rx="1.6" ry="1"/>
	<ellipse transform="matrix(0.7148 -0.6993 0.6993 0.7148 -15.8173 31.0646)" class="st3" cx="30.2" cy="34.9" rx="1.1" ry="0.4"/>
	<path class="st3" d="M24.6,20.7c-0.2,0-0.4-0.3-0.5-0.5c-0.3-0.8,0.8-1.8,1-1.9c0.4-0.4,1.3-1,1.7-0.7c0.2,0.1,0.2,0.4,0.2,0.7
		c-0.1,0.5-0.7,0.4-1.3,1C25,20,24.9,20.7,24.6,20.7z"/>
	<circle class="st3" cx="13.2" cy="47.6" r="0.3"/>
</g>
<g>
	<g id="layer101_1_">
		<path class="st0" d="M121.4,60.6c0.7,4.1,0.6,10.6-0.3,15.9c-1.2,6.8-5.1,14.9-10.3,21.4c-5,6.1-13.6,12.8-18.6,14.3
			c-4.3,1.3-9.1,0.5-12.3-2.2c-4.2-3.4-5.4-8.4-3.1-13.1c1.2-2.3,2.2-3.5,5.5-6.1c8.4-6.5,12.7-13,13.8-21c0.5-3.6,0.3-6-0.9-9.8
			c-1.5-4.7-3.5-7.9-7.5-11.7c-4.6-4.3-6.1-8.6-4.6-13.2c0.7-2.1,2.4-4.4,4.1-5.6c1.6-1,4.5-1.9,6.5-1.9c3.7,0,8.4,1.8,11.6,4.4
			c3.7,3,8.8,9.6,11.5,14.7C118.2,49.9,120.9,57.6,121.4,60.6z"/>
	</g>
	<g id="layer102_1_">
		<path class="st1" d="M119.5,59.8c1.4,6.9,0.8,14.8-1.4,21.8c-1.1,3.3-4.7,10.3-6.7,13c-4.6,6.3-12.4,13-18.1,15.5
			c-5.6,2.5-11.7,0.9-14.6-3.8c-1.3-2.1-1.6-3.4-1.3-5.6c0.5-3.3,2-5.5,6-8.4c9.9-7.3,15.3-17.4,14.5-27.1c-0.1-1.5-0.5-3.2-1-5.1
			c-1.5-4.9-3.5-8.1-7.7-12.2c-2.9-3-3.8-4.3-4.7-7.1c-0.7-2.2-0.6-2.3-0.1-4.2c1-3.4,2.8-5.2,6.2-6.3c2.4-0.8,4.3-0.8,6.9,0
			c3.8,1.1,6.4,2.9,10.1,6.8C113.7,43.6,117.9,51.6,119.5,59.8z M89.3,33.5c-1.3,0-2.4,0.8-2.8,2c-0.3,0.9,0.5,3.2,1.3,3.6
			c0.4,0.2,0.5,0.1,0.2-1.1c-0.3-2,0.1-2.9,1.8-3.6c1.1-0.4,1.3-0.6,0.9-0.7C90.5,33.5,89.9,33.5,89.3,33.5z M81.5,105.9
			c-0.3-0.4-0.4-1-0.4-1.8c0-1.5-0.4-1.5-1,0c-0.6,1.5-0.1,2.9,1.3,3.6c0.9,0.5,1.2,0.5,2.4,0.2c0.7-0.2,1.4-0.5,1.4-0.6
			c0.1-0.1-0.7-0.3-1.6-0.5C82.4,106.6,81.8,106.4,81.5,105.9z"/>
	</g>
	<g id="layer103_1_">
		<path class="st2" d="M119.5,59.8c1.4,6.9,0.8,14.8-1.4,21.8c-1.1,3.3-4.7,10.3-6.7,13c-2.8,3.8-6.5,7.6-10.5,10.6
			c-6.5,5-10.3,6.6-14.7,5.9c-7.1-1-11-8.1-7.7-13.9c1-1.8,2.2-3,4.9-5c9.9-7.3,15.3-17.4,14.5-27.1c-0.1-1.5-0.5-3.2-1-5.1
			c-1.5-4.9-3.5-8.1-7.7-12.2c-2.9-3-3.8-4.3-4.7-7.2c-0.4-1.3-0.6-2.4-0.5-2.5c0.1-0.1,0.3-0.7,0.4-1.4c0.5-2.6,2.2-4.8,4.8-6.1
			c3.2-1.6,7.1-1.4,11.4,0.7c2.2,1.1,4.3,2.7,6.9,5.6C113.7,43.6,117.9,51.6,119.5,59.8z M89.3,33.5c-1.3,0-2.4,0.8-2.8,2
			c-0.3,0.9,0.5,3.2,1.3,3.6c0.4,0.2,0.5,0.1,0.2-1.1c-0.3-2,0.1-2.9,1.8-3.6c1.1-0.4,1.3-0.6,0.9-0.7
			C90.5,33.5,89.9,33.5,89.3,33.5z M81.5,105.9c-0.3-0.4-0.4-1-0.4-1.8c0-1.5-0.4-1.5-1,0c-0.6,1.5-0.1,2.9,1.3,3.6
			c0.9,0.5,1.2,0.5,2.4,0.2c0.7-0.2,1.4-0.5,1.4-0.6c0.1-0.1-0.7-0.3-1.6-0.5C82.4,106.6,81.8,106.4,81.5,105.9z"/>
	</g>
	<path class="st3" d="M94.3,98.2c0.1-0.3,0.6-2.1,1.2-2c0.5,0,1,1.4,0.7,2.5c-0.4,1.1-1.6,2-2,1.7C93.8,100.2,94.2,98.6,94.3,98.2z"
		/>
	<path class="st4" d="M105.4,61.2c0.6-0.6,2.2,0.2,2.3,0.2c1.7,0.8,2.3,2.6,2.6,3.6c0.2,0.6,1.4,4.1-0.5,6.5
		c-0.1,0.2-1.2,1.4-1.9,1.2c-0.9-0.3-0.1-2.6-0.8-5.9C106.4,63.5,104.8,61.9,105.4,61.2z"/>
	<circle class="st3" cx="101.7" cy="47" r="0.6"/>
	<ellipse transform="matrix(0.9558 -0.294 0.294 0.9558 -20.5973 35.2011)" class="st3" cx="106.8" cy="86.1" rx="1" ry="1.6"/>
	<ellipse transform="matrix(0.9558 -0.294 0.294 0.9558 -11.6598 31.6775)" class="st3" cx="99.6" cy="54.6" rx="0.4" ry="1.1"/>
	<path class="st3" d="M114.7,56.2c0.1-0.2,0.4-0.2,0.6-0.2c0.9,0.1,1.2,1.5,1.2,1.7c0.1,0.6,0.3,1.6-0.2,1.8c-0.2,0.1-0.5,0-0.7-0.2
		c-0.4-0.3-0.1-0.8-0.3-1.6C115.2,56.9,114.6,56.5,114.7,56.2z"/>
	<circle class="st3" cx="96.1" cy="33.7" r="0.3"/>
</g>
<g>
	<g id="layer101_2_">
		<path class="st0" d="M33.9,120.3c-3.8-1.6-9.1-5.3-13.1-9c-5-4.7-9.7-12.5-12.2-20.3c-2.4-7.5-3.2-18.4-1.8-23.4
			c1.3-4.3,4.6-7.8,8.6-9.1c5.2-1.6,10,0.1,12.6,4.6c1.3,2.3,1.7,3.8,2,7.9c0.8,10.6,3.9,17.7,9.9,23c2.7,2.4,4.9,3.6,8.6,4.6
			c4.7,1.4,8.5,1.4,13.9,0.1c6.1-1.4,10.5-0.4,13.6,3.4c1.4,1.7,2.4,4.4,2.4,6.5c0,1.9-0.9,4.8-2,6.4c-2,3.1-6.1,6.1-10.1,7.3
			c-4.5,1.4-12.9,2.1-18.6,1.6C44.7,123.5,36.8,121.5,33.9,120.3z"/>
	</g>
	<g id="layer102_2_">
		<path class="st1" d="M35.7,119.2c-6.6-2.7-12.8-7.4-17.4-13.1c-2.2-2.7-6-9.5-7.2-12.8c-2.7-7.3-4-17.5-3-23.6
			c1-6.1,5.7-10.3,11.2-10.1c2.4,0,3.7,0.5,5.4,2c2.5,2.2,3.5,4.7,3.7,9.7c0.7,12.2,6.2,22.3,14.7,27c1.3,0.7,2.9,1.4,4.8,1.9
			c4.9,1.4,8.7,1.5,14.5,0.3c4.1-0.8,5.7-0.8,8.5,0c2.2,0.7,2.2,0.7,3.6,2.3c2.3,2.7,2.8,5.1,1.9,8.6c-0.6,2.4-1.7,4-3.7,5.7
			c-3,2.5-6,3.8-11.2,4.7C52.4,123.2,43.4,122.3,35.7,119.2z M74.3,108.3c0.7-1.1,0.6-2.5-0.2-3.4c-0.6-0.7-3-1.3-3.7-0.9
			c-0.4,0.2-0.4,0.3,0.8,0.8c1.9,0.8,2.4,1.7,2,3.5c-0.2,1.1-0.2,1.4,0.1,1.2C73.6,109.3,74,108.8,74.3,108.3z M18,62
			c0.5,0,1,0.2,1.7,0.7c1.2,0.8,1.5,0.5,0.5-0.8c-1-1.3-2.4-1.6-3.8-0.9c-0.9,0.5-1.1,0.7-1.4,1.9c-0.2,0.7-0.3,1.4-0.3,1.5
			c0,0.1,0.6-0.4,1.3-1.1C16.9,62.4,17.4,62,18,62z"/>
	</g>
	<g id="layer103_2_">
		<path class="st2" d="M35.7,119.2c-6.6-2.7-12.8-7.4-17.4-13.1c-2.2-2.7-6-9.5-7.2-12.8C9.5,88.8,8.4,83.7,8,78.7
			c-0.6-8.2,0.2-12.2,3.1-15.5c4.8-5.4,12.8-4.8,15.9,1.2c0.9,1.8,1.3,3.5,1.5,6.8c0.7,12.2,6.2,22.3,14.7,27
			c1.3,0.7,2.9,1.4,4.8,1.9c4.9,1.4,8.7,1.5,14.5,0.3c4.1-0.8,5.7-0.8,8.6,0c1.3,0.4,2.3,0.8,2.4,1c0,0.1,0.5,0.6,1,1.1
			c1.9,1.8,2.8,4.4,2.4,7.3c-0.4,3.6-2.8,6.7-6.9,9.1c-2.1,1.3-4.6,2.1-8.5,2.7C52.4,123.2,43.4,122.3,35.7,119.2z M74.3,108.3
			c0.7-1.1,0.6-2.5-0.2-3.4c-0.6-0.7-3-1.3-3.7-0.9c-0.4,0.2-0.4,0.3,0.8,0.8c1.9,0.8,2.4,1.7,2,3.5c-0.2,1.1-0.2,1.4,0.1,1.2
			C73.6,109.3,74,108.8,74.3,108.3z M18,62c0.5,0,1,0.2,1.7,0.7c1.2,0.8,1.5,0.5,0.5-0.8c-1-1.3-2.4-1.6-3.8-0.9
			c-0.9,0.5-1.1,0.7-1.4,1.9c-0.2,0.7-0.3,1.4-0.3,1.5c0,0.1,0.6-0.4,1.3-1.1C16.9,62.4,17.4,62,18,62z"/>
	</g>
	<path class="st3" d="M17.4,77c0.2,0.2,1.4,1.7,1,2.1c-0.3,0.4-1.7,0.1-2.5-0.8c-0.8-0.9-0.8-2.4-0.3-2.6
		C16.1,75.4,17.1,76.7,17.4,77z"/>
	<path class="st4" d="M42.2,106.6c0.2,0.8-1.3,1.7-1.4,1.8c-1.6,1-3.4,0.5-4.4,0.2c-0.6-0.2-4.2-1.1-5.1-4c-0.1-0.2-0.6-1.8,0-2.2
		c0.7-0.6,2.2,1.4,5.4,2.6C39.8,106.1,42,105.7,42.2,106.6z"/>
	<circle class="st3" cx="56.2" cy="111.3" r="0.6"/>
	<ellipse transform="matrix(0.279 -0.9603 0.9603 0.279 -75.4304 87.6567)" class="st3" cx="20.7" cy="94.1" rx="1" ry="1.6"/>
	<ellipse transform="matrix(0.279 -0.9603 0.9603 0.279 -64.3626 124.8529)" class="st3" cx="51" cy="105.3" rx="0.4" ry="1.1"/>
	<path class="st3" d="M41.3,117.1c0.1,0.2-0.1,0.5-0.2,0.6c-0.6,0.6-1.9,0.2-2.1,0.1c-0.5-0.2-1.5-0.7-1.4-1.2
		c0-0.2,0.3-0.4,0.5-0.5c0.5-0.1,0.7,0.4,1.5,0.7C40.5,117.2,41.2,116.8,41.3,117.1z"/>
	<circle class="st3" cx="70.4" cy="113.9" r="0.3"/>
</g>
</svg>
