<?xml version="1.0" encoding="utf-8"?>
<!-- Generator: Adobe Illustrator 24.0.1, SVG Export Plug-In . SVG Version: 6.00 Build 0)  -->
<svg version="1.1" id="Layer_1" xmlns="http://www.w3.org/2000/svg" xmlns:xlink="http://www.w3.org/1999/xlink" x="0px" y="0px"
	 width="128px" height="128px" viewBox="0 0 128 128" style="enable-background:new 0 0 128 128;" xml:space="preserve">
<style type="text/css">
	.st0{fill:#212526;}
	.st1{fill:#DF4456;}
	.st2{fill:#CC364B;}
	.st3{fill:#D39256;}
	.st4{fill:#FFC74F;}
	.st5{fill:#F24962;}
</style>
<g id="layer101">
	<path class="st0" d="M84.8,115.2c-10.8-0.3-23.4-3.3-34.1-8.2c-8.3-3.8-15.4-8.2-22-13.7c-2.4-2-7.6-7.2-9.6-9.6
		C11.9,75.1,7.1,65.4,5,55.2c-1-5-1.3-8.6-0.7-11.5c1-5.5,4.3-10.4,9-13.2l1.1-0.7v-0.7c0-1.9,0.6-4.3,1.4-6.3
		C18,17.7,22.8,14,28.7,13c1.8-0.3,4.9-0.3,6.7,0.1c5.5,1.1,10.4,5.2,12.4,10.2c0.2,0.6,0.4,1,0.4,1.1c0,0,0.5-0.2,1.1-0.5
		c2.5-1.2,4.9-0.9,7,0.8c1.3,1.1,2.1,2.3,3.7,5.7c3.4,7.6,10.3,14.2,19.8,19c5.3,2.7,8.8,3.6,15.2,3.6c1.9,0,3.7,0.1,4.2,0.2
		c0.4,0.1,1.3,0.5,2,0.8c2.1,1,4.2,3.1,4.9,5.1l0.3,0.8h1.1c5.9,0,10.9,2.1,13.7,5.9c5,6.6,3.6,16.2-3.4,23.4l-0.9,0.9l0.1,1
		c0.2,1.5,0.2,4.3-0.1,5.9c-0.6,4-2.2,7.1-5.1,10c-2.6,2.6-5.6,4.4-9.9,5.8C96.8,114.6,91.1,115.4,84.8,115.2z"/>
</g>
<g id="layer102">
	<path class="st1" d="M94.7,94.7c-0.3,0-0.5-0.2-0.6-0.4c-0.1-0.2-0.1-1.7-0.1-3.3c0-2.8-0.1-3.1-0.4-4.3c-0.7-2.2-1.5-3.5-3.3-5.2
		c-2.1-2-4.3-3.2-8.7-4.6c-1.4-0.4-2.6-0.9-2.6-0.9c-0.1-0.1,0-0.5,0.1-1.1c0.1-0.5,0.4-1.8,0.7-2.8c0.8-3.6,1.8-6.1,3.1-7.7
		c1.4-1.6,2.5-2,3.9-1.4c1.5,0.7,2,1.6,2.1,3.9c0.1,1.5,0.1,1.7,0.5,2.3c0.6,1,1.3,1.4,2.5,1.5c1.6,0.1,2.8-0.7,3.3-2.1
		c0.4-1.1,0.2-4.4-0.3-5.7c-0.1-0.2,0.3-0.2,3.7-0.3c2.3,0,4.2-0.1,4.7-0.3c1.4-0.3,6.6-0.3,8.1,0.1c5.5,1.2,8.9,4.3,10.2,9.1
		c0.4,1.6,0.5,5.1,0.1,6.8c-0.7,3.2-2.2,6.2-4,8.2c-0.4,0.4-0.6,0.8-0.7,0.8c0,0.2-2.8,2.6-3.9,3.3c-3.1,2.1-6.9,3.4-11.1,4
		C100.4,94.8,96,94.9,94.7,94.7z M118.1,77c0.7-0.7,1.4-2.1,1.5-3.1c0.2-2.4-1.7-4.1-4.7-4.2c-1,0-1.2,0-1.3,0.2
		c0,0.2,0.3,0.4,1.4,1c1.5,0.7,2.2,1.3,2.5,1.9c0.3,0.5,0.2,1.8-0.1,3.1C117,77.6,117.2,77.9,118.1,77z"/>
	<path class="st1" d="M69.9,72.3c-1.5-0.7-2.7-1.4-2.7-1.4s0.7-1,1.6-2c4-4.5,5.7-7.5,6.3-10.8c0-0.3,0.1-0.6,0.2-0.7
		c0-0.1,0.4,0.1,0.8,0.3c0.4,0.2,1.2,0.6,1.9,0.8l1.1,0.5l-0.6,0.7c-0.9,1.1-1.9,2.6-2.8,4.4c-0.9,1.9-1.6,3.8-2.4,7.1
		c-0.3,1.3-0.6,2.5-0.7,2.5C72.6,73.6,71.4,73,69.9,72.3z"/>
	<path class="st1" d="M60.2,66.7c-2-1.4-3.6-2.6-3.6-2.8c0-0.1,0.1-0.2,0.1-0.3c0.3-0.2,1.8-2.6,2.8-4.4c2.1-3.9,3.9-6,5.8-6.6
		c0.9-0.3,1.6,0,2.4,0.9c0.8,1,1.1,1.9,1,3.2c-0.1,0.8-0.2,1.2-0.8,2.4c-0.9,1.7-1.6,2.7-3.7,5.1c-0.9,1-1.8,2.1-2.1,2.5
		c-0.3,0.4-0.6,0.7-0.7,0.7C61.3,67.5,60.8,67.1,60.2,66.7z"/>
	<path class="st1" d="M49.4,57.8c-1.9-2-3.1-3.3-3-3.4c0,0,1.2-0.6,2.6-1.3c2.6-1.3,4.3-2.3,5.6-3.4c1.1-0.9,2.7-2.5,3.4-3.6
		l0.7-0.9l1.1,1.1c0.6,0.6,1.1,1.2,1.1,1.2s-0.3,0.2-0.6,0.5c-2.2,1.4-4.1,3.7-6.3,7.7c-1.2,2.1-2.5,4.1-2.6,4.1
		C51.4,59.7,50.5,58.9,49.4,57.8z"/>
	<path class="st1" d="M41.5,48.3c-2.1-3-4.1-6.3-6.1-10.3c-0.7-1.4-1.6-3-2-3.5c-2.2-3.1-5.5-5.3-9.2-6c-2.2-0.4-5.5-0.2-7.3,0.4
		l-0.6,0.2l0.1-1.1c0.3-3.3,1.8-6.5,4.2-8.8c1.3-1.3,2.2-1.9,3.9-2.7c7-3.5,15.6-1.5,19.8,4.7c0.7,1.1,1.3,2.2,2.2,4.6
		c0.4,1.1,1.2,2.9,1.6,3.8c0.5,1,0.8,1.8,0.8,1.8c0,0-0.4,0.1-0.8,0.3c-1.3,0.4-3.4,1.4-3.9,1.9c-1.8,1.6-1.4,4.2,0.8,5.4
		c0.8,0.4,2.1,0.2,3.9-0.6c2.4-1.1,3.7-1.1,4.5,0.2c0.4,0.7,0.4,2,0,2.9c-0.5,1-2.7,3.2-4,4.1c-1,0.7-6.8,3.6-7,3.6
		C42.2,49.2,41.9,48.8,41.5,48.3z M24.5,22.7c0.1-0.1,0.3-0.5,0.6-1c1.4-3.1,2.3-3.6,5.4-2.7c0.8,0.2,1.2,0.3,1.3,0.2
		c0.2-0.2-0.2-0.8-1.1-1.4c-2.9-1.9-5.6-0.9-6.5,2.4c-0.1,0.5-0.2,1.2-0.2,1.7C24,22.8,24.1,23,24.5,22.7z"/>
</g>
<g id="layer103">
	<path class="st2" d="M65,85.3c-1.9-0.5-3.9-2-4.8-3.8c-0.8-1.6-1.1-3.1-1-5.1c0.1-2,0.4-3.1,1.4-5c0.6-1.1,1.7-2.8,2.6-3.8
		c0.2-0.2,0.4-0.5,0.6-0.7c0.4-0.5,1.9-2.2,2.1-2.3c1.2-1.3,3.3-4.2,3.7-5.5c1-2.4,0.7-4.8-0.8-6.4c-1.4-1.6-2.9-1.8-4.8-0.9
		c-1.9,0.9-3.6,3-5.7,6.8c-1.7,3.1-2.9,4.8-5.2,7c-3.3,3.3-6.4,4.9-9.8,5.1c-2.6,0.2-4.8-0.7-6.7-2.6c-2.1-2.1-2.9-4.6-2.3-7.5
		c0.6-2.8,2.5-5.6,5.5-8c1.1-0.9,3.4-2.2,6.1-3.6c1.7-0.8,3.6-1.9,4.2-2.3c1.4-0.9,3.6-3,4.2-4c1.1-1.9,1-4.1-0.3-5.4
		c-1.4-1.4-3.1-1.3-6.3,0.2c-1.2,0.6-1.5,0.6-2.2,0.3c-1-0.5-1.3-1.7-0.7-2.6c0.4-0.6,2.6-1.7,4.5-2.2c1.1-0.3,1.6-0.3,2.8-0.3
		c1.2,0,1.5,0.1,2.4,0.6c1.8,0.9,3.5,2.7,4,4.4c0.6,2.1,0.4,4.5-0.6,6.5c-0.9,1.8-3.4,4.4-5.6,5.8c-0.7,0.5-2.7,1.6-4.4,2.4
		c-3.9,2-5.5,3-7.1,4.6c-2.5,2.5-3.4,5-2.6,7.1c0.6,1.5,2.5,2.9,4.3,3.1c2.7,0.2,6.6-2,9.5-5.5c1.1-1.4,2.1-2.8,3.3-5
		c1.4-2.6,2.5-4.1,3.8-5.5c1.3-1.4,2.1-2,3.5-2.7c4.7-2.4,10.1,0.6,11.2,6.2c0.6,3.2-0.6,7.1-3.6,10.7c-0.6,0.7-3.5,4.1-3.7,4.2
		c-0.4,0.3-2,2.7-2.5,3.7c-2,3.8-1,7.7,2,8.5c1.8,0.5,4.7-1,6.1-3c1.1-1.7,1.7-3.2,2.7-7.5c0.9-3.5,1.4-5,2.4-7
		c2.3-4.6,5.4-6.8,9-6.5c2.9,0.2,5.7,2.1,6.9,4.6c0.7,1.5,0.9,2.2,0.9,4.2c0,1.8-0.1,2.2-1,2.7c-0.6,0.4-1.2,0.4-1.8,0
		c-0.7-0.4-0.9-0.8-0.9-2.5C90.3,64.8,90,64,89.1,63c-0.9-1-2.1-1.6-3.5-1.6c-1.1,0-1.6,0.2-2.6,1c-1.3,1-2.7,3.5-3.5,5.8
		c-0.2,0.6-0.7,2.5-1.1,4.1c-1.1,4.3-1.8,6.3-3.2,8.3C72.8,84.2,68.5,86.1,65,85.3z"/>
</g>
<g id="layer104">
	<path class="st3" d="M83,113.1c-16.6-0.9-35.3-7.8-49.3-18.3C19.3,83.9,10.2,70.5,7,54.8c-1.3-6.2-1.3-9.5-0.1-13.3
		c1.8-5.6,6.7-10.1,12.1-11.2c1.6-0.3,4.5-0.2,5.9,0.2c2.2,0.7,3.7,1.5,5.2,2.9c1.3,1.2,2.3,2.6,3.7,5.4c2.2,4.3,4.3,7.8,6.2,10.4
		c0.4,0.5,0.7,1,0.7,1c0,0-0.6,0.5-1.3,1.1c-4.8,3.6-7.3,8.7-6.3,13.1c0.4,1.7,1.2,3.3,2.6,4.6c0.7,0.7,1.6,1.4,2,1.7
		c4.7,2.8,10.6,1.4,16.1-3.7l1.6-1.5l1.4,1c0.8,0.6,1.9,1.4,2.5,1.8l1.2,0.8L60,69.6c-0.7,1.2-1,1.7-1.4,2.9
		C56.5,78,58.4,83.9,63,86c1.4,0.6,2.3,0.8,3.9,0.8c2.8,0,5.9-1.4,8-3.6c1.1-1.2,2.5-3.3,3-4.4c0.2-0.5,0.4-0.8,0.5-0.8
		c0.1,0,0.6,0.1,1.1,0.3c0.5,0.2,1.5,0.5,2.3,0.7c5.9,1.9,9.2,4.6,10.2,8.5c0.2,0.6,0.2,1.6,0.3,3.8c0,2.1,0.1,3.2,0.3,4
		c0.8,3.6,3.3,5.7,6.8,5.7c0.8,0,1.1-0.3,1.1-1c0-0.6-0.4-0.9-1-0.9c-0.7,0-1.9-0.3-2.5-0.6c-0.5-0.3-1.5-1.2-1.7-1.6
		c-0.1-0.2,0-0.3,2.6-0.3c4.2,0,7-0.4,10.4-1.6c1.9-0.7,3.9-1.6,5.5-2.6c0.7-0.4,1.2-0.7,1.3-0.7c0,0,0.1,1,0.1,2.1
		c0,5-1.4,8.7-4.6,11.9c-4.3,4.4-11.4,6.8-20.8,7.4C86.8,113.3,86.2,113.3,83,113.1z"/>
	<path class="st3" d="M66.1,84c-1.2-0.3-1.7-0.6-2.9-1.4c-1.6-1.1-3-3.3-3.6-5.2c-0.1-0.5-0.3-1.1-0.4-1.2c-0.2-0.3-0.2-0.3,0.5-2.5
		c0.4-1.3,1.4-3.3,2.5-4.7c0.5-0.6,1.8-2.3,3-3.6c1.9-2.2,2.9-3.5,4.9-6.5c2.2-3.3,1-7-2.6-8.3c-0.9-0.3-2.6-0.3-3.6,0.1
		c-1.3,0.5-2.5,1.7-3.3,3.3c-0.8,1.7-1,2.1-3.5,6.4c-0.5,1-2.1,3-3.3,4.5c-0.9,1.1-3.3,3-4.9,4c-2.6,1.5-4,1.9-6.3,1.4
		c-3.6-0.7-6.2-3.1-7.3-6.8c-0.4-1.2-0.5-3.6-0.3-4.6c0.5-2.3,3.9-5.9,7.8-8.2c1.2-0.7,1.6-0.9,4.6-2.3c2-1,3.6-2,5.1-3.4
		c0.6-0.6,1.4-1.3,1.8-1.5c1.3-0.9,1.9-2.1,1.9-3.5c0-1.2-0.3-2.1-1-2.9c-1-1.1-2.7-1.6-4.1-1.1c-0.6,0.2-3.3,1.3-3.9,1.6
		c-0.9,0.5-2.1,0.2-2.4-0.6c-0.3-0.7-0.2-1.5,0.1-1.9c0.2-0.2,0.6-0.5,1-0.8c0.4-0.2,0.8-0.4,0.8-0.5c0.1-0.2,1.9-0.8,3.1-1.1
		c0.8-0.2,1.5-0.2,2.4-0.2c1.6,0.1,2.9,0.7,4.3,1.9c1.8,1.7,2.6,4,2.3,6.6c-0.2,1.5-0.5,2.4-1.3,3.6c-0.7,1-3.2,3.9-3.4,3.9
		c-0.1,0-0.5,0.3-1.1,0.7c-0.8,0.6-2,1.3-3.2,2c-0.1,0.1-1.3,0.7-2.7,1.3c-3.2,1.6-4.5,2.4-6.2,4.2c-2.2,2.2-3,3.8-3,5.9
		c0,0.8,0.1,1.2,0.4,1.8c1.1,2.2,3.6,3.3,6,2.7c3.6-0.8,7.9-4.7,10.4-9.2c2.2-4,3.3-5.6,5.3-7.5c1.6-1.5,2.9-2.3,4.7-2.6
		c4.2-0.7,8.1,2.3,9.1,7c0.3,1.5,0.2,3.1-0.2,4.5c-0.5,1.5-1.8,4-2.8,5.3c-0.5,0.7-1,1.4-1.1,1.5c-0.1,0.1-0.4,0.4-0.6,0.6
		c-0.3,0.2-0.5,0.5-0.5,0.5c0,0.1-0.3,0.4-0.6,0.6c-0.3,0.3-0.6,0.6-0.6,0.6c0,0.1-0.3,0.4-0.7,0.9c-1.8,1.9-3.2,4.3-3.7,6.2
		c-0.3,1-0.2,2.6,0.1,3.6c0.2,0.8,1,1.8,1.7,2.3c0.6,0.4,0.7,0.4,2,0.4c1.2,0,1.5,0,2.2-0.4c1.2-0.6,2.1-1.3,2.9-2.3
		c1.3-1.7,1.9-3.3,3.1-8.2c1-4.2,1.9-6.5,3.3-8.6c0.2-0.3,0.6-0.9,0.9-1.3c1-1.5,3.2-2.9,5-3.3c3.4-0.7,7.3,1.4,8.9,4.5
		c0.7,1.3,0.8,2,0.9,3.7c0.1,1,0,1.4-0.2,2c-0.4,1.2-1.6,1.7-2.6,1.1c-0.6-0.4-0.9-1.1-0.9-2.4c0-2.6-0.5-4.2-1.7-5.3
		c-0.9-0.8-1.8-1.1-3.2-1.1c-3,0.2-5.4,3-5.9,6.8c-0.1,0.5-0.2,1.1-0.3,1.4c-0.1,0.3-0.5,1.9-0.9,3.4c-1.1,4.4-2,6.9-3.4,8.7
		c-0.3,0.4-0.6,0.9-0.8,1.2c-0.4,0.6-1.6,1.4-2.9,1.8C69.7,84.3,67.6,84.3,66.1,84z"/>
	<path class="st3" d="M65.8,80.2c-0.4-0.2-1.1-1-1.3-1.6c-0.1-0.3-0.2-1-0.1-1.9c0.1-1.2,0.1-1.5,0.6-2.4c0.3-0.6,0.6-1.2,0.8-1.4
		l0.3-0.3l2.1,1c1.1,0.6,2.5,1.2,3,1.5c1.1,0.5,1.1,0.5,0.3,2.1c-0.7,1.3-1.6,2.2-2.8,2.8C67.6,80.4,66.5,80.5,65.8,80.2z"/>
	<path class="st3" d="M41.3,65.3c-0.7-0.3-1.5-1-1.8-1.6c-0.3-0.6-0.3-2,0-2.8c0.4-1.1,1.2-2.1,2.2-3.2c1-1,2.7-2.3,2.9-2.3
		c0.1,0,0.4,0.4,0.8,0.8c0.4,0.4,1.6,1.7,2.7,2.9l2.1,2.1L49,62.5C46.2,65.1,43.3,66.2,41.3,65.3z"/>
	<path class="st3" d="M94.4,60.6c-0.4-0.1-0.7-0.3-1.3-1c-1.9-2.1-4.7-3.4-7.4-3.4c-1.4,0-2.4,0.2-3.9,0.9l-0.9,0.4L79.2,57
		c-0.8-0.3-2-0.9-2.7-1.2l-1.2-0.6l-0.2-1c-1-4-3.4-6.7-6.9-7.8c-1.1-0.3-1.4-0.4-2.7-0.3c-0.8,0-1.7,0.2-2,0.3l-0.5,0.2L61.3,45
		l-1.6-1.6l0.2-0.7c0.2-0.5,0.2-1.3,0.2-2.6c0-1.8,0-2-0.4-3.1c-1.2-3.4-4.1-5.6-7.6-5.9l-1.2-0.1L50,29c-1.3-2.6-1.3-2.6-0.5-3.1
		c0.9-0.6,1.6-0.8,2.7-0.8c2,0,3.6,1.3,5,4.2c2,4.1,2.3,4.7,3.3,6.2c4.2,6.4,10.6,11.8,18.7,15.9c2.9,1.5,5.6,2.4,8.4,3
		c2.5,0.5,4.1,0.7,7.3,0.7c3.1,0,3.9,0.1,5.4,0.8c0.8,0.4,1.3,0.7,2.2,1.7c1,1,1.8,2.2,1.8,2.7c0,0.1-0.4,0.2-2.4,0.5
		C100.5,60.8,95.2,60.8,94.4,60.6z"/>
</g>
<g id="layer105">
	<path class="st4" d="M71.8,102.2c-3.3-0.4-9.4-2.3-13.7-4.2c-9.9-4.3-19.8-11.4-27.7-19.9C20.4,67.3,14.1,55.5,12.6,45
		c-0.3-2.3-0.2-6.5,0.2-8.3c0.2-0.7,0.3-1.4,0.4-1.6c0-0.2,0-0.3-0.1-0.3c-0.3,0-2.7,1.7-3.7,2.7l-1.1,1l0.3-0.6
		c1.5-2.6,4.8-5.5,7.8-6.7c2-0.8,3.3-1,5.6-0.9c3.2,0.1,5.7,1.1,8,3.2c1.3,1.2,2.3,2.6,3.7,5.4c2.2,4.3,4.3,7.8,6.2,10.4
		c0.5,0.7,0.7,1,0.5,1.2c-0.1,0.1-0.6,0.5-1.2,0.9c-2.1,1.4-4.4,4.1-5.5,6.5c-0.3,0.6-0.6,1.4-0.8,1.7c-0.2,0.3-0.5,1-0.8,1.6
		c-2.5,4.9,0.1,10.8,5.5,12.4c1.2,0.3,3.4,0.3,4.6,0c0.5-0.1,1.4-0.5,2-0.9c0.7-0.3,1.5-0.7,1.8-0.8c0.6-0.2,0.9-0.3,2.5-1
		c1-0.5,3.1-1.8,3.8-2.4c0.3-0.3,0.5-0.5,0.5-0.5c0,0,0.6-0.5,1.2-1.2l1.2-1.2l1.4,1c0.8,0.6,1.9,1.4,2.5,1.8l1.2,0.8l-0.4,0.6
		c-0.9,1.5-3,6.2-3.4,7.5c-0.4,1.4-0.4,3.7-0.1,5c0.6,2.2,2,4,3.9,4.9c1,0.5,1.2,0.6,2.5,0.6c1.2,0.1,1.5,0,2.4-0.3
		c0.7-0.2,1.5-0.4,2.2-0.4c2.4-0.1,5-1.4,7.1-3.4c0.7-0.7,1.4-1.5,1.7-1.9c0.5-0.7,1.8-3.3,1.8-3.6c0-0.2,0.2-0.2,1.3,0.1
		c0.5,0.2,1.5,0.5,2.3,0.7c5.5,1.7,8.7,4.2,9.9,7.6c0.5,1.3,0.7,3.2,0.5,4.5c-1,5.9-5.3,9.9-11.9,11.1
		C78.3,102.5,74.1,102.5,71.8,102.2z M64.7,96.2c0.8-0.8,0.2-2.1-0.9-2.1c-0.7,0-1.2,0.5-1.2,1.2s0.5,1.2,1.2,1.2
		C64.2,96.5,64.5,96.4,64.7,96.2z M78.6,93.9c0.2-0.3,0.2-0.4,0-0.7c-0.4-0.4-0.9-0.4-1.2,0.1c-0.2,0.3-0.2,0.4,0,0.7
		C77.7,94.5,78.3,94.5,78.6,93.9z M70.9,90.1c0.3-0.2,0.2-0.8-0.2-0.8c-0.4-0.1-0.7,0.3-0.5,0.7C70.4,90.3,70.6,90.3,70.9,90.1z
		 M63.4,89.8c0-0.1-0.1-0.2-0.3-0.3c-0.3,0-0.3,0-0.3,0.3s0.1,0.3,0.3,0.3C63.3,90,63.4,89.9,63.4,89.8z M51.9,80.8
		c0.3-0.2,0.4-0.9,0.1-1.1c-0.4-0.3-1-0.1-1.2,0.3c-0.1,0.3-0.1,0.4,0.2,0.7C51.4,81,51.5,81,51.9,80.8z M33.2,75.2
		c0.1-0.5-0.4-0.7-0.7-0.4c-0.2,0.2-0.2,0.3-0.1,0.5C32.6,75.8,33.2,75.7,33.2,75.2z M25.2,62.7c0.2-0.3,0.2-0.4,0-0.7
		c-0.1-0.2-0.4-0.4-0.6-0.4c-0.2,0-0.4,0.1-0.6,0.4c-0.2,0.3-0.2,0.4,0,0.7c0.1,0.2,0.4,0.4,0.6,0.4C24.8,63,25.1,62.9,25.2,62.7z
		 M23.5,53.4c0.1-0.1,0.3-0.3,0.4-0.5c0.7-1.4-1-2.6-2-1.5C20.9,52.4,22.1,53.9,23.5,53.4z M32,52.1c0.4-0.4,0.2-1.1-0.4-1.1
		s-0.8,0.6-0.4,1.1c0.1,0.1,0.3,0.2,0.4,0.2C31.7,52.3,31.9,52.2,32,52.1z M25.5,45c0.1-0.2,0.1-0.4,0-0.6c-0.2-0.4-0.8-0.4-1,0
		c-0.2,0.4-0.2,0.4,0.1,0.6C24.9,45.4,25.4,45.3,25.5,45z"/>
	<path class="st5" d="M66.1,84c-1.2-0.3-1.7-0.6-2.9-1.4c-1.6-1.1-3-3.3-3.6-5.2c-0.1-0.5-0.3-1.1-0.4-1.2c-0.2-0.3-0.2-0.3,0.5-2.5
		c0.4-1.3,1.4-3.3,2.5-4.7c0.5-0.6,1.8-2.3,3-3.6c1.9-2.2,2.9-3.5,4.9-6.5c2.2-3.3,1-7-2.6-8.3c-0.9-0.3-2.6-0.3-3.6,0.1
		c-1.3,0.5-2.5,1.7-3.3,3.3c-0.8,1.7-1,2.1-3.5,6.4c-0.5,1-2.1,3-3.3,4.5c-0.9,1.1-3.3,3-4.9,4c-2.6,1.5-4,1.9-6.3,1.4
		c-3.6-0.7-6.2-3.1-7.3-6.8c-0.4-1.2-0.5-3.6-0.3-4.6c0.5-2.3,3.9-5.9,7.8-8.2c1.2-0.7,1.6-0.9,4.6-2.3c2-1,3.6-2,5.1-3.4
		c0.6-0.6,1.4-1.3,1.8-1.5c1.3-0.9,1.9-2.1,1.9-3.5c0-1.2-0.3-2.1-1-2.9c-1-1.1-2.7-1.6-4.1-1.1c-0.6,0.2-3.3,1.3-3.9,1.6
		c-0.9,0.5-2.1,0.2-2.4-0.6c-0.3-0.7-0.2-1.5,0.1-1.9c0.2-0.2,0.8-0.6,1.4-0.9c0.6-0.3,1.2-0.6,1.3-0.7c0.1-0.1,0.8-0.3,1.6-0.5
		c1.2-0.3,1.6-0.4,2.8-0.3c1.2,0,1.5,0.1,2.4,0.6c0.6,0.3,1.4,0.8,1.9,1.3c1.8,1.7,2.6,4,2.3,6.6c-0.2,1.4-0.5,2.3-1.3,3.6
		c-0.6,0.9-3.2,3.9-3.4,3.9c-0.1,0-0.5,0.3-1.1,0.7c-0.8,0.6-2,1.3-3.2,2c-0.1,0.1-1.3,0.7-2.7,1.3c-3.2,1.6-4.5,2.4-6.2,4.2
		c-2.2,2.2-3,3.8-3,5.9c0,0.8,0.1,1.2,0.4,1.8c0.8,1.5,2.4,2.6,4.2,2.8c2.3,0.2,5.4-1.3,8.2-4c2-2,3.1-3.4,4.6-6.2
		c1.6-3,2.7-4.5,4.5-6.3c1.9-1.9,3.1-2.6,5-2.9c4.2-0.7,8.1,2.3,9.1,7c0.2,1.2,0.2,3.3-0.1,3.8c-0.1,0.1-0.2,0.6-0.4,1.1
		c-0.4,1.3-1.5,3.4-2.6,4.9c-0.5,0.7-1,1.4-1.1,1.5c-0.1,0.1-0.4,0.4-0.6,0.6c-0.3,0.2-0.5,0.5-0.5,0.5s-0.3,0.4-0.6,0.6
		c-0.3,0.3-0.6,0.6-0.6,0.6s-0.3,0.4-0.7,0.9c-1.8,1.9-3.2,4.3-3.7,6.2c-0.3,1-0.2,2.6,0.1,3.6c0.2,0.8,1,1.8,1.7,2.3
		c0.6,0.4,0.7,0.4,2,0.4c1.2,0,1.5,0,2.2-0.4c1.2-0.6,2.1-1.3,2.9-2.3c1.3-1.7,1.9-3.3,3.1-8.2c1-4.2,1.9-6.5,3.3-8.6
		c0.2-0.3,0.6-0.9,0.9-1.3c1-1.5,3.2-2.9,5-3.3c3.4-0.7,7.3,1.4,8.9,4.5c0.7,1.3,0.8,2,0.9,3.7c0.1,1,0,1.4-0.2,2
		c-0.4,1.2-1.6,1.7-2.6,1.1c-0.6-0.4-0.9-1.1-0.9-2.4c0-2.6-0.5-4.2-1.7-5.3c-0.9-0.8-1.8-1.1-3.2-1.1c-3,0.2-5.4,3-5.9,6.8
		c-0.1,0.5-0.2,1.1-0.3,1.4c-0.1,0.3-0.5,1.9-0.9,3.4c-1.1,4.4-2,6.9-3.4,8.7c-0.3,0.4-0.6,0.9-0.8,1.2c-0.4,0.6-1.6,1.4-2.9,1.8
		C69.7,84.3,67.6,84.3,66.1,84z"/>
	<path class="st4" d="M65.5,80c-1.6-1-1.5-5.1,0.2-7.2l0.3-0.3l2.1,1c1.1,0.6,2.5,1.2,3,1.5c0.9,0.4,1,0.4,0.9,0.8
		c-0.3,1.3-2.1,3.3-3.5,4C67.6,80.3,66.2,80.3,65.5,80z"/>
	<path class="st4" d="M41.9,65.5c-1.1-0.3-2.2-1.3-2.5-2.3c-0.4-1.5,0.7-3.8,2.6-5.7c0.8-0.8,2.4-2,2.7-2c0.1,0,0.4,0.4,0.8,0.8
		c0.4,0.4,1.6,1.7,2.7,2.9l2.1,2.1l-0.8,0.8C46.9,64.6,43.9,65.9,41.9,65.5z"/>
	<path class="st4" d="M102.5,59.9l-0.4-0.5l-2.7,0.1c-1.6,0.1-3.6,0-4.6-0.1l-1.9-0.2l-0.9-0.7c-1.1-0.9-3-1.8-4.3-2.1
		c-1.2-0.3-3.5-0.2-4.5,0.2c-0.6,0.2-0.8,0.2-1.2,0.1c-1-0.3-4.5-1.8-5.7-2.5c-1.1-0.6-1.1-0.6-1.4-1.5c-0.9-2.6-3.3-5-5.8-5.9
		c-0.4-0.2-1-0.4-1.1-0.5c-0.2-0.1-0.9-0.2-1.8-0.2h-1.5L62.3,44l-2.1-2.1V40c0-1.2-0.1-2-0.2-2.1c-0.1-0.1-0.3-0.6-0.5-1.1
		c-0.5-1.4-1.8-3.2-2.8-4c-1.1-0.8-2.3-1.4-3.5-1.6l-0.9-0.2l-1.1-2.3c-1.2-2.5-1.1-2.3-2.1-2.1c-0.5,0.1-0.3-0.3,0.3-0.7
		c0.9-0.6,1.6-0.8,2.7-0.8c2,0,3.6,1.3,5,4.2c2,4.1,2.3,4.7,3.3,6.2c4.2,6.4,10.6,11.8,18.7,15.9c2.9,1.5,5.6,2.4,8.4,3
		c2.5,0.5,4.1,0.7,7.3,0.7c3.1,0,3.9,0.1,5.4,0.8c0.8,0.4,1.3,0.7,2.2,1.7c1,1,1.8,2.2,1.8,2.7c0,0.1-0.3,0.2-0.6,0.2
		C103,60.4,102.9,60.4,102.5,59.9z"/>
</g>
</svg>
